{"glyphs":{"0":{"ha":772,"x_min":51,"x_max":713,"o":"m 526 972 q 713 490 713 872 q 567 37 713 156 q 382 -24 494 -24 q 51 490 51 -24 l 51 505 q 197 945 51 826 q 382 1005 271 1005 q 526 972 463 1005 m 382 991 q 64 519 64 991 l 64 490 q 382 -10 64 -10 q 664 210 590 -10 q 699 490 699 316 q 382 991 699 991 m 518 812 q 449 881 480 866 q 381 890 429 890 l 380 890 q 252 822 300 890 q 190 490 190 734 l 190 488 q 215 241 190 328 q 382 90 260 90 q 574 490 574 90 q 518 812 574 734 m 528 821 q 580 686 569 764 q 587 490 587 635 q 382 77 587 77 q 176 488 176 77 l 176 490 q 380 904 176 904 l 381 904 q 528 821 469 904 z "},"1":{"ha":772,"x_min":144,"x_max":524,"o":"m 395 -7 q 389 0 389 -7 l 389 762 q 153 625 290 675 q 144 631 144 621 l 144 749 q 149 755 146 753 q 433 1001 361 854 q 439 1005 435 1004 l 517 1005 q 524 954 524 998 l 524 0 q 517 -7 524 -7 l 395 -7 m 515 991 l 443 991 q 158 745 367 844 l 158 640 q 391 783 300 696 q 402 778 402 793 l 402 7 l 511 7 l 511 954 q 515 991 511 970 z "},"2":{"ha":772,"x_min":34,"x_max":706,"o":"m 42 -7 q 34 10 34 -7 q 50 87 34 45 q 163 257 83 173 q 317 394 208 303 q 549 650 509 553 q 566 725 566 690 q 512 846 566 800 q 385 890 462 890 q 248 839 297 890 q 197 698 198 787 q 158 694 197 690 l 115 699 q 81 701 104 699 q 58 711 58 702 q 157 930 72 855 q 388 1005 243 1005 q 610 932 522 1005 q 705 722 705 854 q 642 535 705 626 q 506 389 601 475 q 378 278 479 365 q 296 206 309 219 q 224 124 251 165 l 699 124 q 706 117 706 124 l 706 0 q 699 -7 706 -7 l 42 -7 m 692 7 l 692 111 l 212 111 q 205 121 199 111 q 359 281 241 179 q 536 434 530 429 q 667 608 635 531 q 691 722 691 664 q 545 959 691 887 q 388 991 479 991 q 73 717 101 991 l 184 705 q 240 850 186 797 q 385 904 294 904 q 522 856 467 904 q 579 725 579 806 q 423 469 579 615 q 279 345 404 451 q 142 213 189 268 q 49 7 49 104 l 692 7 z "},"3":{"ha":772,"x_min":51,"x_max":716,"o":"m 619 68 q 497 -13 553 5 q 374 -24 460 -24 q 155 53 243 -24 q 52 262 64 132 q 81 273 51 269 l 121 277 q 177 286 160 282 q 191 271 188 286 q 205 216 199 233 q 375 90 252 90 q 517 148 460 90 q 573 291 573 205 q 520 426 573 374 q 385 477 468 477 q 301 464 353 477 q 291 481 291 461 q 297 530 291 497 l 306 578 q 332 583 307 583 q 435 604 387 583 q 513 672 492 629 q 528 743 528 702 q 484 851 528 810 q 372 891 440 891 q 259 848 304 891 q 199 718 208 775 q 188 713 198 711 l 69 734 q 64 742 62 735 q 166 935 87 865 q 370 1005 246 1005 q 576 934 490 1005 q 667 740 667 859 q 658 674 667 705 q 649 653 656 669 q 543 541 617 580 q 716 294 716 490 q 619 68 716 161 m 187 727 q 248 857 199 787 l 249 858 q 372 905 296 905 q 494 860 446 905 q 542 743 542 815 q 477 612 542 659 q 332 570 420 570 q 319 570 327 570 l 307 479 q 385 491 353 491 q 530 435 473 491 q 587 291 587 379 q 526 138 587 200 q 375 77 466 77 q 175 271 217 77 l 66 256 q 166 61 80 134 q 374 -11 250 -11 q 605 73 511 -11 q 703 294 703 159 q 522 532 703 490 q 515 538 516 533 q 521 545 515 542 q 645 678 611 587 q 654 740 654 702 q 567 924 654 853 q 370 991 485 991 q 177 926 253 991 q 79 746 101 861 l 187 727 z "},"4":{"ha":772,"x_min":11,"x_max":712,"o":"m 578 231 l 578 0 q 571 -7 578 -7 l 449 -7 q 442 0 442 -7 l 442 231 l 18 231 q 11 238 11 231 l 11 350 q 12 354 12 353 l 466 998 q 471 1001 469 1000 l 571 1001 q 578 994 578 1001 l 578 357 l 705 357 q 712 350 712 357 l 712 238 q 705 231 712 231 l 578 231 m 699 245 l 699 343 l 571 343 q 564 350 564 343 l 564 987 l 475 987 l 24 348 l 24 245 l 449 245 q 456 238 456 245 l 456 7 l 564 7 l 564 238 q 571 245 564 245 l 699 245 m 442 777 l 151 357 l 442 357 l 442 777 m 456 798 l 456 350 q 449 343 456 343 l 138 343 q 132 354 125 343 l 444 802 q 452 806 447 807 q 456 798 456 804 z "},"5":{"ha":772,"x_min":50,"x_max":724,"o":"m 644 100 q 377 -24 545 -24 q 155 51 242 -24 q 51 260 64 127 q 84 269 50 267 l 144 275 q 182 277 176 277 q 195 267 193 277 q 204 222 201 233 q 256 136 234 156 q 377 90 307 90 q 528 163 471 90 q 581 326 581 229 q 527 483 581 424 q 375 545 472 545 q 199 452 259 545 q 193 448 197 448 l 79 463 q 73 483 71 465 q 81 516 76 494 l 169 982 q 176 987 170 987 l 670 987 q 677 981 677 987 l 677 864 q 670 857 677 857 l 279 857 l 230 612 q 408 666 315 666 q 636 570 547 666 q 724 337 724 477 q 644 100 724 200 m 633 108 q 710 337 710 205 q 627 561 710 471 q 408 652 541 652 q 224 591 311 652 q 218 589 220 589 q 220 631 211 589 l 267 865 q 273 871 268 871 l 663 871 l 663 974 l 181 974 l 87 476 l 191 463 q 375 558 254 558 q 537 493 477 558 q 594 326 594 430 q 538 153 594 223 q 377 77 478 77 q 248 125 302 77 q 192 216 215 155 l 191 217 q 180 264 185 233 l 65 254 q 166 58 79 130 q 377 -10 250 -10 q 633 108 539 -10 z "},"6":{"ha":772,"x_min":41,"x_max":715,"o":"m 674 146 q 397 -24 589 -24 q 143 92 241 -24 q 45 465 41 210 l 46 507 q 153 888 50 762 q 409 1005 248 1005 q 606 938 530 1005 q 698 751 683 871 q 692 744 699 745 l 570 734 q 563 740 564 734 q 519 841 547 810 q 401 891 472 891 q 214 740 277 891 q 181 535 184 667 l 184 539 q 415 652 259 652 q 635 553 550 652 q 715 323 715 460 q 674 146 715 229 m 663 152 q 702 323 702 231 q 625 543 702 454 q 415 638 544 638 q 179 509 264 638 q 172 505 176 504 q 167 513 167 507 q 295 871 170 779 q 401 905 341 905 q 575 749 538 905 l 684 757 q 594 930 667 868 q 409 991 522 991 q 151 871 239 991 q 60 509 60 748 l 60 507 l 59 465 q 154 100 55 215 q 397 -10 248 -10 q 663 152 581 -10 m 392 530 l 391 530 q 250 469 303 530 q 199 322 199 411 q 250 163 199 230 q 395 90 306 90 q 532 162 482 90 q 577 315 577 225 q 531 465 577 406 q 392 530 481 530 m 591 315 q 543 152 591 219 q 395 77 488 77 q 241 153 300 77 q 186 322 186 224 q 241 478 186 415 q 391 544 299 544 l 392 544 q 541 475 486 544 q 591 315 591 412 z "},"7":{"ha":772,"x_min":59,"x_max":716,"o":"m 713 881 q 515 595 607 767 q 384 271 431 435 q 337 -1 347 146 q 330 -7 336 -7 l 205 -7 q 198 0 198 -7 q 283 410 201 183 q 455 747 347 584 q 538 857 496 809 l 66 857 q 59 864 59 857 l 59 981 q 66 988 59 988 l 709 988 q 716 981 716 988 l 716 886 q 713 881 715 883 m 703 890 l 705 891 l 703 886 l 703 975 l 73 975 l 73 871 l 553 871 q 558 859 568 871 q 466 739 508 802 q 296 406 359 581 q 212 7 217 186 l 324 7 q 515 621 347 317 q 703 890 616 803 z "},"8":{"ha":772,"x_min":50,"x_max":718,"o":"m 224 540 l 218 543 q 90 742 90 600 l 90 744 q 159 920 90 848 q 332 1002 227 989 q 382 1005 354 1005 q 589 935 505 1005 q 677 739 677 859 q 543 540 677 598 l 552 536 q 718 284 718 473 q 620 58 718 144 q 384 -24 526 -24 q 147 59 240 -24 q 50 288 50 146 q 224 540 50 483 m 705 284 q 522 532 705 473 q 516 539 516 534 q 522 545 516 543 q 664 739 664 599 q 579 925 664 854 q 382 991 500 991 q 187 927 265 991 q 103 744 103 858 l 103 742 q 248 545 103 599 q 254 538 254 543 q 248 532 253 534 q 63 288 63 484 q 157 68 63 151 q 384 -10 245 -10 q 610 68 520 -10 q 705 284 705 150 m 385 891 l 383 891 q 274 851 319 891 q 228 746 228 809 q 272 635 228 677 q 385 593 315 593 q 494 633 450 593 q 538 739 538 674 q 494 848 538 804 q 385 891 450 891 m 552 739 q 504 624 552 669 q 385 579 455 579 q 262 625 309 579 q 214 746 214 671 q 264 860 214 815 q 383 905 313 905 l 385 905 q 504 858 456 905 q 552 739 552 810 m 382 479 l 381 479 q 243 425 297 479 q 189 287 189 371 q 244 145 189 201 q 385 90 299 90 q 525 144 471 90 q 580 283 580 198 q 524 424 580 368 q 382 479 468 479 m 566 392 q 593 283 593 345 q 535 134 593 192 q 385 77 476 77 q 234 136 294 77 q 175 287 175 195 q 233 435 175 376 q 381 493 292 493 l 382 493 q 566 392 506 493 z "},"9":{"ha":772,"x_min":51,"x_max":718,"o":"m 676 212 q 355 -24 590 -24 q 160 43 235 -24 q 69 229 84 110 q 75 237 68 236 l 193 248 q 200 242 199 248 q 358 90 227 90 q 565 296 513 90 q 583 444 583 368 l 583 447 q 352 330 497 330 q 130 429 214 330 q 51 663 51 523 q 136 905 51 810 q 370 1005 224 1005 q 554 950 473 1005 q 676 800 635 895 q 718 517 718 702 q 676 212 718 326 m 664 216 q 705 517 705 328 q 678 752 705 663 q 544 941 641 878 q 370 991 465 991 q 145 896 230 991 q 64 663 64 805 q 140 439 64 529 q 352 344 220 344 q 584 471 503 344 q 591 475 587 477 q 596 468 596 475 q 597 444 597 445 q 549 203 597 301 q 358 77 486 77 q 188 233 218 77 l 83 224 q 171 51 100 112 q 355 -10 242 -10 q 664 216 581 -10 m 385 890 q 240 817 296 890 q 190 659 190 751 q 241 513 190 570 q 382 452 295 452 q 523 517 473 452 q 569 669 569 576 q 524 821 569 759 q 385 890 473 890 m 583 669 q 533 507 583 569 q 382 438 479 438 q 232 503 290 438 q 176 659 176 565 q 231 827 176 756 q 385 904 290 904 q 533 831 478 904 q 583 669 583 765 z "}," ":{"ha":386,"x_min":0,"x_max":0,"o":""},"!":{"ha":386,"x_min":113,"x_max":277,"o":"m 277 774 l 242 246 q 235 240 241 240 l 157 240 q 150 246 151 240 l 138 405 q 127 564 136 431 l 113 812 l 113 994 q 119 1001 113 1001 l 271 1001 q 277 994 277 1001 l 277 774 m 264 987 l 126 987 l 126 774 q 136 590 126 699 q 152 406 142 529 l 163 254 l 229 254 l 264 774 l 264 987 m 125 -7 q 118 0 118 -7 l 118 139 q 125 146 118 146 l 265 146 q 272 139 272 146 l 272 0 q 265 -7 272 -7 l 125 -7 m 258 7 l 258 132 l 132 132 l 132 7 l 258 7 z "},"\"":{"ha":493,"x_min":57,"x_max":435,"o":"m 402 641 q 395 635 401 635 l 322 635 q 311 669 317 635 q 282 830 296 741 l 282 994 q 289 1001 282 1001 l 428 1001 q 435 994 435 1001 l 435 830 l 402 641 m 421 832 l 421 987 l 296 987 l 296 832 l 328 649 l 390 649 l 421 832 m 210 830 l 179 641 q 172 635 178 635 l 98 635 q 87 662 92 635 l 57 833 l 57 994 q 64 1001 57 1001 l 203 1001 q 210 994 210 1001 l 210 830 m 103 649 l 166 649 l 169 665 l 196 832 l 196 987 l 71 987 l 71 832 l 103 649 z "},"#":{"ha":772,"x_min":7,"x_max":762,"o":"m 686 927 l 646 727 l 755 727 q 762 720 762 727 l 762 619 q 755 612 762 612 l 623 612 l 574 380 l 755 380 q 762 373 762 380 l 762 272 q 755 265 762 265 l 551 265 l 494 -18 q 487 -24 492 -24 l 385 -24 q 379 -8 376 -24 q 387 25 382 3 l 435 265 l 236 265 l 178 -18 q 172 -24 177 -24 l 70 -24 q 64 -8 60 -24 q 71 25 66 3 l 121 265 l 14 265 q 7 272 7 265 l 7 373 q 14 380 7 380 l 144 380 l 191 612 l 14 612 q 7 619 7 612 l 7 720 q 14 727 7 727 l 214 727 l 272 1013 q 279 1018 273 1018 l 380 1018 q 387 1002 390 1018 q 379 968 384 991 l 330 727 l 530 727 l 587 1013 q 594 1018 589 1018 l 696 1018 q 704 1004 704 1018 q 696 961 704 991 q 686 927 692 949 m 688 1004 l 600 1004 l 542 719 q 535 713 541 713 l 321 713 q 315 722 313 713 l 372 1004 l 284 1004 l 227 719 q 220 713 225 713 l 21 713 l 21 626 l 199 626 q 206 618 208 626 l 156 372 q 149 366 155 366 l 21 366 l 21 279 l 129 279 q 136 271 137 279 l 78 -10 l 166 -10 l 224 273 q 231 279 225 279 l 444 279 q 450 271 452 279 l 393 -10 l 481 -10 l 539 273 q 546 279 541 279 l 748 279 l 748 366 l 566 366 q 559 374 557 366 l 602 576 q 610 621 604 587 q 617 626 612 626 l 748 626 l 748 713 l 637 713 q 631 722 629 713 l 688 1004 m 307 612 l 259 380 l 458 380 l 507 612 l 307 612 m 301 626 l 515 626 q 522 618 523 626 l 471 372 q 464 366 469 366 l 251 366 q 244 374 243 366 l 294 621 q 301 626 296 626 z "},"$":{"ha":772,"x_min":42,"x_max":714,"o":"m 339 1034 l 339 1086 q 346 1093 339 1093 l 418 1093 q 425 1086 425 1093 l 425 1034 q 690 783 658 1008 q 684 776 690 777 l 557 757 q 550 763 551 756 q 425 916 531 890 l 425 578 q 538 544 505 557 q 714 283 714 473 q 634 68 714 153 q 425 -26 553 -18 l 425 -143 q 418 -150 425 -150 l 346 -150 q 339 -143 339 -150 l 339 -27 q 198 12 251 -15 q 92 112 135 45 q 43 275 50 178 q 48 283 42 281 l 171 306 q 179 300 178 307 q 262 123 198 175 q 339 90 296 96 l 339 465 q 189 523 266 479 q 64 750 64 593 q 158 966 64 884 q 339 1034 220 1021 m 411 -136 l 411 -20 q 418 -13 411 -13 q 622 75 543 -7 q 701 283 701 157 q 537 530 701 458 q 416 566 510 542 q 411 572 411 567 l 411 924 q 419 931 411 932 q 562 771 540 906 l 675 788 q 417 1021 642 999 q 411 1027 411 1021 l 411 1079 l 353 1079 l 353 1027 q 347 1021 353 1021 q 168 956 228 1008 q 77 750 77 876 q 195 535 77 602 q 347 477 272 492 q 353 471 353 476 l 353 82 q 345 75 353 75 q 217 151 270 83 q 167 291 181 196 l 57 271 q 200 26 72 92 q 347 -14 256 -3 q 353 -21 353 -15 l 353 -136 l 411 -136 m 339 918 q 238 864 277 906 q 199 760 199 822 q 339 597 199 642 l 339 918 m 353 926 l 353 588 q 344 581 353 578 q 186 760 186 629 q 231 876 186 829 q 345 932 275 922 q 353 926 353 934 m 544 376 q 529 395 544 376 q 425 444 513 414 l 425 90 q 534 153 494 101 q 575 275 575 204 q 544 376 575 338 m 554 386 q 572 365 554 386 q 589 275 589 344 q 542 141 589 197 q 418 75 495 85 q 411 82 411 75 l 411 454 q 420 460 411 463 q 554 386 520 428 z "},"%":{"ha":1235,"x_min":74,"x_max":1157,"o":"m 1141 144 q 935 -43 1098 -43 q 812 -5 864 -43 q 717 233 717 66 l 717 235 q 768 415 717 343 q 930 496 826 496 l 933 496 q 1097 422 1035 496 q 1157 250 1157 353 q 1157 238 1157 246 q 1156 226 1156 230 l 1156 225 q 1141 144 1152 192 m 1127 147 q 1143 227 1138 191 q 1094 404 1143 336 q 933 482 1038 482 l 930 482 q 778 405 831 482 q 730 235 730 338 l 730 233 q 820 6 730 73 q 933 -31 869 -31 q 1072 26 1014 -31 q 1127 147 1106 58 m 866 362 q 837 221 837 288 q 936 54 837 54 q 1036 231 1036 54 l 1036 247 q 977 388 1036 356 q 937 398 958 398 q 866 362 895 398 m 855 370 q 936 412 887 412 q 1018 371 985 412 q 1050 248 1050 330 l 1050 231 q 936 41 1050 41 q 823 221 823 41 q 854 368 823 292 l 855 370 m 922 969 l 401 -40 q 395 -43 399 -43 l 294 -43 q 288 -33 282 -43 l 831 1015 q 838 1018 833 1017 l 937 1018 q 943 1013 943 1018 q 922 969 941 1004 m 926 1004 l 842 1004 l 304 -30 l 391 -30 l 926 1004 m 513 748 q 459 562 513 636 q 291 479 399 479 q 123 565 180 479 q 74 755 74 639 q 126 939 74 867 q 290 1018 184 1018 q 460 936 401 1018 q 513 748 513 863 m 290 1004 q 135 927 189 1004 q 87 755 87 860 q 132 575 87 644 q 291 492 186 492 q 450 572 394 492 q 499 748 499 641 q 451 926 499 858 q 290 1004 395 1004 m 334 910 q 294 920 315 920 q 194 743 194 920 q 293 576 194 576 q 393 753 393 576 q 334 910 393 878 m 406 753 q 293 563 406 563 q 180 743 180 563 q 293 934 180 934 q 374 893 342 934 q 406 753 406 852 z "},"&":{"ha":926,"x_min":53,"x_max":901,"o":"m 873 37 l 818 -27 q 809 -28 814 -32 q 660 107 736 18 q 374 -24 538 -24 q 127 81 218 -24 q 53 274 53 167 q 286 573 53 460 q 178 789 178 699 q 239 939 178 876 q 383 1015 297 1001 q 431 1018 405 1018 q 608 948 540 1018 q 669 799 669 886 q 485 555 669 656 l 652 342 q 694 469 678 399 q 702 475 695 476 l 829 448 q 834 439 836 446 q 747 227 802 311 q 899 79 814 139 q 901 75 901 77 q 873 37 901 71 m 884 73 q 734 222 802 133 q 734 231 731 227 q 819 435 787 311 l 706 460 q 659 326 689 384 q 648 326 654 317 l 469 553 q 471 563 465 559 q 656 799 656 662 q 598 939 656 880 q 431 1004 534 1004 q 265 946 335 1004 q 191 789 191 884 q 302 576 191 705 q 299 565 308 569 q 66 274 66 454 q 112 124 66 194 q 229 20 157 54 q 374 -10 292 -10 q 655 122 536 -10 q 665 121 660 127 q 811 -14 741 32 l 884 73 m 427 904 l 425 904 q 348 875 380 904 q 317 801 317 846 q 352 716 317 764 q 413 644 356 711 l 427 652 q 531 795 531 715 q 502 873 531 842 q 427 904 473 904 m 545 795 q 505 695 545 738 q 458 657 494 683 q 412 629 420 629 q 380 663 409 629 q 303 801 303 752 q 338 885 303 852 q 425 918 374 918 l 427 918 q 512 883 479 918 q 545 795 545 848 m 358 482 q 198 281 198 386 q 250 153 198 208 q 376 98 302 98 q 488 132 431 98 q 575 213 542 165 l 358 482 m 365 495 l 589 218 q 589 215 589 216 q 533 147 589 194 q 376 84 456 84 q 240 143 296 84 q 184 281 184 202 q 356 497 184 395 q 365 495 361 500 z "},"'":{"ha":265,"x_min":54,"x_max":207,"o":"m 207 827 l 174 641 q 168 635 174 635 l 92 635 q 81 669 86 635 l 54 828 l 54 994 q 61 1001 54 1001 l 200 1001 q 207 994 207 1001 l 207 827 m 98 649 l 162 649 l 193 829 l 193 987 l 68 987 l 68 829 l 98 649 z "},"(":{"ha":463,"x_min":77,"x_max":425,"o":"m 382 945 q 245 613 281 766 q 216 359 216 488 q 418 -289 216 35 q 412 -299 424 -299 l 325 -299 q 219 -146 305 -299 q 77 360 77 107 q 158 748 77 554 q 197 823 172 781 q 319 1015 245 905 q 325 1018 322 1017 l 412 1018 q 418 1008 425 1018 q 382 945 406 986 m 401 1004 l 328 1004 q 208 816 294 958 q 142 667 176 762 q 91 360 91 522 q 231 -140 91 112 q 328 -286 275 -218 l 400 -286 q 203 359 203 37 q 298 812 203 596 q 401 1004 326 876 z "},")":{"ha":463,"x_min":72,"x_max":419,"o":"m 228 944 q 419 360 419 657 q 269 -159 419 102 q 172 -299 189 -299 l 84 -299 q 79 -289 73 -299 q 280 359 280 34 l 280 366 q 171 840 280 620 q 78 1008 144 895 q 84 1018 72 1018 l 172 1018 q 228 944 178 1018 m 168 1004 l 96 1004 q 196 818 167 883 q 294 366 294 602 l 294 359 q 96 -286 294 37 l 168 -286 q 406 360 406 18 q 168 1004 406 686 z "},"*":{"ha":541,"x_min":37,"x_max":498,"o":"m 338 769 q 445 650 378 731 q 446 646 446 648 q 413 618 446 642 l 362 583 q 353 584 357 578 q 265 720 315 634 q 182 584 218 631 q 178 582 180 582 q 132 612 173 582 q 90 646 90 643 q 92 650 90 648 q 144 713 118 682 l 153 723 q 195 770 177 751 q 41 805 113 787 q 37 813 37 806 q 53 863 39 821 l 68 910 q 87 911 70 917 q 223 854 179 878 q 211 1011 217 916 q 218 1018 210 1018 l 316 1018 q 322 992 323 1018 q 309 854 318 930 q 458 914 374 887 q 473 897 467 917 q 482 863 476 885 q 498 814 492 832 q 494 806 498 807 q 338 769 413 779 m 359 597 l 429 647 q 318 768 389 698 q 322 781 308 779 q 483 816 402 790 l 456 899 q 304 837 372 871 q 296 837 299 835 q 294 844 293 839 q 309 993 304 918 l 309 1004 l 224 1004 q 238 843 226 955 q 236 837 239 838 q 232 836 234 836 q 228 836 230 836 q 82 898 209 847 l 79 899 l 52 817 q 211 781 125 798 q 214 769 224 778 q 163 713 213 768 l 155 705 q 106 647 146 696 l 141 622 q 176 597 146 619 q 259 737 210 645 q 271 737 265 748 q 359 597 321 650 z "},"+":{"ha":811,"x_min":71,"x_max":741,"o":"m 341 427 l 77 427 q 71 433 71 427 l 71 547 q 77 554 71 554 l 341 554 l 341 818 q 348 825 341 825 l 463 825 q 470 818 470 825 l 470 554 l 734 554 q 741 547 741 554 l 741 433 q 734 427 741 427 l 470 427 l 470 161 q 463 154 470 154 l 348 154 q 341 161 341 154 l 341 427 m 355 168 l 456 168 l 456 433 q 463 440 456 440 l 727 440 l 727 541 l 463 541 q 456 547 456 541 l 456 811 l 355 811 l 355 547 q 348 541 355 541 l 84 541 l 84 440 l 348 440 q 355 433 355 440 l 355 168 z "},",":{"ha":386,"x_min":109,"x_max":269,"o":"m 241 -127 q 227 -151 241 -127 q 152 -203 213 -176 q 147 -203 149 -204 q 144 -200 145 -203 q 109 -144 110 -150 q 113 -138 109 -140 q 186 -7 180 -107 l 123 -7 q 117 0 117 -7 l 117 139 q 123 146 117 146 l 262 146 q 269 139 269 146 l 269 0 q 241 -127 269 -79 m 130 7 l 193 7 q 201 -9 201 7 q 128 -146 201 -110 l 125 -147 l 152 -188 l 155 -186 q 256 0 256 -136 l 256 132 l 130 132 l 130 7 z "},"-":{"ha":463,"x_min":37,"x_max":426,"o":"m 426 298 q 419 292 426 292 l 44 292 q 37 298 37 292 l 37 421 q 44 428 37 428 l 419 428 q 426 421 426 428 l 426 298 m 412 414 l 51 414 l 51 305 l 412 305 l 412 414 z "},".":{"ha":386,"x_min":119,"x_max":272,"o":"m 126 -7 q 119 0 119 -7 l 119 139 q 126 146 119 146 l 265 146 q 272 139 272 146 l 272 0 q 265 -7 272 -7 l 126 -7 m 258 132 l 133 132 l 133 7 l 258 7 l 258 132 z "},"/":{"ha":386,"x_min":-7,"x_max":393,"o":"m 380 966 l 105 -19 q 98 -24 104 -24 l 0 -24 q -7 -16 -7 -24 q 5 24 -5 -9 l 281 1013 q 288 1018 283 1018 l 386 1018 q 393 1010 393 1018 q 380 966 391 1001 m 377 1004 l 294 1004 l 9 -10 l 93 -10 l 377 1004 z "},":":{"ha":386,"x_min":119,"x_max":271,"o":"m 125 574 q 119 581 119 574 l 119 720 q 125 727 119 727 l 264 727 q 271 720 271 727 l 271 581 q 264 574 271 574 l 125 574 m 258 713 l 132 713 l 132 588 l 258 588 l 258 713 m 125 -7 q 119 0 119 -7 l 119 139 q 125 146 119 146 l 264 146 q 271 139 271 146 l 271 0 q 264 -7 271 -7 l 125 -7 m 258 132 l 132 132 l 132 7 l 258 7 l 258 132 z "},";":{"ha":386,"x_min":109,"x_max":269,"o":"m 123 574 q 117 581 117 574 l 117 720 q 123 727 117 727 l 262 727 q 269 720 269 727 l 269 581 q 262 574 269 574 l 123 574 m 256 713 l 130 713 l 130 588 l 256 588 l 256 713 m 217 -159 q 152 -203 192 -185 q 148 -203 150 -203 q 144 -200 145 -203 q 109 -144 110 -150 q 113 -138 109 -140 q 186 -7 180 -106 l 123 -7 q 117 0 117 -7 l 117 139 q 123 146 117 146 l 262 146 q 269 139 269 146 l 269 0 q 217 -159 269 -106 m 130 7 l 193 7 q 199 0 199 7 q 125 -147 195 -113 l 152 -188 q 256 0 256 -140 l 256 132 l 130 132 l 130 7 z "},"<":{"ha":811,"x_min":69,"x_max":741,"o":"m 741 705 q 737 699 741 701 l 230 491 l 737 281 q 741 275 741 279 l 741 153 q 732 147 741 143 l 73 429 q 69 435 70 430 l 69 549 q 73 555 71 553 l 732 833 q 741 827 741 837 l 741 705 m 728 817 l 83 544 l 83 439 l 728 163 l 728 270 l 210 485 q 210 497 195 491 l 728 710 l 728 817 z "},"=":{"ha":811,"x_min":71,"x_max":741,"o":"m 71 699 q 77 705 71 705 l 734 705 q 741 699 741 705 l 741 585 q 734 578 741 578 l 77 578 q 71 585 71 578 l 71 699 m 84 591 l 727 591 l 727 692 l 84 692 l 84 591 m 77 276 q 71 283 71 276 l 71 397 q 77 404 71 404 l 734 404 q 741 397 741 404 l 741 283 q 734 276 741 276 l 77 276 m 727 290 l 727 390 l 84 390 l 84 290 l 727 290 z "},">":{"ha":811,"x_min":69,"x_max":741,"o":"m 737 555 q 741 549 741 553 l 741 435 q 737 429 740 430 l 140 174 q 73 146 77 146 q 69 153 69 146 l 69 275 q 73 281 69 279 l 580 491 l 326 595 q 73 699 273 617 q 69 705 69 701 l 69 827 q 79 833 69 837 l 737 555 m 83 817 l 83 710 l 600 497 q 600 485 615 491 l 83 270 l 83 163 l 728 439 l 728 544 l 83 817 z "},"?":{"ha":772,"x_min":55,"x_max":709,"o":"m 678 617 q 663 589 678 617 q 557 481 647 561 q 503 431 515 444 q 461 370 473 400 q 444 245 446 331 q 437 238 444 238 l 320 238 q 313 245 313 238 l 313 281 q 314 315 313 296 q 371 475 321 409 q 492 594 389 498 q 552 662 537 635 q 570 732 570 708 q 514 856 570 806 q 385 904 460 904 q 193 708 224 904 q 186 703 193 702 l 121 710 q 68 715 104 711 q 55 727 55 716 q 59 755 55 732 q 75 818 65 789 q 383 1018 147 1018 q 608 947 516 1018 q 709 740 709 869 q 678 617 709 673 m 327 252 l 431 252 q 469 412 433 364 l 597 537 q 696 740 696 635 q 599 937 696 864 q 383 1004 511 1004 q 88 813 157 1004 q 68 730 75 775 l 181 717 q 385 918 215 918 q 524 865 465 918 q 584 732 584 811 q 564 656 584 696 l 564 656 q 484 566 547 621 q 393 481 408 498 q 326 281 328 403 q 327 252 326 275 m 458 0 q 452 -7 458 -7 l 313 -7 q 306 0 306 -7 l 306 139 q 313 146 306 146 l 452 146 q 458 139 458 146 l 458 0 m 319 7 l 445 7 l 445 132 l 319 132 l 319 7 z "},"@":{"ha":1410,"x_min":68,"x_max":1371,"o":"m 887 628 l 907 717 q 913 722 908 722 l 1035 722 q 1042 712 1042 722 q 1027 647 1042 717 l 933 207 q 924 155 924 162 q 964 117 924 117 q 1055 157 998 117 q 1176 302 1132 212 q 1219 486 1219 389 q 1074 795 1219 677 q 741 907 937 907 q 456 835 583 907 q 254 623 325 760 q 182 329 182 486 q 459 -128 182 -12 q 760 -185 595 -185 q 1232 17 1089 -185 q 1237 20 1234 19 l 1360 20 q 1366 10 1371 20 q 1246 -138 1330 -64 q 762 -299 1062 -299 q 268 -148 453 -299 q 68 318 68 16 q 146 659 68 498 q 374 920 229 827 q 747 1019 529 1019 q 1267 742 1110 1019 q 1333 484 1333 624 q 1193 130 1333 285 q 918 -9 1067 -9 q 794 49 825 -9 q 783 95 787 63 q 579 -9 686 -9 q 391 92 463 -9 q 327 302 327 182 l 327 313 q 383 522 327 412 q 505 674 431 616 q 686 742 590 742 q 887 628 810 742 m 1240 6 q 760 -199 1095 -199 q 467 -146 595 -199 q 242 39 317 -85 q 169 329 169 161 q 239 625 169 490 q 448 845 314 769 q 741 920 582 920 q 1083 806 943 920 q 1233 486 1233 683 q 1188 296 1233 386 q 1063 146 1143 203 q 964 104 1002 104 q 926 119 943 104 q 910 155 910 134 q 930 262 910 168 l 1027 709 l 919 709 l 897 611 q 884 607 893 593 q 686 728 810 728 q 515 664 596 728 q 397 520 444 608 q 341 323 348 427 l 340 313 q 340 292 340 302 q 375 144 340 217 q 579 5 443 5 q 782 115 686 5 q 788 119 785 119 q 797 94 793 119 q 806 56 801 66 q 918 4 833 4 q 1183 139 1061 4 q 1320 484 1320 290 q 1246 750 1320 627 q 1046 938 1173 872 q 747 1006 915 1006 q 149 631 319 1006 q 82 318 82 482 q 184 -36 82 111 q 486 -247 290 -187 q 762 -286 613 -286 q 1236 -127 1056 -286 q 1349 6 1314 -58 l 1240 6 m 784 595 q 694 627 746 627 q 524 507 593 627 q 466 294 466 404 q 498 169 466 222 q 604 105 536 105 q 760 193 684 105 q 845 440 845 293 q 784 595 845 544 m 859 440 q 815 254 859 342 q 688 115 768 159 q 604 92 644 92 q 505 137 547 92 q 457 238 468 178 q 452 294 452 265 q 515 517 452 410 q 694 641 587 641 q 793 606 750 641 q 859 440 859 551 z "},"A":{"ha":926,"x_min":-8,"x_max":939,"o":"m 779 -7 q 772 -3 774 -7 l 658 294 l 252 294 l 144 -2 q 138 -7 142 -7 l -2 -7 q -8 -1 -8 -7 q 8 45 -8 2 l 374 997 q 380 1001 375 1001 l 521 1001 q 595 833 524 999 q 768 419 648 709 l 935 3 q 928 -7 939 -7 l 779 -7 m 521 987 l 385 987 l 8 7 l 133 7 l 241 303 q 247 308 243 308 l 663 308 q 669 304 667 308 l 783 7 l 918 7 l 819 250 q 521 987 519 983 m 507 692 q 449 862 474 780 q 378 633 428 766 q 294 415 361 589 l 622 415 l 616 406 l 507 692 m 627 412 q 622 401 631 401 l 285 401 q 279 411 275 401 l 368 646 q 441 891 419 782 q 448 898 442 897 q 454 892 452 898 q 520 697 478 810 l 524 686 l 627 412 z "},"B":{"ha":926,"x_min":95,"x_max":859,"o":"m 829 155 q 643 10 774 43 q 481 -7 576 -7 l 102 -7 q 95 0 95 -7 l 95 994 q 102 1001 95 1001 l 475 1001 q 771 875 692 1001 q 811 740 811 810 q 683 530 811 602 q 859 288 859 470 q 829 155 859 217 m 846 288 q 663 522 846 469 q 663 535 646 527 q 798 740 798 602 q 758 870 798 810 q 654 958 719 929 q 475 987 587 987 l 109 987 l 109 7 l 481 7 q 846 288 846 7 m 240 870 l 240 583 l 448 583 q 644 642 600 583 q 668 724 668 675 q 581 857 668 829 q 432 870 538 870 l 240 870 m 432 884 q 585 869 541 884 q 682 724 682 839 q 576 581 682 613 q 448 570 537 570 l 233 570 q 227 576 227 570 l 227 877 q 233 884 227 884 l 432 884 m 240 452 l 240 124 l 481 124 q 600 136 560 124 q 709 288 709 168 q 606 436 709 402 q 463 452 557 452 l 240 452 m 233 466 l 463 466 q 608 450 559 466 q 723 288 723 412 q 650 144 723 189 q 481 111 596 111 l 233 111 q 227 117 227 111 l 227 459 q 233 466 227 466 z "},"C":{"ha":1003,"x_min":62,"x_max":955,"o":"m 938 724 q 932 715 940 717 l 803 684 q 795 689 797 683 q 536 892 730 892 q 242 694 309 892 q 212 505 212 604 q 360 149 212 237 q 526 102 437 102 q 810 350 756 102 q 820 355 811 355 q 873 341 825 353 q 952 321 901 339 q 955 315 955 319 q 954 310 954 313 l 952 304 q 803 62 919 154 q 536 -24 695 -24 q 115 235 225 -24 q 62 505 62 360 l 62 505 q 149 824 62 694 q 420 1005 243 964 q 538 1018 476 1018 q 792 942 688 1018 q 938 724 896 866 m 940 311 l 822 340 q 721 158 794 223 q 526 89 644 89 q 349 139 426 89 q 235 281 271 190 q 198 505 198 377 q 347 854 198 758 q 536 905 426 905 q 806 699 738 905 l 922 726 q 781 934 882 861 q 538 1004 681 1004 q 302 946 408 1004 q 134 772 192 885 q 76 505 76 659 l 76 505 q 123 253 76 368 q 279 54 176 121 q 536 -10 378 -10 q 796 73 690 -10 q 939 308 901 157 l 940 311 z "},"D":{"ha":1003,"x_min":100,"x_max":936,"o":"m 628 987 q 923 646 868 931 q 936 503 936 579 q 748 61 936 186 q 466 -7 646 -7 l 107 -7 q 100 0 100 -7 l 100 994 q 107 1001 100 1001 l 450 1001 q 628 987 566 1001 m 114 987 l 114 7 l 466 7 q 722 62 625 7 q 883 264 831 123 q 922 503 922 370 q 857 795 922 673 q 625 973 779 938 q 450 987 564 987 l 114 987 m 245 870 l 245 124 l 451 124 q 642 158 578 124 q 787 505 787 234 q 613 850 787 787 q 448 870 559 870 l 245 870 m 448 884 q 618 863 562 884 q 800 505 800 795 q 699 182 800 283 q 451 111 627 111 l 239 111 q 232 117 232 111 l 232 877 q 239 884 232 884 l 448 884 z "},"E":{"ha":926,"x_min":103,"x_max":859,"o":"m 248 449 l 248 124 l 852 124 q 859 117 859 124 l 859 0 q 852 -7 859 -7 l 110 -7 q 103 0 103 -7 l 103 994 q 110 1001 103 1001 l 829 1001 q 836 994 836 1001 l 836 877 q 829 870 836 870 l 248 870 l 248 579 l 791 579 q 798 572 798 579 l 798 456 q 791 449 798 449 l 248 449 m 822 987 l 117 987 l 117 7 l 845 7 l 845 111 l 241 111 q 235 117 235 111 l 235 456 q 241 463 235 463 l 785 463 l 785 566 l 241 566 q 235 572 235 566 l 235 877 q 241 884 235 884 l 822 884 l 822 987 z "},"F":{"ha":848,"x_min":107,"x_max":791,"o":"m 252 870 l 252 576 l 712 576 q 719 569 719 576 l 719 452 q 712 445 719 445 l 252 445 l 252 0 q 245 -7 252 -7 l 114 -7 q 107 0 107 -7 l 107 994 q 114 1001 107 1001 l 785 1001 q 791 994 791 1001 l 791 877 q 785 870 791 870 l 252 870 m 778 884 l 778 987 l 121 987 l 121 7 l 239 7 l 239 452 q 245 458 239 458 l 705 458 l 705 562 l 245 562 q 239 569 239 562 l 239 877 q 245 884 239 884 l 778 884 z "},"G":{"ha":1080,"x_min":67,"x_max":1000,"o":"m 858 383 l 572 383 q 566 390 566 383 l 566 507 q 572 513 566 513 l 994 514 q 1000 507 1000 514 l 1000 138 q 981 121 1000 135 l 963 107 q 582 -24 786 -24 q 316 33 433 -24 q 129 224 184 98 l 129 225 q 67 492 67 446 q 122 762 67 642 q 306 956 186 902 l 307 956 q 572 1018 525 1018 q 909 883 802 1018 q 933 843 915 873 q 985 718 969 782 q 965 705 987 711 l 862 677 q 853 682 855 675 q 800 798 831 757 q 572 892 702 892 q 223 591 273 892 q 216 500 216 549 q 391 151 216 238 q 574 109 477 109 q 724 136 646 109 q 858 208 806 163 l 858 383 m 987 142 l 987 500 l 579 500 l 579 397 l 865 397 q 871 390 871 397 l 871 205 q 744 128 871 180 q 574 95 661 95 q 380 142 466 95 q 243 287 288 193 q 203 500 203 374 q 294 792 203 685 q 572 905 391 905 q 809 808 711 905 l 810 807 q 865 692 838 779 l 918 707 l 970 721 q 898 875 951 792 q 572 1004 795 1004 q 312 944 475 1004 q 136 751 197 882 q 81 492 81 634 q 141 230 81 397 q 326 47 203 111 q 582 -10 439 -10 q 956 118 787 -10 l 987 142 z "},"H":{"ha":1003,"x_min":104,"x_max":898,"o":"m 104 994 q 111 1001 104 1001 l 243 1001 q 250 994 250 1001 l 250 593 l 753 593 l 753 994 q 760 1001 753 1001 l 891 1001 q 898 994 898 1001 l 898 0 q 891 -7 898 -7 l 760 -7 q 753 0 753 -7 l 753 462 l 250 462 l 250 0 q 243 -7 250 -7 l 111 -7 q 104 0 104 -7 l 104 994 m 118 987 l 118 7 l 236 7 l 236 469 q 243 475 236 475 l 760 475 q 766 469 766 475 l 766 7 l 884 7 l 884 987 l 766 987 l 766 586 q 760 579 766 579 l 243 579 q 236 586 236 579 l 236 987 l 118 987 z "},"I":{"ha":386,"x_min":123,"x_max":268,"o":"m 261 1001 q 268 994 268 1001 l 268 0 q 261 -7 268 -7 l 130 -7 q 123 0 123 -7 l 123 994 q 130 1001 123 1001 l 261 1001 m 254 987 l 130 987 l 136 994 l 136 7 l 254 7 l 254 987 z "},"J":{"ha":694,"x_min":31,"x_max":593,"o":"m 593 317 q 563 121 593 178 l 562 120 q 530 76 548 98 q 307 -24 453 -24 q 102 54 173 -24 q 88 72 101 54 q 33 282 31 150 q 60 294 33 291 q 89 296 73 295 l 158 305 q 165 298 165 306 q 206 148 170 188 q 307 107 242 107 q 385 127 349 107 q 435 186 424 149 q 439 199 436 190 q 448 309 448 235 l 448 994 q 455 1001 448 1001 l 587 1001 q 593 994 593 1001 l 593 317 m 580 987 l 462 987 l 462 309 q 453 201 462 235 q 392 115 438 142 q 307 94 355 94 q 165 201 192 94 l 163 210 q 153 291 155 242 l 47 276 q 99 80 45 153 q 112 63 110 65 q 307 -10 179 -10 q 458 25 393 -10 q 551 127 498 47 q 580 317 580 194 l 580 987 z "},"K":{"ha":926,"x_min":95,"x_max":937,"o":"m 750 -7 q 745 -4 746 -6 l 395 493 l 240 342 l 240 0 q 233 -7 240 -7 l 102 -7 q 95 0 95 -7 l 95 994 q 102 1001 95 1001 l 233 1001 q 240 994 240 1001 l 240 517 l 722 999 q 727 1001 725 1001 l 905 1001 q 910 989 922 1001 l 497 591 l 929 4 q 924 -7 937 -7 l 750 -7 m 910 7 l 483 587 q 484 596 479 592 l 888 987 l 730 987 l 238 496 q 227 501 227 485 l 227 987 l 109 987 l 109 7 l 227 7 l 227 345 q 229 349 227 348 l 391 508 q 401 507 397 513 l 753 7 l 910 7 z "},"L":{"ha":772,"x_min":95,"x_max":730,"o":"m 102 -7 q 95 0 95 -7 l 95 994 q 102 1001 95 1001 l 233 1001 q 240 994 240 1001 l 240 124 l 723 124 q 730 117 730 124 l 730 0 q 723 -7 730 -7 l 102 -7 m 716 7 l 716 111 l 233 111 q 227 117 227 111 l 227 987 l 109 987 l 109 7 l 716 7 z "},"M":{"ha":1157,"x_min":96,"x_max":1059,"o":"m 584 165 q 739 618 596 204 l 869 996 q 875 1001 870 1001 l 1052 1001 q 1059 994 1059 1001 l 1059 0 q 1052 -7 1059 -7 l 925 -7 q 918 0 918 -7 l 918 792 l 642 -2 q 636 -7 641 -7 l 517 -7 q 511 -2 513 -7 l 237 805 l 237 0 q 230 -7 237 -7 l 103 -7 q 96 0 96 -7 l 96 994 q 103 1001 96 1001 l 301 1001 q 307 996 306 1001 l 584 165 m 880 987 l 635 278 q 591 141 612 208 q 584 135 589 135 q 577 141 579 135 l 559 199 q 455 512 558 204 l 296 987 l 110 987 l 110 7 l 223 7 l 223 846 q 229 854 223 853 q 236 848 234 855 l 522 7 l 631 7 l 919 834 q 926 840 921 841 q 932 832 932 839 l 932 7 l 1045 7 l 1045 987 l 880 987 z "},"N":{"ha":1003,"x_min":99,"x_max":896,"o":"m 239 759 l 239 0 q 232 -7 239 -7 l 106 -7 q 99 0 99 -7 l 99 994 q 106 1001 99 1001 l 241 1001 q 246 998 245 1000 l 756 236 l 756 994 q 763 1001 756 1001 l 889 1001 q 896 994 896 1001 l 896 0 q 889 -7 896 -7 l 754 -7 q 749 -4 750 -6 l 239 759 m 113 987 l 113 7 l 225 7 l 225 781 q 230 789 225 787 q 237 785 234 790 l 758 7 l 882 7 l 882 987 l 770 987 l 770 214 q 765 206 770 208 q 758 210 761 205 l 237 987 l 113 987 z "},"O":{"ha":1080,"x_min":60,"x_max":1025,"o":"m 795 952 q 1025 496 1025 815 q 968 233 1025 350 q 787 39 906 104 q 543 -24 673 -24 q 191 123 327 -24 q 60 484 60 267 l 60 486 q 184 864 60 719 q 543 1019 315 1019 q 795 952 683 1019 m 788 940 q 543 1005 678 1005 q 256 914 376 1005 q 95 663 136 823 q 74 486 74 581 l 74 484 q 201 133 74 272 q 543 -10 332 -10 q 782 51 675 -10 q 952 230 893 115 q 1011 496 1011 346 q 788 940 1011 808 m 309 798 q 222 661 240 733 q 210 482 210 612 q 294 216 210 321 q 542 102 385 102 q 795 221 705 102 q 876 496 876 328 q 718 843 876 743 q 545 892 640 892 l 544 892 q 309 798 407 892 m 299 808 q 425 893 370 875 q 544 905 460 905 l 545 905 q 726 854 646 905 q 848 711 806 803 q 889 496 889 619 q 804 211 889 321 q 542 89 711 89 q 337 155 425 89 q 216 333 250 220 q 196 482 196 400 q 299 808 196 709 z "},"P":{"ha":926,"x_min":100,"x_max":873,"o":"m 790 488 q 664 409 733 425 q 494 397 618 397 l 245 397 l 245 0 q 239 -7 245 -7 l 107 -7 q 100 0 100 -7 l 100 994 q 107 1001 100 1001 l 482 1001 q 690 978 619 1001 q 842 845 793 944 q 873 707 873 781 q 790 488 873 577 m 781 497 q 850 603 835 555 q 859 707 859 634 q 752 932 859 858 q 482 987 673 987 l 114 987 l 114 7 l 232 7 l 232 404 q 239 411 232 411 l 494 411 q 781 497 702 411 m 614 861 q 493 870 582 870 l 245 870 l 245 528 l 496 528 q 724 703 724 528 q 696 802 724 760 q 614 861 667 847 m 737 703 q 496 515 737 515 l 239 515 q 232 522 232 515 l 232 877 q 239 884 232 884 l 493 884 q 610 876 578 884 q 705 813 671 862 q 737 703 737 767 z "},"Q":{"ha":1080,"x_min":53,"x_max":1038,"o":"m 1021 -25 q 1009 -58 1017 -36 q 989 -83 998 -87 q 787 29 894 -50 l 777 37 q 533 -24 666 -24 q 286 41 396 -24 q 113 228 174 107 q 53 497 53 348 l 53 498 q 180 868 53 725 q 536 1019 313 1019 q 784 955 674 1019 q 958 768 898 888 q 1017 498 1017 647 q 871 107 1017 253 q 1021 25 947 56 q 1036 12 1038 18 l 1021 -25 m 1021 10 l 1016 12 q 857 101 936 47 q 856 111 850 106 q 1004 498 1004 253 q 951 751 1004 639 q 781 941 894 873 q 536 1005 671 1005 q 189 859 318 1005 q 66 498 66 719 l 66 497 q 120 244 66 357 q 292 54 178 121 q 533 -10 400 -10 q 774 51 665 -10 q 795 40 777 53 q 987 -68 895 -34 l 1021 10 m 654 123 l 644 130 q 538 172 597 158 q 532 180 532 174 q 545 216 532 180 l 564 273 q 573 281 567 283 q 759 189 684 250 q 868 487 865 290 q 710 843 871 741 q 525 892 629 895 q 276 768 367 888 q 202 497 202 671 q 359 151 202 251 q 536 102 435 102 q 654 123 597 102 m 575 267 l 548 184 q 673 127 614 166 q 677 122 677 125 q 662 112 677 117 q 536 89 600 89 q 342 146 427 89 q 219 305 257 203 q 189 497 189 387 q 388 875 189 783 q 525 905 451 904 q 770 814 673 908 q 882 487 884 702 q 764 175 879 280 q 755 174 759 171 q 575 267 684 235 z "},"R":{"ha":1003,"x_min":102,"x_max":998,"o":"m 820 -7 q 814 -3 816 -6 l 683 203 q 610 310 646 262 q 523 405 556 384 q 465 430 494 423 q 393 435 426 435 l 248 435 l 248 0 q 241 -7 248 -7 l 109 -7 q 102 0 102 -7 l 102 994 q 109 1001 102 1001 l 550 1001 q 731 982 669 1001 q 871 873 823 954 q 911 723 911 805 q 646 449 911 494 q 818 274 736 401 l 991 3 q 985 -7 998 -7 l 820 -7 m 973 7 l 807 267 q 699 398 758 344 q 621 446 673 421 q 616 454 615 449 q 623 459 616 458 q 897 723 897 496 q 860 865 897 800 q 750 961 819 935 q 550 987 682 987 l 116 987 l 116 7 l 234 7 l 234 441 q 241 448 234 448 l 393 448 q 467 444 425 448 l 468 444 q 599 348 532 432 q 694 210 637 299 l 823 7 l 973 7 m 524 562 q 736 637 688 562 q 762 723 762 676 q 555 878 762 878 l 248 878 l 248 562 l 524 562 m 524 549 l 241 549 q 234 555 234 549 l 234 884 q 241 891 234 891 l 555 891 q 775 723 775 891 q 667 568 775 608 q 524 549 615 549 z "},"S":{"ha":926,"x_min":56,"x_max":861,"o":"m 814 127 q 486 -24 716 -24 q 111 137 217 -24 q 56 319 58 218 q 85 328 56 326 l 186 337 q 193 331 193 338 q 330 137 210 189 q 480 108 397 108 q 637 142 572 108 q 720 270 720 186 q 608 404 720 361 q 432 452 565 420 q 252 509 308 482 q 94 737 94 583 q 140 887 94 821 q 265 983 186 950 q 450 1018 349 1018 q 781 874 686 1018 q 831 714 827 802 q 793 705 831 708 l 699 698 q 691 704 692 697 q 456 888 671 888 q 250 806 299 888 q 234 746 234 778 q 326 631 234 671 q 483 589 355 618 q 667 538 616 559 q 861 281 861 460 q 814 127 861 200 m 803 135 q 847 281 847 203 q 682 517 847 441 q 480 576 626 543 q 369 605 411 592 q 261 653 287 629 q 220 746 220 690 q 300 871 220 831 q 456 902 362 902 q 704 712 680 902 l 817 720 q 736 907 810 835 q 549 996 666 976 q 450 1004 503 1004 q 149 874 234 1004 q 107 737 107 811 q 245 527 107 600 q 427 467 307 494 q 613 416 566 434 q 734 270 734 370 q 616 117 734 163 q 480 94 556 94 q 222 204 297 94 q 180 323 191 250 l 69 313 q 135 127 74 205 q 298 16 195 49 q 486 -10 378 -10 q 803 135 709 -10 z "},"T":{"ha":848,"x_min":26,"x_max":827,"o":"m 498 870 l 498 0 q 492 -7 498 -7 l 360 -7 q 353 0 353 -7 l 353 870 l 33 870 q 26 877 26 870 l 26 994 q 33 1001 26 1001 l 821 1001 q 827 994 827 1001 l 827 877 q 821 870 827 870 l 498 870 m 39 884 l 360 884 q 367 877 367 884 l 367 7 l 485 7 l 485 877 q 492 884 485 884 l 814 884 l 814 987 l 39 987 l 39 884 z "},"U":{"ha":1003,"x_min":102,"x_max":898,"o":"m 898 411 q 849 148 898 239 q 503 -24 758 -24 q 141 168 221 -24 q 102 420 102 261 l 102 994 q 109 1001 102 1001 l 241 1001 q 248 994 248 1001 l 248 420 q 271 233 248 293 q 351 141 315 161 q 491 109 408 109 q 692 172 633 109 q 753 420 753 255 l 753 994 q 760 1001 753 1001 l 891 1001 q 898 994 898 1001 l 898 411 m 766 987 l 766 420 q 703 163 766 251 q 491 95 639 95 q 259 226 324 95 l 258 227 q 234 420 234 276 l 234 987 l 116 987 l 116 420 q 165 149 116 243 q 503 -10 250 -10 q 837 154 749 -10 q 884 412 884 243 l 884 987 l 766 987 z "},"V":{"ha":926,"x_min":-3,"x_max":922,"o":"m 898 930 l 532 -3 q 526 -7 531 -7 l 391 -7 q 385 -3 387 -7 l 0 991 q 6 1001 -3 1001 l 149 1001 q 165 970 154 1001 l 413 274 q 459 134 441 195 q 576 460 477 195 l 775 996 q 781 1001 777 1001 l 916 1001 q 922 996 922 1001 q 898 930 922 992 m 905 987 l 786 987 l 519 270 q 466 107 494 202 q 459 101 464 101 q 452 107 454 101 q 326 477 430 188 l 144 987 l 16 987 l 396 7 l 522 7 l 905 987 z "},"W":{"ha":1311,"x_min":8,"x_max":1302,"o":"m 958 177 q 1010 399 978 266 l 1156 996 q 1163 1001 1158 1001 l 1295 1001 q 1302 991 1302 1001 q 1280 911 1300 986 l 1029 -2 q 1023 -7 1028 -7 l 896 -7 q 889 -2 890 -7 l 652 833 q 637 774 648 813 l 633 755 l 422 -2 q 415 -7 420 -7 l 281 -7 q 264 35 275 -7 l 10 992 q 17 1001 8 1001 l 152 1001 q 159 996 157 1001 l 310 344 q 346 172 330 259 l 383 325 l 572 996 q 579 1001 574 1001 l 738 1001 q 745 996 743 1001 l 892 473 q 958 177 936 314 m 1168 987 l 1014 354 q 964 138 980 216 q 958 131 963 131 q 951 138 951 132 q 884 452 931 273 q 796 762 880 465 l 732 987 l 585 987 l 397 321 q 352 138 389 294 q 345 131 351 131 q 338 138 340 132 q 296 341 321 232 l 146 987 l 26 987 l 286 7 l 410 7 l 625 778 q 648 876 635 817 q 655 882 650 882 q 662 876 661 882 q 693 760 665 859 l 901 7 l 1017 7 l 1286 987 l 1168 987 z "},"X":{"ha":926,"x_min":-7,"x_max":930,"o":"m 549 526 l 923 4 q 918 -7 930 -7 l 755 -7 q 749 -4 751 -6 l 499 351 q 471 393 494 358 l 461 408 q 336 228 434 363 l 170 -4 q 164 -7 167 -6 l 6 -7 q 1 4 -7 -7 l 382 518 l 46 990 q 52 1001 39 1001 l 208 1001 q 214 998 212 1000 l 394 743 q 455 654 429 694 q 469 631 460 646 q 627 847 498 676 l 742 998 q 747 1001 745 1000 l 890 1001 q 896 990 904 1001 l 549 526 m 64 987 l 396 522 q 396 514 399 518 l 20 7 l 161 7 l 408 351 q 455 425 417 363 q 467 425 460 434 q 628 191 492 383 l 758 7 l 905 7 l 536 522 q 536 530 533 526 l 877 987 l 751 987 l 553 726 q 475 614 505 663 q 463 614 469 604 q 383 735 437 660 l 205 987 l 64 987 z "},"Y":{"ha":926,"x_min":-9,"x_max":922,"o":"m 461 540 q 722 946 521 642 l 757 998 q 762 1001 760 1000 l 916 1001 q 922 996 922 1001 q 911 976 922 993 l 526 419 l 526 0 q 519 -7 526 -7 l 387 -7 q 380 0 380 -7 l 380 419 l -1 990 q 4 1001 -9 1001 l 164 1001 q 190 967 168 1001 l 330 755 q 461 540 404 642 m 903 987 l 766 987 l 734 939 q 467 523 659 824 q 455 523 461 513 q 206 918 406 610 l 161 987 l 17 987 l 393 425 q 394 421 394 422 l 394 7 l 512 7 l 512 421 q 513 425 513 424 l 903 987 z "},"Z":{"ha":848,"x_min":21,"x_max":821,"o":"m 532 763 q 625 870 581 824 l 85 870 q 79 877 79 870 l 79 994 q 85 1001 79 1001 l 798 1001 q 804 994 804 1001 l 804 877 q 803 873 804 874 l 194 124 l 814 124 q 821 117 821 124 l 821 0 q 814 -7 821 -7 l 28 -7 q 21 0 21 -7 l 21 122 q 22 126 22 125 l 532 763 m 35 119 l 35 7 l 807 7 l 807 111 l 179 111 q 174 122 163 111 l 221 176 q 234 191 224 180 l 791 880 l 791 987 l 92 987 l 92 884 l 640 884 q 645 872 656 884 q 451 640 598 825 l 35 119 z "},"[":{"ha":386,"x_min":87,"x_max":370,"o":"m 94 -283 q 87 -276 87 -283 l 87 994 q 94 1001 87 1001 l 363 1001 q 370 994 370 1001 l 370 893 q 363 886 370 886 l 223 886 l 223 -168 l 363 -168 q 370 -175 370 -168 l 370 -276 q 363 -283 370 -283 l 94 -283 m 357 -269 l 357 -182 l 216 -182 q 210 -175 210 -182 l 210 893 q 216 900 210 900 l 357 900 l 357 987 l 101 987 l 101 -269 l 357 -269 z "},"\\":{"ha":386,"x_min":-9,"x_max":395,"o":"m 288 -24 q 281 -19 283 -24 l -7 1009 q 0 1018 -9 1018 l 98 1018 q 117 970 109 1018 l 393 -15 q 386 -24 395 -24 l 288 -24 m 377 -10 l 93 1004 l 9 1004 l 294 -10 l 377 -10 z "},"]":{"ha":386,"x_min":20,"x_max":302,"o":"m 26 -283 q 20 -276 20 -283 l 20 -175 q 26 -168 20 -168 l 167 -168 l 167 886 l 26 886 q 20 893 20 886 l 20 994 q 26 1001 20 1001 l 296 1001 q 302 994 302 1001 l 302 -276 q 296 -283 302 -283 l 26 -283 m 289 -269 l 289 987 l 33 987 l 33 900 l 174 900 q 180 893 180 900 l 180 -175 q 174 -182 180 -182 l 33 -182 l 33 -269 l 289 -269 z "},"^":{"ha":652,"x_min":30,"x_max":625,"o":"m 492 461 q 486 465 488 461 l 325 855 l 168 465 q 162 461 167 461 l 37 461 q 30 467 30 461 q 71 563 35 481 l 270 1014 q 276 1018 271 1017 l 374 1018 q 621 471 380 1014 q 615 461 625 461 l 492 461 m 605 475 l 582 526 l 374 1004 l 281 1004 l 47 475 l 157 475 l 251 708 q 319 876 260 729 q 331 876 325 890 l 497 475 l 605 475 z "},"_":{"ha":772,"x_min":-28,"x_max":795,"o":"m -21 -283 q -28 -276 -28 -283 l -28 -188 q -21 -181 -28 -181 l 788 -181 q 795 -188 795 -181 l 795 -276 q 788 -283 795 -283 l -21 -283 m 781 -269 l 781 -195 l -14 -195 l -14 -269 l 781 -269 z "},"`":{"ha":463,"x_min":53,"x_max":326,"o":"m 217 803 q 212 806 214 804 l 71 976 q 53 1002 53 998 q 60 1006 53 1006 l 224 1006 q 230 1002 229 1005 l 321 812 q 315 803 326 803 l 217 803 m 304 817 l 220 993 l 75 993 l 220 817 l 304 817 z "},"a":{"ha":772,"x_min":43,"x_max":725,"o":"m 586 -7 q 556 76 568 -7 q 296 -23 436 -23 q 66 91 127 -23 q 43 190 43 134 q 134 362 43 301 q 166 380 142 367 q 333 422 223 409 q 545 462 476 439 q 545 489 545 483 q 513 589 545 560 q 378 629 469 629 q 259 602 298 629 q 197 497 216 572 q 190 492 196 491 l 110 503 q 64 516 63 509 q 231 718 97 669 q 396 743 302 743 q 549 721 463 736 q 663 620 635 688 q 682 465 682 574 l 682 149 q 720 3 688 60 q 713 -7 725 -7 l 586 -7 m 702 7 q 676 85 684 44 q 668 302 668 132 l 668 465 q 652 612 668 570 q 543 709 627 677 q 396 730 493 728 q 130 634 209 734 q 79 520 96 590 l 186 506 q 253 614 207 584 q 378 642 295 642 q 559 489 559 642 q 553 451 559 452 q 334 408 483 426 q 233 393 256 399 q 141 351 190 381 q 57 190 57 300 q 203 2 57 42 q 296 -9 245 -9 q 557 94 435 -9 q 568 90 567 102 q 590 7 573 43 l 702 7 m 545 351 q 353 309 477 326 q 271 293 293 300 q 187 193 187 267 q 231 111 187 138 q 326 86 268 86 q 526 197 472 86 q 545 317 545 237 l 545 351 m 549 368 q 558 361 558 372 l 558 317 q 454 104 558 163 q 326 73 398 73 q 221 100 262 73 q 174 193 174 133 q 243 297 174 267 q 351 322 276 311 q 549 368 484 341 z "},"b":{"ha":772,"x_min":84,"x_max":722,"o":"m 211 69 l 211 0 q 204 -7 211 -7 l 91 -7 q 84 0 84 -7 l 84 994 q 91 1001 84 1001 l 213 1001 q 220 994 220 1001 l 220 658 q 410 743 296 743 q 594 683 517 743 q 701 519 669 624 q 722 371 722 448 q 646 101 722 210 q 404 -23 558 -23 q 211 69 283 -23 m 709 371 q 669 564 709 479 q 533 703 623 663 q 410 730 475 730 q 218 635 294 730 q 210 632 214 631 q 206 640 206 633 l 206 987 l 98 987 l 98 7 l 197 7 l 197 90 q 203 98 197 99 q 212 91 208 96 q 404 -9 281 -9 q 592 62 513 -9 q 694 237 668 130 q 709 371 709 296 m 267 562 q 216 471 227 515 q 210 366 210 441 l 210 364 q 290 127 210 194 q 394 91 334 91 q 462 106 431 91 q 584 361 584 163 q 498 595 584 528 q 399 629 454 629 q 267 562 323 629 m 399 643 q 556 549 504 643 q 597 361 597 474 q 467 94 597 155 q 394 77 433 77 q 232 175 292 77 q 196 364 196 234 l 196 366 q 309 618 196 549 q 399 643 351 643 z "},"c":{"ha":694,"x_min":47,"x_max":690,"o":"m 382 -23 q 179 39 263 -23 q 64 215 96 102 q 47 357 47 277 l 47 359 q 208 699 47 610 q 382 743 288 743 q 577 684 500 743 q 677 510 654 624 q 650 498 679 500 l 553 484 q 545 489 546 483 q 395 629 512 629 l 377 629 q 243 566 277 604 q 186 361 186 500 q 285 116 186 176 q 380 91 326 91 q 555 264 530 91 q 570 271 555 271 q 619 263 549 271 q 659 260 632 262 q 688 247 690 258 q 589 50 669 123 q 382 -23 507 -23 m 673 242 l 567 256 q 380 77 539 77 q 173 361 173 77 q 232 574 173 507 q 374 642 270 618 l 376 643 l 387 643 q 557 498 519 643 l 662 514 q 382 730 616 730 q 214 687 288 730 q 99 559 136 642 q 61 359 61 473 l 61 357 q 235 21 61 104 q 382 -9 299 -9 q 577 59 499 -9 q 673 242 654 125 z "},"d":{"ha":772,"x_min":41,"x_max":679,"o":"m 544 657 l 544 994 q 551 1001 544 1001 l 672 1001 q 679 994 679 1001 l 679 0 q 672 -7 679 -7 l 559 -7 q 552 0 552 -7 l 552 69 q 357 -23 482 -23 q 151 61 236 -23 q 49 262 71 139 q 41 359 41 307 q 188 695 41 599 q 352 743 262 743 q 544 657 470 743 m 665 987 l 557 987 l 557 637 q 553 630 557 631 q 545 633 549 629 q 352 730 475 730 q 193 683 262 730 q 90 553 123 636 q 54 359 54 467 q 104 146 54 237 q 267 5 159 42 q 357 -9 310 -9 q 553 94 487 -9 q 561 98 557 100 q 566 91 566 97 l 566 7 l 665 7 l 665 987 m 363 629 q 208 522 255 629 q 180 359 180 460 q 262 131 180 201 q 369 91 309 91 q 485 137 437 91 q 544 248 528 178 q 554 338 553 290 q 484 578 556 504 q 363 629 435 629 m 568 338 q 522 161 566 232 q 369 77 469 77 q 249 124 301 77 q 181 235 201 167 q 166 359 166 288 q 206 549 166 475 q 363 642 257 642 q 484 597 433 642 q 568 338 571 521 z "},"e":{"ha":772,"x_min":44,"x_max":722,"o":"m 44 357 q 130 630 44 525 q 387 743 222 743 q 593 676 509 743 q 707 490 678 608 q 722 361 722 432 q 721 329 722 357 q 714 322 721 322 l 184 322 q 300 113 195 168 q 395 91 342 91 q 578 234 527 91 q 585 239 580 239 l 648 231 q 711 223 659 229 q 718 214 720 222 q 394 -23 653 -23 q 132 82 224 -23 q 44 354 44 182 l 44 357 m 58 357 l 58 354 q 142 92 58 189 q 394 -9 231 -9 q 702 211 638 -9 l 589 224 q 395 77 534 77 q 231 153 291 77 q 170 328 176 220 q 177 336 170 336 l 707 336 q 708 361 708 353 q 629 621 708 522 q 387 730 543 730 q 140 621 228 730 q 58 357 58 519 m 191 436 l 578 436 q 524 573 569 522 q 391 629 473 629 l 389 629 q 251 574 305 629 q 191 436 199 521 m 389 643 l 391 643 q 545 570 484 643 q 593 430 585 523 q 586 422 593 422 l 184 422 q 177 430 176 422 q 239 582 183 523 q 389 643 297 643 z "},"f":{"ha":386,"x_min":6,"x_max":441,"o":"m 114 727 l 114 797 q 126 904 114 868 q 320 1018 165 1018 q 435 1006 373 1018 q 441 993 441 1004 q 431 941 441 1004 q 423 896 429 926 q 413 885 421 885 q 379 889 402 885 q 344 892 355 892 q 322 891 334 892 l 310 890 l 304 888 q 249 787 249 874 l 249 727 l 382 727 q 389 720 389 727 l 389 625 q 382 618 389 618 l 249 618 l 249 0 q 242 -7 249 -7 l 121 -7 q 114 0 114 -7 l 114 618 l 13 618 q 6 625 6 618 l 6 720 q 13 727 6 727 l 114 727 m 376 632 l 376 713 l 242 713 q 235 720 235 713 l 235 787 q 308 903 235 895 l 314 904 l 321 905 q 344 906 334 906 q 410 901 375 906 l 426 994 q 320 1004 368 1004 q 140 903 177 1004 q 127 797 127 869 l 127 720 q 121 713 127 713 l 20 713 l 20 632 l 121 632 q 127 625 127 632 l 127 7 l 235 7 l 235 625 q 242 632 235 632 l 376 632 z "},"g":{"ha":772,"x_min":38,"x_max":686,"o":"m 549 77 q 356 -7 470 -7 q 117 106 205 -7 q 38 364 38 208 q 116 627 38 523 q 357 743 203 743 q 560 652 478 743 l 560 720 q 567 727 560 727 l 680 727 q 686 720 686 727 l 686 98 q 651 -144 686 -71 q 354 -299 576 -299 q 149 -245 225 -299 q 62 -60 60 -183 q 76 -52 62 -52 q 134 -62 66 -52 l 189 -71 q 201 -100 193 -71 q 233 -152 210 -134 q 353 -184 277 -184 q 540 -60 507 -184 q 549 77 549 -27 m 354 -286 q 640 -138 567 -286 q 673 98 673 -70 l 673 713 l 574 713 l 574 633 q 570 626 574 627 q 562 629 566 625 q 357 730 481 730 q 125 618 208 730 q 52 364 52 517 q 127 115 52 214 q 356 7 210 7 q 550 99 471 7 q 558 102 553 103 q 562 94 562 100 q 553 -64 563 -28 q 353 -198 518 -198 q 182 -83 201 -198 l 76 -68 q 162 -237 76 -180 q 354 -286 235 -286 m 366 629 q 218 545 269 629 q 177 373 177 476 q 216 194 177 262 q 368 108 265 108 q 559 369 559 108 q 516 545 559 475 q 366 629 465 629 m 572 369 q 528 182 572 254 q 368 94 475 94 q 206 184 258 94 q 163 373 163 256 q 209 555 163 481 q 366 642 263 642 q 526 554 470 642 q 572 369 572 479 z "},"h":{"ha":772,"x_min":85,"x_max":685,"o":"m 556 -7 q 549 0 549 -7 l 549 456 q 404 625 549 625 q 307 598 352 625 q 240 524 260 570 q 220 394 220 477 l 220 0 q 214 -7 220 -7 l 92 -7 q 85 0 85 -7 l 85 994 q 92 1001 85 1001 l 214 1001 q 220 994 220 1001 l 220 655 q 429 743 305 743 q 659 621 603 743 q 685 456 685 564 l 685 0 q 678 -7 685 -7 l 556 -7 m 98 987 l 98 7 l 207 7 l 207 394 q 298 609 207 555 q 404 638 348 638 q 563 456 563 638 l 563 7 l 671 7 l 671 456 q 654 595 671 546 q 429 730 608 730 q 219 633 303 730 q 211 630 216 629 q 207 637 207 631 l 207 987 l 98 987 z "},"i":{"ha":309,"x_min":85,"x_max":221,"o":"m 92 847 q 85 854 85 847 l 85 994 q 92 1001 85 1001 l 214 1001 q 221 994 221 1001 l 221 854 q 214 847 221 847 l 92 847 m 208 987 l 99 987 l 99 861 l 208 861 l 208 987 m 221 0 q 214 -7 221 -7 l 92 -7 q 85 0 85 -7 l 85 720 q 92 727 85 727 l 214 727 q 221 720 221 727 l 221 0 m 99 713 l 99 7 l 208 7 l 208 713 l 99 713 z "},"j":{"ha":309,"x_min":-75,"x_max":220,"o":"m 91 846 q 84 852 84 846 l 84 994 q 91 1001 84 1001 l 213 1001 q 220 994 220 1001 l 220 852 q 213 846 220 846 l 91 846 m 206 987 l 98 987 l 98 859 l 213 859 l 206 852 l 206 987 m 216 -120 q 32 -299 196 -299 q -71 -278 -75 -299 l -47 -174 q -39 -169 -46 -167 q 17 -178 -1 -178 q 67 -157 54 -175 q 84 -37 84 -133 l 84 720 q 91 727 84 727 l 213 727 q 220 720 220 727 l 220 -39 q 216 -120 220 -83 m 206 713 l 98 713 l 98 -37 q 90 -138 98 -113 q 17 -192 74 -189 q -35 -184 1 -193 l -56 -275 q 32 -286 -14 -286 q 178 -211 138 -286 q 206 -39 206 -157 l 206 713 z "},"k":{"ha":694,"x_min":85,"x_max":702,"o":"m 221 444 l 498 725 q 503 727 501 727 l 661 727 q 666 715 678 727 l 395 452 l 694 4 q 689 -7 702 -7 l 538 -7 q 533 -3 534 -6 l 299 357 l 221 283 l 221 0 q 214 -7 221 -7 l 92 -7 q 85 0 85 -7 l 85 994 q 92 1001 85 1001 l 214 1001 q 221 994 221 1001 l 221 444 m 99 987 l 99 7 l 208 7 l 208 286 q 210 290 208 289 l 245 324 q 301 375 298 375 q 306 372 304 375 l 542 7 l 676 7 l 380 449 q 381 458 377 454 l 644 713 l 506 713 l 234 438 q 212 420 216 420 q 208 427 208 420 l 208 987 l 99 987 z "},"l":{"ha":309,"x_min":82,"x_max":218,"o":"m 218 0 q 211 -7 218 -7 l 89 -7 q 82 0 82 -7 l 82 994 q 89 1001 82 1001 l 211 1001 q 218 994 218 1001 l 218 0 m 204 987 l 96 987 l 96 7 l 204 7 l 204 987 z "},"m":{"ha":1157,"x_min":85,"x_max":1074,"o":"m 625 625 q 845 743 710 743 q 1074 494 1074 743 l 1074 0 q 1067 -7 1074 -7 l 946 -7 q 939 0 939 -7 l 939 454 q 928 556 939 525 q 818 624 888 624 q 648 418 648 624 l 648 0 q 642 -7 648 -7 l 519 -7 q 513 0 513 -7 l 513 468 q 396 625 513 625 q 370 623 385 625 q 231 493 258 608 q 220 374 220 446 l 220 0 q 214 -7 220 -7 l 92 -7 q 85 0 85 -7 l 85 720 q 92 727 85 727 l 201 727 q 208 720 208 727 l 208 640 q 419 743 284 743 q 625 625 574 743 m 1061 7 l 1061 494 q 845 730 1061 730 q 628 606 711 730 q 623 603 626 603 q 607 629 618 607 q 419 730 557 730 q 215 627 290 730 q 198 612 203 610 q 194 619 194 613 l 194 713 l 98 713 l 98 7 l 207 7 l 207 374 q 229 530 207 475 q 343 631 260 610 q 393 637 366 637 q 526 468 526 637 l 526 7 l 635 7 l 635 418 q 739 621 635 574 q 818 637 775 637 q 940 562 905 637 l 941 562 q 953 454 953 535 l 953 7 l 1061 7 z "},"n":{"ha":772,"x_min":85,"x_max":684,"o":"m 208 639 q 431 743 288 743 q 637 656 575 743 q 684 450 684 591 l 684 0 q 677 -7 684 -7 l 555 -7 q 548 0 548 -7 l 548 438 q 540 531 548 502 q 404 624 514 624 q 338 613 369 624 q 241 527 268 589 q 220 393 220 480 l 220 0 q 214 -7 220 -7 l 92 -7 q 85 0 85 -7 l 85 720 q 92 727 85 727 l 201 727 q 208 720 208 727 l 208 639 m 670 7 l 670 450 q 652 601 670 551 q 548 707 625 673 q 431 730 494 730 q 207 614 284 730 q 199 610 203 609 q 195 618 195 612 l 195 713 l 98 713 l 98 7 l 207 7 l 207 393 q 230 534 207 483 q 333 626 260 600 q 403 637 366 637 q 547 552 514 637 q 562 438 562 513 l 562 7 l 670 7 z "},"o":{"ha":772,"x_min":39,"x_max":728,"o":"m 685 148 q 627 65 656 92 q 559 21 608 47 q 384 -23 481 -22 q 129 82 229 -24 q 39 351 39 178 l 39 362 q 153 662 39 564 q 384 743 247 743 q 640 636 546 743 q 728 370 728 535 q 685 148 728 230 m 674 155 q 709 258 701 208 q 714 370 714 290 q 630 627 714 529 q 384 730 541 730 q 162 651 253 730 q 53 362 53 557 l 53 352 q 144 86 53 183 q 391 -9 235 -11 q 555 34 481 -9 q 674 155 633 78 m 378 629 q 237 562 296 629 q 178 360 178 494 q 187 265 178 311 q 254 140 203 187 q 384 91 307 91 q 545 178 492 91 q 589 364 589 250 q 543 544 589 473 q 386 629 488 629 l 378 629 m 377 642 l 386 642 q 524 589 467 642 q 593 456 576 539 q 602 364 602 414 q 554 168 602 244 q 384 77 497 77 q 244 130 301 77 q 174 262 191 179 q 165 360 165 303 q 212 551 164 475 q 377 642 269 642 z "},"p":{"ha":772,"x_min":85,"x_max":724,"o":"m 568 27 q 399 -23 492 -24 q 323 -11 352 -22 l 317 -8 l 311 -6 l 304 -3 l 298 -1 l 294 2 q 220 56 244 30 l 220 -276 q 214 -283 220 -283 l 92 -283 q 85 -276 85 -283 l 85 720 q 92 727 85 727 l 203 727 q 210 720 210 727 l 210 647 q 412 743 287 743 q 647 629 562 743 q 724 366 724 525 q 568 27 724 131 m 710 366 q 637 618 710 519 q 412 730 556 730 q 208 623 285 730 q 200 619 205 618 q 196 627 196 621 l 196 713 l 98 713 l 98 -269 l 207 -269 l 207 75 q 211 82 207 81 q 219 79 215 83 q 300 14 256 33 l 315 7 l 321 5 l 328 2 q 399 -9 357 -9 q 562 38 488 -10 q 710 366 710 136 m 321 612 q 209 356 209 545 l 209 355 q 323 107 209 163 q 395 91 357 91 q 547 186 498 91 q 585 374 587 261 q 544 547 585 476 q 400 634 494 634 q 321 612 357 634 m 315 624 q 400 648 354 648 q 554 556 500 648 q 599 374 597 482 q 557 176 600 255 q 395 77 505 77 q 237 168 290 77 q 195 355 195 242 l 195 356 q 315 624 195 552 z "},"q":{"ha":772,"x_min":42,"x_max":680,"o":"m 189 696 q 353 743 260 743 l 354 743 q 463 697 425 715 q 556 643 539 662 l 556 720 q 563 727 556 727 l 673 727 q 680 720 680 727 l 680 -276 q 673 -283 680 -283 l 551 -283 q 544 -276 544 -283 l 544 57 q 362 -23 474 -23 q 153 63 239 -23 q 50 269 72 144 q 42 367 42 315 q 189 696 42 598 m 56 367 q 131 109 56 215 q 362 -9 216 -9 q 545 81 481 -9 q 553 84 549 85 q 557 77 557 83 l 557 -269 l 666 -269 l 666 713 l 570 713 l 570 624 q 565 616 570 618 q 557 620 561 615 q 352 730 509 691 q 196 684 264 730 q 56 367 56 591 m 372 91 q 515 175 466 91 q 556 344 555 243 q 517 534 557 455 q 364 633 466 633 q 255 590 301 633 q 195 486 212 550 q 181 362 181 433 q 222 182 181 256 q 372 91 273 91 m 168 362 q 208 551 168 477 q 364 647 259 647 q 527 543 472 647 q 570 344 571 460 q 525 165 568 237 q 372 77 473 77 q 212 172 267 77 q 168 362 168 249 z "},"r":{"ha":463,"x_min":83,"x_max":490,"o":"m 484 684 l 464 631 q 439 577 444 577 q 376 602 415 588 q 350 604 361 604 q 219 377 219 595 l 219 0 q 212 -7 219 -7 l 90 -7 q 83 0 83 -7 l 83 720 q 90 727 83 727 l 200 727 q 207 720 207 727 l 207 637 q 356 743 271 743 q 485 703 420 743 q 484 684 490 700 m 473 694 q 356 730 414 730 q 206 608 273 730 q 198 604 203 602 q 193 611 193 604 l 193 713 l 97 713 l 97 7 l 205 7 l 205 377 q 350 617 205 612 q 436 594 390 618 l 473 694 z "},"s":{"ha":694,"x_min":34,"x_max":648,"o":"m 101 231 q 161 241 155 239 q 172 229 170 241 q 184 181 176 201 q 350 91 224 91 q 455 113 412 91 q 509 199 509 142 q 476 258 509 237 q 326 306 455 272 q 165 357 263 322 q 56 529 56 410 q 141 692 56 630 q 328 743 212 743 l 337 743 q 577 650 509 743 q 621 536 608 607 q 545 518 623 519 q 511 512 527 515 q 488 517 489 509 q 337 629 471 629 q 188 543 188 629 q 245 474 188 496 q 353 444 261 468 q 534 387 404 430 q 648 212 648 343 q 608 88 648 144 q 505 7 570 35 q 351 -23 437 -23 q 36 214 78 -23 q 63 227 34 224 q 101 231 76 229 m 51 210 q 351 -9 93 -9 q 600 100 527 -9 q 634 212 634 153 q 568 351 634 304 q 418 411 528 379 q 349 430 415 412 q 240 462 258 455 q 174 543 174 488 q 337 643 174 643 q 500 526 479 643 l 606 541 q 475 706 583 665 q 337 730 412 730 l 328 730 q 91 615 152 730 q 70 529 70 576 q 172 370 70 418 q 329 319 218 348 q 416 295 358 311 q 496 260 474 279 q 522 199 522 235 q 465 104 522 136 q 350 77 418 77 q 158 227 182 77 l 51 210 z "},"t":{"ha":386,"x_min":18,"x_max":383,"o":"m 242 618 l 242 204 q 254 130 242 144 q 304 111 268 111 q 357 116 326 111 q 369 94 366 117 q 373 60 370 83 q 383 8 383 -5 q 377 -5 383 -4 q 283 -16 326 -16 q 123 64 157 -16 q 107 211 107 100 l 107 618 l 24 618 q 18 625 18 618 l 18 720 q 24 727 18 727 l 107 727 l 107 899 q 111 905 109 903 l 232 978 q 242 972 242 984 l 242 727 l 358 727 q 365 720 365 727 l 365 625 q 358 618 365 618 l 242 618 m 229 960 l 121 895 l 121 720 q 114 713 121 713 l 31 713 l 31 632 l 114 632 q 121 625 121 632 l 121 211 q 135 69 121 102 q 283 -3 167 -3 q 368 7 321 -3 l 353 102 q 304 98 323 98 q 239 127 255 98 q 229 204 229 149 l 229 625 q 235 632 229 632 l 351 632 l 351 713 l 235 713 q 229 720 229 713 l 229 960 z "},"u":{"ha":772,"x_min":82,"x_max":680,"o":"m 557 85 q 524 49 541 64 q 335 -23 446 -23 q 210 3 267 -23 q 115 85 145 32 q 82 274 82 146 l 82 720 q 89 727 82 727 l 211 727 q 218 720 218 727 l 218 321 q 225 193 218 224 q 271 122 236 148 q 359 96 317 96 q 458 121 413 96 q 525 196 505 149 q 544 334 544 243 l 544 720 q 551 727 544 727 l 673 727 q 680 720 680 727 l 680 0 q 673 -7 680 -7 l 564 -7 q 557 0 557 -7 l 557 85 m 89 713 l 96 720 l 96 274 q 115 120 96 171 q 219 14 141 49 q 335 -9 273 -9 q 515 58 441 -9 q 558 110 535 77 q 566 113 562 115 q 570 106 570 112 l 570 7 l 666 7 l 666 713 l 557 713 l 557 334 q 543 208 557 252 q 473 116 524 150 q 359 82 422 82 q 264 111 313 82 q 212 191 224 140 q 204 321 204 222 l 204 713 l 89 713 z "},"v":{"ha":694,"x_min":8,"x_max":688,"o":"m 412 -3 q 406 -7 410 -7 l 292 -7 q 286 -3 287 -7 l 12 718 q 18 727 8 727 l 146 727 q 153 722 151 727 l 252 444 q 347 168 301 307 q 383 274 364 224 l 387 283 l 547 722 q 553 727 549 727 l 678 727 q 684 718 688 727 l 412 -3 m 669 713 l 557 713 l 395 269 q 354 142 374 210 q 347 136 352 136 q 340 142 342 136 q 208 530 320 215 l 142 713 l 28 713 l 296 7 l 401 7 l 669 713 z "},"w":{"ha":1003,"x_min":-5,"x_max":999,"o":"m 287 178 q 383 538 292 201 l 433 722 q 439 727 434 727 l 565 727 q 572 722 570 727 l 709 190 l 867 722 q 873 727 869 727 l 992 727 q 999 716 999 727 q 985 665 999 701 q 969 623 979 651 l 774 -2 q 767 -7 772 -7 l 640 -7 q 633 -2 635 -7 l 497 526 l 359 -2 q 352 -7 357 -7 l 224 -7 q 218 -2 220 -7 l -3 718 q 4 727 -5 727 l 130 727 q 137 722 136 727 l 287 178 m 983 713 l 878 713 l 715 163 q 709 157 713 157 q 702 163 703 157 l 559 713 l 445 713 l 429 658 q 370 453 399 555 q 298 164 328 302 l 294 149 q 288 142 293 142 q 281 148 282 142 l 125 713 l 14 713 l 229 7 l 347 7 l 491 556 q 498 562 492 562 q 505 555 503 562 l 528 452 q 532 433 529 446 l 646 7 l 762 7 l 983 713 z "},"x":{"ha":694,"x_min":3,"x_max":697,"o":"m 652 690 l 425 381 l 690 4 q 684 -7 697 -7 l 534 -7 q 529 -4 530 -6 l 347 272 l 163 -4 q 158 -7 161 -6 l 10 -7 q 3 -3 3 -7 q 34 45 3 1 l 265 374 l 24 716 q 30 727 17 727 l 182 727 q 188 724 186 726 l 252 627 q 336 496 275 591 l 344 484 q 514 724 365 515 q 519 727 517 726 l 665 727 q 673 722 673 727 q 652 690 673 719 m 652 713 l 523 713 q 349 467 456 621 q 344 463 347 463 q 331 478 340 463 l 324 489 q 179 713 292 541 l 43 713 l 279 378 q 279 370 281 374 l 23 7 l 155 7 l 342 288 q 347 292 344 291 q 361 275 351 292 l 392 227 q 538 7 439 157 l 671 7 l 411 377 q 411 385 408 381 l 652 713 z "},"y":{"ha":694,"x_min":13,"x_max":689,"o":"m 356 163 q 450 440 375 236 l 554 722 q 560 727 556 727 l 682 727 q 689 721 689 727 q 676 684 687 713 l 414 -15 q 358 -154 376 -118 q 269 -270 315 -241 q 256 -278 265 -273 q 165 -299 218 -299 q 118 -294 148 -299 q 79 -278 81 -287 l 76 -251 q 68 -189 75 -241 q 66 -161 65 -165 q 75 -156 67 -155 q 142 -167 117 -168 q 167 -165 149 -167 q 242 -119 216 -160 q 279 -29 253 -101 q 287 -5 281 -23 l 288 -1 l 16 718 q 22 727 13 727 l 154 727 q 170 698 159 727 l 252 467 q 356 163 304 321 m 673 713 l 565 713 l 412 298 q 363 135 389 234 q 356 128 361 128 q 349 134 351 128 q 239 462 328 216 l 149 713 l 32 713 l 302 1 q 291 -33 301 -4 q 253 -125 267 -104 q 143 -180 220 -178 q 81 -172 119 -181 l 92 -273 q 165 -286 132 -286 q 262 -258 217 -286 q 402 -9 323 -221 l 673 713 z "},"z":{"ha":694,"x_min":20,"x_max":671,"o":"m 470 618 q 348 614 403 614 l 54 614 q 47 621 47 614 l 47 720 q 54 727 47 727 l 643 727 q 650 720 650 727 l 650 640 q 258 178 648 632 q 194 107 237 154 q 332 112 264 112 l 665 112 q 671 105 671 112 l 671 0 q 665 -7 671 -7 l 27 -7 q 20 0 20 -7 l 20 99 q 22 104 21 102 l 470 618 m 34 96 l 34 7 l 658 7 l 658 98 l 332 98 q 178 92 264 98 q 170 96 170 92 q 186 119 170 102 l 216 151 q 248 187 224 159 l 636 668 l 636 713 l 61 713 l 61 628 l 348 628 q 485 632 412 628 q 493 628 493 633 q 484 613 493 623 l 34 96 z "},"{":{"ha":464,"x_min":32,"x_max":438,"o":"m 168 360 q 296 152 279 307 q 300 54 300 109 l 300 27 q 303 -102 300 -79 q 336 -167 309 -151 q 410 -179 357 -179 l 431 -179 q 438 -186 438 -179 l 438 -292 q 431 -299 438 -299 l 393 -299 q 220 -235 271 -299 q 174 -39 178 -184 q 172 58 174 -28 q 161 201 172 106 q 39 298 139 295 q 32 304 32 298 l 32 415 q 39 422 32 422 q 161 518 139 425 q 172 688 172 564 q 186 880 174 830 q 307 1011 212 985 q 393 1018 332 1018 l 431 1018 q 438 1011 438 1018 l 438 905 q 431 898 438 898 l 410 898 q 317 867 338 898 q 300 766 300 844 l 300 736 q 299 631 300 690 q 276 472 296 524 q 168 360 249 402 m 425 1004 l 393 1004 q 288 990 322 1004 q 212 915 239 970 q 186 688 187 863 q 184 593 185 622 q 170 501 180 534 q 45 408 142 414 l 45 311 q 174 203 151 305 q 186 59 185 157 q 195 -141 185 3 q 299 -275 205 -242 q 393 -286 328 -286 l 425 -286 l 425 -193 l 410 -193 q 328 -178 353 -193 q 290 -104 296 -159 q 287 26 287 -79 l 287 54 q 267 231 287 172 q 149 353 237 317 q 149 366 136 359 q 261 473 233 406 q 286 632 282 522 q 287 736 287 677 l 287 766 q 307 877 287 849 q 410 911 332 911 l 425 911 l 425 1004 z "},"|":{"ha":361,"x_min":121,"x_max":241,"o":"m 127 -299 q 121 -292 121 -299 l 121 1011 q 127 1018 121 1018 l 234 1018 q 241 1011 241 1018 l 241 -292 q 234 -299 241 -299 l 127 -299 m 134 -286 l 227 -286 l 227 1004 l 134 1004 l 134 -286 z "},"}":{"ha":464,"x_min":25,"x_max":431,"o":"m 297 361 q 195 455 215 418 q 163 665 163 517 l 163 709 q 159 823 163 806 l 159 827 l 158 831 q 131 884 151 871 q 53 898 111 898 l 32 898 q 25 905 25 898 l 25 1011 q 32 1018 25 1018 l 70 1018 q 281 863 256 1018 q 291 707 290 808 q 297 550 292 596 q 425 422 312 425 q 431 415 431 422 l 431 304 q 425 298 431 298 q 302 201 325 295 q 290 -33 294 164 q 269 -189 288 -139 q 156 -292 239 -268 q 70 -299 130 -299 l 32 -299 q 25 -292 25 -299 l 25 -186 q 32 -179 25 -179 l 53 -179 q 146 -149 125 -179 q 163 -46 163 -125 q 163 50 163 -36 q 170 178 162 86 l 172 186 l 174 197 q 297 361 197 313 m 39 911 l 53 911 q 133 899 109 911 q 172 833 163 882 l 172 829 l 173 825 q 176 709 176 808 l 176 665 q 208 461 176 521 q 313 366 227 423 q 314 353 328 359 q 187 194 212 311 l 185 184 l 184 176 q 176 -46 176 132 q 156 -158 176 -130 q 53 -193 132 -193 l 39 -193 l 39 -286 l 70 -286 q 176 -271 139 -286 q 252 -195 225 -250 q 277 -33 275 -147 q 277 87 277 7 q 289 204 279 161 q 418 311 313 305 l 418 408 q 283 549 299 416 q 277 705 278 595 q 269 860 277 808 q 164 994 252 963 q 70 1004 135 1004 l 39 1004 l 39 911 z "},"~":{"ha":811,"x_min":52,"x_max":760,"o":"m 667 391 q 565 372 622 372 q 367 428 492 372 q 236 463 288 463 q 64 373 157 463 q 52 378 52 362 l 52 517 q 56 524 53 520 l 58 525 q 248 605 138 605 q 371 581 307 605 q 473 540 422 560 q 578 514 541 514 q 748 605 665 514 q 760 600 760 618 l 760 456 q 719 420 760 446 q 667 391 686 399 m 66 393 l 76 403 q 236 477 155 477 q 373 440 291 477 q 565 386 495 386 q 746 459 667 386 l 746 583 l 744 582 q 578 500 662 500 q 495 517 538 500 q 416 550 469 528 q 248 591 314 591 q 67 516 136 591 l 66 514 l 66 393 z "},"":{"ha":463,"x_min":151,"x_max":315,"o":"m 163 574 q 156 581 156 574 l 156 720 q 163 727 156 727 l 303 727 q 310 720 310 727 l 310 581 q 303 574 310 574 l 163 574 m 303 588 l 296 581 l 296 713 l 170 713 l 170 588 l 303 588 m 151 -54 l 186 473 q 193 479 186 479 l 271 479 q 278 473 277 479 l 315 -54 l 315 -274 q 309 -281 315 -281 l 157 -281 q 151 -274 151 -281 l 151 -54 m 164 -267 l 302 -267 l 302 -54 q 288 206 302 52 l 265 466 l 199 466 l 164 -54 l 164 -267 z "},"":{"ha":772,"x_min":66,"x_max":710,"o":"m 600 48 q 496 -16 541 -3 q 397 -26 465 -26 q 332 -18 366 -26 l 254 -279 q 245 -284 252 -286 l 170 -262 q 165 -254 163 -260 l 241 11 q 66 357 66 100 l 66 358 q 228 700 66 611 q 392 744 308 744 q 455 739 416 744 l 530 996 q 568 992 531 1002 q 618 970 620 978 l 543 714 q 644 635 614 682 l 644 635 q 695 510 667 585 q 659 497 696 503 l 627 492 q 577 483 564 483 q 563 489 564 483 q 508 594 547 556 l 362 92 q 395 87 380 87 q 519 140 471 87 q 573 264 563 187 q 590 271 574 271 q 643 264 606 271 q 683 261 656 263 q 708 249 710 259 q 600 48 686 122 m 693 244 l 586 256 q 526 127 574 176 q 395 74 473 74 q 347 89 343 74 l 472 518 q 504 614 500 614 q 509 612 506 614 q 575 498 556 571 l 680 514 q 633 628 669 561 q 532 704 597 676 q 528 712 527 707 l 603 968 l 541 986 l 467 730 q 459 725 465 724 q 392 730 416 730 q 234 688 312 730 q 79 358 79 603 l 79 357 q 118 162 79 247 q 252 20 163 63 q 256 12 258 18 l 180 -251 l 243 -269 l 321 -7 q 330 -3 323 -1 q 397 -12 366 -12 q 593 60 513 -12 q 693 244 671 128 m 399 633 q 229 511 274 633 q 205 363 205 447 q 278 132 205 195 l 424 631 q 399 633 408 633 m 399 646 q 433 644 410 646 q 439 635 441 644 l 288 118 q 277 115 286 109 q 191 363 191 179 q 291 614 191 551 q 399 646 341 646 z "},"":{"ha":772,"x_min":9,"x_max":742,"o":"m 202 142 q 279 151 243 151 q 408 134 336 151 q 564 106 524 106 q 692 144 614 106 q 701 140 698 146 l 740 28 q 736 20 742 22 q 569 -24 633 -24 q 420 7 518 -24 q 270 37 321 37 q 68 -24 165 37 q 65 -26 67 -26 q 35 37 60 -26 l 12 96 q 15 104 9 101 q 155 270 120 163 q 168 364 168 310 q 157 441 168 402 l 30 441 q 23 448 23 441 l 23 549 q 30 555 23 555 l 125 555 q 93 728 93 667 q 182 940 93 861 q 403 1018 269 1017 q 614 950 532 1019 q 715 755 696 882 q 686 741 716 745 q 648 739 673 741 q 594 728 574 728 q 580 735 581 728 q 526 855 570 810 q 405 904 478 904 q 286 861 334 904 q 237 745 237 815 q 268 573 237 674 l 273 555 l 482 555 q 489 549 489 555 l 489 448 q 482 441 489 441 l 300 441 q 309 389 309 415 q 202 142 309 264 m 725 30 l 690 128 q 564 93 614 93 q 405 121 521 93 q 279 138 334 138 q 186 123 239 138 q 176 125 181 122 q 177 134 171 127 q 296 389 296 260 q 283 446 296 417 q 282 450 282 448 q 290 455 282 455 l 475 455 l 475 542 l 269 542 q 255 569 263 542 q 223 745 223 676 q 277 870 223 821 q 405 918 329 918 q 532 867 481 918 q 593 743 581 820 l 701 760 q 603 942 681 879 q 403 1004 524 1006 q 192 930 274 1003 q 106 728 106 854 q 141 551 106 669 q 134 542 144 542 l 37 542 l 37 455 l 163 455 q 181 364 181 455 q 27 96 181 185 l 68 -9 q 270 51 166 51 q 420 20 321 51 q 569 -10 519 -10 q 725 30 631 -10 z "},"":{"ha":772,"x_min":43,"x_max":724,"o":"m 683 195 q 640 153 642 153 q 607 181 635 153 l 543 245 q 383 198 472 198 q 223 245 295 198 l 159 181 q 127 153 131 153 q 71 180 98 153 q 43 239 43 208 q 69 268 43 243 l 136 333 q 90 492 90 408 q 136 651 90 576 l 45 739 q 43 743 44 741 q 84 789 43 747 q 127 831 125 831 q 160 802 131 831 l 223 739 q 383 786 295 786 q 543 739 472 786 l 606 802 q 639 831 635 831 q 682 789 640 831 q 724 745 724 747 q 698 716 724 741 l 631 651 q 677 492 677 576 q 631 333 677 408 l 698 269 q 724 239 724 243 q 683 195 718 231 m 707 240 l 618 328 q 617 336 614 332 q 664 492 664 409 q 617 648 664 575 q 618 656 614 652 l 707 744 l 638 815 l 549 726 q 540 725 545 722 q 383 772 471 772 q 227 725 296 772 q 218 726 222 722 l 128 815 l 60 744 l 149 656 q 150 648 153 652 q 103 492 103 575 q 150 336 103 409 q 149 328 153 332 l 60 240 l 128 169 l 218 259 q 227 260 222 263 q 383 212 296 212 q 540 260 471 212 q 549 259 545 263 l 638 169 l 707 240 m 382 323 q 503 372 454 323 q 551 492 551 421 q 503 612 551 563 q 385 661 455 661 l 382 661 q 263 612 312 661 q 214 492 214 563 q 262 372 214 421 q 382 323 311 323 m 200 492 q 253 622 200 569 q 382 675 306 675 l 385 675 q 512 621 460 675 q 565 492 565 568 q 512 362 565 416 q 382 309 459 309 q 253 362 306 309 q 200 492 200 416 z "},"":{"ha":772,"x_min":-14,"x_max":781,"o":"m 505 519 l 725 519 q 732 512 732 519 l 732 412 q 725 405 732 405 l 452 405 l 452 321 l 725 321 q 732 315 732 321 l 732 220 q 725 214 732 214 l 452 214 l 452 0 q 446 -7 452 -7 l 323 -7 q 317 0 317 -7 l 317 214 l 42 214 q 35 220 35 214 l 35 315 q 42 321 35 321 l 317 321 l 317 405 l 42 405 q 35 412 35 405 l 35 512 q 42 519 35 519 l 262 519 l -8 991 q -2 1001 -14 1001 l 134 1001 q 140 998 138 1000 l 277 753 q 382 557 332 655 q 431 654 402 600 l 617 998 q 623 1001 618 1000 l 768 1001 q 774 991 781 1001 l 505 519 m 757 987 l 627 987 l 444 647 q 388 537 402 571 q 376 537 382 522 q 264 747 359 578 l 130 987 l 9 987 l 279 515 q 273 505 286 505 l 49 505 l 49 418 l 323 418 q 330 412 330 418 l 330 315 q 323 308 330 308 l 49 308 l 49 227 l 323 227 q 330 220 330 227 l 330 7 l 439 7 l 439 220 q 446 227 439 227 l 718 227 l 718 308 l 446 308 q 439 315 439 308 l 439 412 q 446 418 439 418 l 718 418 l 718 505 l 494 505 q 488 515 481 505 l 757 987 z "},"":{"ha":361,"x_min":121,"x_max":241,"o":"m 241 475 q 234 469 241 469 l 127 469 q 121 475 121 469 l 121 1011 q 127 1018 121 1018 l 234 1018 q 241 1011 241 1018 l 241 475 m 227 1004 l 134 1004 l 134 482 l 227 482 l 227 1004 m 127 -299 q 121 -292 121 -299 l 121 244 q 127 251 121 251 l 234 251 q 241 244 241 251 l 241 -292 q 234 -299 241 -299 l 127 -299 m 134 -286 l 227 -286 l 227 237 l 134 237 l 134 -286 z "},"":{"ha":772,"x_min":48,"x_max":715,"o":"m 664 179 q 568 119 637 149 q 669 -70 669 37 q 632 -190 669 -136 q 534 -271 595 -243 q 393 -299 469 -299 q 180 -229 258 -299 l 178 -229 q 90 -48 105 -163 q 120 -35 89 -38 q 157 -32 132 -34 l 219 -23 q 227 -28 225 -22 q 277 -142 243 -106 q 392 -182 317 -182 q 496 -149 473 -170 q 533 -71 533 -116 q 510 -12 533 -39 q 376 93 477 28 q 222 191 325 125 q 48 437 48 302 q 89 558 48 505 q 195 631 129 610 q 113 797 113 713 q 170 941 113 880 q 309 1013 225 998 q 368 1018 335 1018 q 658 777 628 1018 q 627 764 659 766 q 588 762 614 764 l 525 756 q 517 762 519 755 q 378 904 493 904 q 266 855 305 904 q 246 803 246 831 q 269 742 246 770 q 513 571 301 703 q 651 469 613 508 q 715 315 715 401 q 664 179 715 235 m 530 770 l 644 782 q 368 1004 612 1004 q 201 950 270 1004 q 127 797 127 892 q 212 633 127 715 q 210 622 221 625 q 104 554 144 603 q 62 437 62 503 q 149 260 62 338 q 345 129 176 237 q 521 -3 486 39 q 547 -71 547 -35 q 506 -158 547 -121 q 393 -196 465 -196 l 393 -196 q 214 -37 251 -196 l 104 -53 q 187 -218 120 -158 l 189 -219 q 393 -286 263 -286 q 623 -179 555 -286 q 656 -70 656 -127 q 551 115 656 35 q 552 127 541 122 q 654 189 626 157 q 702 315 702 241 q 639 462 702 397 q 505 559 604 498 l 373 642 q 283 708 305 687 q 233 803 233 755 q 281 888 233 855 q 378 918 324 918 q 530 770 503 918 m 267 574 q 172 450 172 519 q 283 307 172 379 q 420 223 321 284 q 494 174 450 205 q 587 292 587 222 q 452 451 587 364 q 267 574 336 525 m 564 378 q 600 292 600 334 q 497 159 600 212 q 490 160 493 157 q 276 296 430 197 q 159 450 159 372 q 264 588 159 528 q 273 587 268 590 q 364 522 312 555 q 459 463 396 503 q 564 378 533 414 z "},"":{"ha":463,"x_min":35,"x_max":429,"o":"m 294 854 q 288 861 288 854 l 288 1000 q 294 1007 288 1007 l 422 1007 q 429 1000 429 1007 l 429 861 q 422 854 429 854 l 294 854 m 415 994 l 301 994 l 301 868 l 415 868 l 415 994 m 41 854 q 35 861 35 854 l 35 1000 q 41 1007 35 1007 l 169 1007 q 176 1000 176 1007 l 176 861 q 169 854 176 854 l 41 854 m 48 994 l 48 868 l 162 869 l 162 994 l 48 994 z "},"":{"ha":1023,"x_min":-5,"x_max":1032,"o":"m 962 761 q 1032 499 1032 638 q 962 238 1032 360 q 772 50 892 117 q 514 -19 648 -19 q 254 50 374 -19 q 64 241 131 121 q -5 499 -5 365 q 66 761 -5 640 q 259 951 137 885 q 514 1018 384 1018 q 772 949 652 1018 q 962 761 893 880 m 514 1004 q 262 937 380 1004 q 77 754 144 870 q 9 499 9 635 q 77 245 9 364 q 262 61 145 126 q 514 -5 382 -5 q 768 62 650 -5 q 953 249 887 130 q 1019 499 1019 368 q 950 754 1019 635 q 766 937 884 870 q 514 1004 648 1004 m 152 712 q 94 499 94 612 q 151 288 94 387 q 305 135 208 189 q 514 79 406 79 q 725 136 627 79 q 878 290 824 193 q 934 499 934 391 q 876 712 934 612 q 720 865 819 812 q 514 920 620 920 q 304 864 401 920 q 152 712 208 808 m 302 878 q 419 926 372 916 q 514 933 450 933 q 731 875 630 933 q 889 716 833 817 q 947 499 947 612 q 889 281 947 382 q 730 123 831 180 q 514 66 626 66 q 296 124 397 66 q 137 285 194 183 q 80 499 80 387 q 140 719 80 616 q 302 878 199 822 m 515 199 q 310 285 384 199 q 239 498 239 366 q 312 711 239 633 q 520 793 387 793 q 758 629 709 793 q 726 610 762 618 q 672 600 708 607 q 665 604 667 599 q 517 704 624 704 q 386 640 432 704 q 345 496 345 585 q 449 303 345 343 q 510 292 477 292 q 613 326 570 292 q 671 418 657 360 q 680 423 673 423 q 722 411 686 421 q 768 391 770 397 q 678 250 747 300 q 515 199 609 199 m 753 387 l 718 397 l 683 408 q 619 314 666 349 q 510 279 572 279 q 373 345 420 279 q 332 496 332 402 q 376 650 332 590 q 517 718 426 718 q 675 615 630 718 l 743 631 q 520 780 694 780 q 321 702 392 780 q 253 498 253 627 q 319 294 253 372 q 515 213 390 213 q 667 259 602 213 q 753 387 732 304 z "},"":{"ha":514,"x_min":25,"x_max":501,"o":"m 387 511 q 366 565 372 511 q 198 499 286 499 q 76 538 123 499 q 25 654 25 581 q 128 791 25 758 q 302 822 149 798 q 355 833 330 827 q 349 882 355 868 q 256 925 332 925 q 150 846 161 925 q 142 840 149 838 l 49 863 q 43 871 43 865 q 119 985 54 947 q 257 1018 174 1018 q 467 847 467 1018 l 467 684 q 492 522 467 553 q 487 511 501 511 l 387 511 m 474 525 q 453 684 453 561 l 453 847 q 397 974 453 937 q 257 1004 352 1004 q 58 876 81 1004 l 138 855 q 256 939 155 939 q 359 895 336 939 q 370 839 370 875 q 363 821 370 823 q 198 793 329 812 q 39 654 39 769 q 85 548 39 587 q 198 513 129 513 q 367 584 286 513 q 378 578 378 593 q 391 525 380 549 l 474 525 m 233 718 q 140 654 140 703 q 221 594 140 594 q 300 617 264 594 q 349 681 336 641 q 355 740 353 694 q 233 718 314 730 m 230 731 q 359 755 326 746 q 368 749 364 754 q 360 671 368 694 q 305 604 347 629 q 221 581 267 581 q 157 598 183 581 q 126 654 126 618 q 230 731 126 715 z "},"":{"ha":772,"x_min":85,"x_max":684,"o":"m 501 358 l 667 71 q 679 47 678 53 q 672 42 679 42 l 569 42 q 564 45 565 43 l 360 340 q 351 362 348 357 l 564 671 q 569 674 566 673 l 672 674 q 678 664 684 674 l 501 358 m 627 604 l 661 661 l 572 661 l 365 358 l 572 56 l 661 56 l 487 355 q 487 361 485 358 l 609 572 q 627 604 610 574 m 239 358 l 401 71 q 413 47 412 51 q 406 42 413 42 l 307 42 q 293 58 302 42 l 85 354 q 85 358 85 356 q 85 362 85 361 l 302 671 q 307 674 304 673 l 408 674 q 414 664 420 674 l 239 358 m 396 661 l 311 661 l 99 358 l 311 56 l 395 56 l 224 355 q 224 361 222 358 l 396 661 z "},"":{"ha":811,"x_min":71,"x_max":741,"o":"m 741 288 q 734 281 741 281 l 618 281 q 612 288 612 281 l 612 578 l 77 578 q 71 585 71 578 l 71 699 q 77 705 71 705 l 734 705 q 741 699 741 705 l 741 288 m 727 692 l 84 692 l 84 591 l 618 591 q 625 585 625 591 l 625 294 l 727 294 l 727 692 z "},"":{"ha":1023,"x_min":-5,"x_max":1032,"o":"m 962 761 q 1032 499 1032 638 q 962 238 1032 360 q 772 50 892 117 q 514 -19 648 -19 q 254 50 374 -19 q 64 241 131 121 q -5 499 -5 365 q 66 761 -5 640 q 259 951 137 885 q 514 1018 384 1018 q 772 949 652 1018 q 962 761 893 880 m 514 1004 q 262 937 380 1004 q 77 754 144 870 q 9 499 9 635 q 77 245 9 364 q 262 61 145 126 q 514 -5 382 -5 q 768 62 650 -5 q 953 249 887 130 q 1019 499 1019 368 q 950 754 1019 635 q 766 937 884 870 q 514 1004 648 1004 m 152 712 q 94 499 94 612 q 151 288 94 387 q 305 135 208 189 q 514 79 406 79 q 725 136 627 79 q 878 290 824 193 q 934 499 934 391 q 876 712 934 612 q 720 865 819 812 q 514 920 620 920 q 304 864 401 920 q 152 712 208 808 m 302 878 q 419 926 372 916 q 514 933 450 933 q 731 875 630 933 q 889 716 833 817 q 947 499 947 612 q 889 281 947 382 q 730 123 831 180 q 514 66 626 66 q 248 156 364 66 q 94 391 132 246 q 80 499 80 444 q 140 719 80 616 q 302 878 199 822 m 581 458 q 663 372 616 439 q 730 265 668 363 l 743 243 q 759 214 759 218 q 752 210 759 210 l 644 210 q 637 213 639 211 q 563 344 600 283 q 498 426 527 404 q 431 444 474 444 l 385 444 l 385 216 q 378 210 385 210 l 290 210 q 283 216 283 210 l 283 767 q 290 774 283 774 l 479 774 q 600 764 560 774 q 696 699 664 748 q 721 618 721 661 q 681 513 721 557 q 581 458 642 469 m 479 760 l 296 760 l 296 223 l 372 223 l 372 450 q 378 457 372 457 l 431 457 q 517 427 484 457 q 574 351 539 408 q 648 223 586 332 l 740 223 q 673 331 699 290 q 599 429 629 399 q 554 456 582 445 q 549 464 548 459 q 556 469 550 469 q 663 513 621 474 q 707 618 707 555 q 682 696 707 661 q 590 753 652 739 q 479 760 555 760 m 385 686 l 385 533 l 486 533 q 613 610 613 533 q 566 677 613 659 q 479 686 544 686 l 385 686 m 612 658 q 627 610 627 636 q 486 519 627 519 l 378 519 q 372 526 372 519 l 372 692 q 378 699 372 699 l 479 699 q 612 658 583 699 z "},"":{"ha":767,"x_min":-28,"x_max":795,"o":"m -28 1149 q -21 1156 -28 1156 l 788 1156 q 795 1149 795 1156 l 795 1062 q 788 1055 795 1055 l -21 1055 q -28 1062 -28 1055 l -28 1149 m -14 1143 l -14 1069 l 781 1069 l 781 1143 l -14 1143 z "},"":{"ha":555,"x_min":80,"x_max":470,"o":"m 470 823 l 470 822 q 413 685 470 741 q 275 628 355 628 q 137 684 194 628 q 80 821 80 741 l 80 823 q 137 961 80 905 q 275 1018 193 1018 q 413 962 357 1018 q 470 823 470 905 m 275 1004 q 146 952 199 1004 q 94 823 94 899 l 94 821 q 146 694 94 746 q 275 642 199 642 q 403 694 350 642 q 456 822 456 747 l 456 823 q 404 952 456 900 q 275 1004 351 1004 m 382 829 l 382 835 q 347 904 376 878 q 274 931 315 931 q 199 900 230 931 q 168 823 168 868 l 168 818 l 168 812 q 203 744 173 770 q 275 715 235 715 q 351 747 320 715 q 382 823 382 779 l 382 829 m 396 829 l 396 823 q 361 738 396 772 q 275 702 325 702 q 193 734 229 702 q 155 811 160 763 l 154 817 l 154 823 q 191 911 154 876 q 278 945 227 945 q 358 912 323 944 q 395 836 390 882 l 396 829 z "},"":{"ha":762,"x_min":46,"x_max":716,"o":"m 317 443 l 53 443 q 46 450 46 443 l 46 563 q 53 570 46 570 l 317 570 l 317 833 q 323 840 317 840 l 439 840 q 446 833 446 840 l 446 570 l 709 570 q 716 563 716 570 l 716 450 q 709 443 716 443 l 446 443 l 446 176 q 439 170 446 170 l 323 170 q 317 176 317 170 l 317 443 m 330 450 l 330 183 l 432 183 l 432 450 q 439 456 432 456 l 703 456 l 703 556 l 439 556 q 432 563 432 556 l 432 827 l 330 827 l 330 563 q 323 556 330 556 l 60 556 l 60 456 l 323 456 q 330 450 330 456 m 716 0 q 709 -7 716 -7 l 53 -7 q 46 0 46 -7 l 46 114 q 53 121 46 121 l 709 121 q 716 114 716 121 l 716 0 m 703 7 l 703 107 l 60 107 l 60 7 l 703 7 z "},"":{"ha":463,"x_min":9,"x_max":446,"o":"m 17 490 q 10 498 9 490 q 185 709 20 589 q 300 800 283 780 q 323 852 323 825 q 237 920 323 920 q 173 904 193 920 q 140 847 153 889 q 92 846 138 841 l 61 850 q 31 853 56 850 q 24 862 22 854 q 239 1013 64 1013 q 376 983 322 1013 q 444 869 444 946 q 402 757 444 809 q 262 640 373 720 q 195 586 220 609 l 439 586 q 446 579 446 586 l 446 497 q 439 490 446 490 l 17 490 m 433 504 l 433 572 l 178 572 q 173 584 162 572 q 254 650 199 611 q 391 765 363 729 q 430 869 430 814 q 239 1000 430 1000 q 40 866 79 1000 l 129 857 q 167 917 144 900 q 237 933 191 933 q 337 852 337 933 q 310 790 337 821 q 193 698 290 768 q 24 504 39 586 l 433 504 z "},"":{"ha":463,"x_min":14,"x_max":445,"o":"m 232 478 q 16 629 45 478 q 72 642 14 637 l 121 647 q 127 642 125 648 q 226 571 151 571 q 294 592 267 571 q 326 654 326 615 q 224 722 326 722 q 206 721 218 722 q 187 720 193 720 q 179 739 179 720 q 185 778 179 753 q 202 808 193 808 q 301 871 301 807 q 227 924 301 924 q 137 859 163 924 q 130 855 135 854 l 33 871 q 28 880 24 872 q 102 985 56 955 q 228 1013 146 1013 q 421 880 421 1013 q 343 772 421 804 q 445 642 445 738 q 376 517 445 562 q 232 478 317 478 m 431 642 q 319 764 431 736 q 313 771 313 766 q 319 778 313 776 q 408 880 408 803 q 228 1000 408 1000 q 114 975 154 1000 q 43 883 71 949 l 127 869 q 227 938 155 938 q 315 871 315 938 q 208 795 315 795 l 195 734 l 201 734 q 224 736 214 736 q 339 654 339 736 q 304 583 339 610 q 226 557 272 557 q 117 633 144 557 l 74 629 l 31 624 q 232 492 62 492 q 366 526 310 492 q 431 642 431 568 z "},"":{"ha":463,"x_min":144,"x_max":408,"o":"m 389 974 l 257 806 q 252 803 254 804 l 151 803 q 144 809 144 803 q 153 831 145 813 l 231 994 q 241 1006 237 1006 l 401 1006 q 408 1002 408 1006 q 389 974 408 998 m 161 817 l 248 817 l 387 993 l 245 993 l 195 886 q 161 817 189 876 z "},"":{"ha":800,"x_min":102,"x_max":697,"o":"m 697 0 q 690 -7 697 -7 l 581 -7 q 574 0 574 -7 l 574 64 q 401 -24 511 -24 q 236 54 302 -24 l 236 -276 q 229 -283 236 -283 l 109 -283 q 102 -276 102 -283 l 102 720 q 109 727 102 727 l 229 727 q 236 720 236 727 l 236 415 q 253 202 236 250 q 395 100 290 100 q 488 128 446 100 q 546 202 529 155 q 564 413 564 249 l 564 720 q 570 727 564 727 l 690 727 q 697 720 697 727 l 697 0 m 684 7 l 684 713 l 577 713 l 577 413 q 559 198 577 247 q 495 117 540 147 q 395 87 450 87 q 241 197 280 87 q 222 415 222 248 l 222 713 l 115 713 l 115 -269 l 222 -269 l 222 73 q 227 80 222 79 q 235 77 231 81 q 401 -10 303 -10 q 576 89 511 -10 q 583 93 579 94 q 588 85 588 92 l 588 7 l 684 7 z "},"":{"ha":746,"x_min":-6,"x_max":758,"o":"m 660 870 l 660 -276 q 653 -283 660 -283 l 538 -283 q 531 -276 531 -283 l 531 870 l 393 870 l 393 -276 q 387 -283 393 -283 l 275 -283 q 268 -276 268 -283 l 268 427 q 71 509 144 435 q -6 708 -6 585 q 87 930 -6 854 q 321 1001 173 1001 l 751 1001 q 758 994 758 1001 l 758 877 q 751 870 758 870 l 660 870 m 653 884 l 744 884 l 744 987 l 321 987 q 96 921 178 987 q 7 708 7 848 q 82 515 7 588 q 275 439 154 446 q 281 433 281 439 l 281 -269 l 380 -269 l 380 877 q 387 884 380 884 l 538 884 q 545 877 545 884 l 545 -269 l 646 -269 l 646 877 q 653 884 646 884 z "},"":{"ha":463,"x_min":330,"x_max":483,"o":"m 337 425 q 330 432 330 425 l 330 571 q 337 578 330 578 l 476 578 q 483 571 483 578 l 483 432 q 476 425 483 425 l 337 425 m 344 439 l 469 439 l 469 564 l 344 564 l 344 439 z "},"":{"ha":463,"x_min":65,"x_max":373,"o":"m 170 -292 q 71 -284 115 -292 q 66 -277 65 -283 l 73 -197 q 81 -191 74 -191 q 144 -194 120 -194 q 246 -150 246 -194 q 146 -111 246 -113 q 140 -104 140 -111 q 159 -39 143 -93 l 175 18 q 182 22 177 22 l 273 22 q 279 16 279 22 q 259 -52 277 5 q 373 -157 373 -68 q 302 -264 373 -227 q 170 -292 248 -292 m 359 -157 q 250 -64 359 -77 q 243 -55 243 -63 q 263 9 246 -46 l 186 9 l 155 -98 q 260 -150 260 -100 q 144 -208 260 -208 q 109 -206 155 -208 l 86 -205 l 80 -272 q 170 -279 119 -279 q 293 -254 241 -279 q 359 -157 359 -221 z "},"":{"ha":463,"x_min":66,"x_max":330,"o":"m 224 490 q 218 497 218 490 l 218 859 q 75 789 151 809 q 66 796 66 787 l 66 880 q 71 886 66 884 q 244 1010 174 920 q 250 1013 247 1013 l 323 1013 q 330 1006 330 1013 l 330 497 q 323 490 330 490 l 224 490 m 231 504 l 316 504 l 316 1000 l 253 1000 q 79 875 182 911 l 79 805 q 220 878 156 827 q 231 873 231 887 l 231 504 z "},"":{"ha":507,"x_min":24,"x_max":482,"o":"m 253 1018 q 425 941 363 1018 q 482 756 482 869 q 425 573 482 645 q 254 495 363 495 q 81 571 143 495 q 24 753 24 641 q 80 939 24 868 q 253 1018 142 1018 m 37 753 q 91 581 37 646 q 254 509 149 509 q 415 583 357 509 q 469 756 469 650 q 415 930 469 863 q 253 1004 357 1004 q 90 930 147 1004 q 37 753 37 863 m 253 914 q 138 756 138 914 q 253 598 138 598 q 368 760 368 598 q 253 914 368 914 m 382 760 q 253 585 382 585 q 124 756 124 585 q 253 928 124 928 q 382 760 382 928 z "},"":{"ha":772,"x_min":83,"x_max":684,"o":"m 465 45 q 460 42 463 43 l 360 42 q 354 52 348 42 l 528 358 l 353 664 q 359 674 347 674 l 460 674 q 465 671 464 673 l 673 374 q 682 354 684 358 l 465 45 m 668 358 l 456 661 l 371 661 l 543 361 q 543 355 545 358 l 372 56 l 456 56 l 668 358 m 203 45 q 197 42 200 43 l 95 42 q 89 52 83 42 l 266 358 l 89 664 q 95 674 83 674 l 197 674 q 203 671 201 673 l 408 374 q 416 354 418 358 l 203 45 m 402 358 l 194 661 l 106 661 l 280 361 q 281 358 281 359 q 280 355 281 356 l 106 56 l 194 56 l 402 358 z "},"":{"ha":1158,"x_min":66,"x_max":1145,"o":"m 1074 77 l 1074 -21 q 1067 -28 1074 -28 l 970 -28 q 963 -21 963 -28 l 963 77 l 710 77 q 703 83 703 77 l 703 167 q 705 171 704 170 l 979 492 q 985 495 983 494 l 1067 495 q 1074 488 1074 495 l 1074 163 l 1138 163 q 1145 157 1145 163 l 1145 83 q 1138 77 1145 77 l 1074 77 m 1131 90 l 1131 150 l 1067 150 q 1061 157 1061 150 l 1061 481 l 988 481 l 717 164 l 717 90 l 970 90 q 977 83 977 90 l 977 -14 l 1061 -14 l 1061 83 q 1067 90 1061 90 l 1131 90 m 963 317 l 829 163 l 963 163 l 963 317 m 963 338 q 977 335 977 353 l 977 157 q 970 150 977 150 l 814 150 q 808 161 798 150 l 963 338 m 283 -43 q 277 -45 280 -45 l 171 -45 q 167 -33 157 -45 l 913 1015 q 918 1018 916 1017 l 1024 1018 q 1029 1007 1037 1018 l 283 -43 m 184 -32 l 274 -32 l 1011 1004 l 922 1004 l 184 -32 m 224 490 q 218 497 218 490 l 218 859 q 75 789 151 809 q 66 796 66 787 l 66 880 q 71 886 66 884 q 244 1010 174 920 q 250 1013 247 1013 l 323 1013 q 330 1006 330 1013 l 330 497 q 323 490 330 490 l 224 490 m 316 504 l 316 1000 l 253 1000 q 79 875 182 911 l 79 805 q 220 878 156 827 q 231 873 231 887 l 231 504 l 316 504 z "},"":{"ha":1158,"x_min":66,"x_max":1141,"o":"m 711 -28 q 705 -20 704 -28 q 880 191 715 71 q 995 281 976 260 q 1018 334 1018 307 q 931 401 1018 401 q 868 386 888 401 q 835 329 848 370 q 827 324 833 323 l 725 334 q 719 343 717 335 q 933 495 758 495 q 1070 465 1017 495 q 1138 351 1138 428 q 1097 239 1138 291 q 957 121 1065 199 q 889 68 912 88 l 1134 68 q 1141 61 1141 68 l 1141 -21 q 1134 -28 1141 -28 l 711 -28 m 1127 -14 l 1127 54 l 872 54 q 863 58 863 54 q 867 66 863 61 q 949 132 891 90 q 1086 247 1057 210 q 1124 351 1124 296 q 933 481 1124 481 q 734 347 773 481 l 823 338 q 862 398 838 381 q 931 414 886 414 q 1031 334 1031 414 q 1004 272 1031 302 q 888 180 985 250 q 720 -14 734 68 l 1127 -14 m 267 -43 q 261 -45 264 -45 l 155 -45 q 151 -33 141 -45 l 896 1015 q 901 1018 899 1017 l 1008 1018 q 1013 1007 1021 1018 l 267 -43 m 168 -32 l 258 -32 l 995 1004 l 905 1004 l 168 -32 m 224 490 q 218 497 218 490 l 218 859 q 75 789 151 809 q 66 796 66 787 l 66 880 q 71 886 66 884 q 244 1010 174 920 q 250 1013 247 1013 l 323 1013 q 330 1006 330 1013 l 330 497 q 323 490 330 490 l 224 490 m 316 504 l 316 1000 l 253 1000 q 79 875 182 911 l 79 805 q 220 878 156 827 q 231 873 231 887 l 231 504 l 316 504 z "},"":{"ha":1158,"x_min":14,"x_max":1145,"o":"m 1074 77 l 1074 -21 q 1067 -28 1074 -28 l 969 -28 q 962 -21 962 -28 l 962 77 l 710 77 q 703 83 703 77 l 703 167 q 705 171 704 170 l 979 492 q 984 495 982 494 l 1067 495 q 1074 488 1074 495 l 1074 163 l 1138 163 q 1145 157 1145 163 l 1145 83 q 1138 77 1145 77 l 1074 77 m 976 -14 l 1061 -14 l 1061 83 q 1067 90 1061 90 l 1131 90 l 1131 150 l 1067 150 q 1061 157 1061 150 l 1061 481 l 987 481 l 717 164 l 717 90 l 969 90 q 976 83 976 90 l 976 -14 m 962 317 l 829 163 l 962 163 l 962 317 m 962 338 q 976 335 976 353 l 976 157 q 969 150 976 150 l 814 150 q 808 161 798 150 l 962 338 m 283 -43 q 277 -45 280 -45 l 171 -45 q 166 -33 157 -45 l 912 1015 q 918 1018 915 1017 l 1024 1018 q 1029 1007 1037 1018 l 283 -43 m 184 -32 l 274 -32 l 1011 1004 l 921 1004 l 184 -32 m 389 527 q 315 484 351 493 q 232 478 292 478 q 16 629 46 478 q 22 637 14 636 l 121 647 q 135 626 126 648 q 161 590 145 601 q 226 571 188 571 q 294 592 267 571 q 326 654 326 615 q 227 722 326 724 q 201 722 209 722 l 187 720 q 179 739 179 720 q 185 778 179 753 q 202 808 193 808 q 301 871 301 807 q 227 924 301 924 q 137 859 163 924 q 130 855 135 854 l 33 871 q 28 880 24 872 q 102 985 56 955 q 228 1013 146 1013 q 421 880 421 1013 q 343 772 421 804 q 445 642 445 738 q 389 527 445 575 m 380 537 q 425 591 415 568 q 431 642 431 607 q 319 764 431 736 q 313 771 313 766 q 319 778 313 776 q 408 880 408 803 q 228 1000 408 1000 q 114 975 154 1000 q 43 883 71 949 l 127 869 q 227 938 155 938 q 315 871 315 938 q 208 795 315 795 l 195 734 q 226 736 212 736 q 339 654 339 736 q 304 583 339 610 q 226 557 272 557 q 117 633 144 557 l 31 624 q 232 492 62 492 q 380 537 328 492 z "},"":{"ha":848,"x_min":100,"x_max":756,"o":"m 351 720 q 358 727 351 727 l 497 727 q 504 720 504 727 l 504 581 q 497 574 504 574 l 358 574 q 351 581 351 574 l 351 720 m 490 588 l 490 713 l 365 713 l 365 588 l 490 588 m 427 -298 q 201 -227 292 -298 q 100 -20 100 -150 q 146 126 100 59 q 252 237 170 161 q 344 340 328 307 q 365 475 363 379 q 372 482 365 482 l 489 482 q 496 475 496 482 l 496 441 q 456 272 496 339 q 338 144 427 222 q 271 77 288 101 q 239 -12 239 35 q 271 -108 239 -64 q 353 -172 303 -152 q 425 -184 385 -184 q 616 12 585 -184 q 633 18 617 18 q 686 10 650 18 q 724 8 699 9 q 755 -5 756 6 q 652 -221 738 -144 q 427 -298 567 -298 m 741 -10 l 685 -3 q 629 3 676 -3 q 425 -197 595 -197 q 286 -144 343 -197 q 226 -12 226 -91 q 258 83 226 39 q 329 155 278 111 q 444 277 415 231 q 483 441 483 342 q 482 469 483 450 l 378 469 q 355 332 376 373 q 262 228 336 295 q 158 121 181 155 q 114 -20 114 57 q 211 -217 114 -143 q 427 -284 299 -284 q 641 -213 559 -284 q 741 -10 722 -142 z "},"":{"ha":926,"x_min":-8,"x_max":935,"o":"m 779 -7 q 772 -3 774 -7 l 658 294 l 252 294 l 144 -2 q 138 -7 142 -7 l -2 -7 q -8 -1 -8 -7 q 8 45 -8 2 l 374 997 q 380 1001 375 1001 l 521 1001 q 595 833 524 999 q 768 419 648 709 l 935 3 q 928 -7 939 -7 l 779 -7 m 521 987 l 385 987 l 8 7 l 133 7 l 241 303 q 247 308 243 308 l 663 308 q 669 304 667 308 l 783 7 l 918 7 l 819 250 q 521 987 519 983 m 507 692 q 449 862 474 780 q 378 633 428 766 q 294 415 361 589 l 622 415 l 616 406 l 507 692 m 627 412 q 622 401 631 401 l 285 401 q 279 411 275 401 l 368 646 q 441 891 419 782 q 448 898 442 897 q 454 892 452 898 q 520 697 478 810 l 524 686 l 627 412 m 460 1048 q 455 1051 457 1049 l 315 1221 q 296 1247 296 1244 q 304 1252 296 1252 l 467 1252 q 473 1248 472 1251 l 565 1058 q 559 1048 570 1048 l 460 1048 m 548 1062 l 463 1238 l 318 1238 l 464 1062 l 548 1062 z "},"":{"ha":926,"x_min":-8,"x_max":935,"o":"m 779 -7 q 772 -3 774 -7 l 658 294 l 252 294 l 144 -2 q 138 -7 142 -7 l -2 -7 q -8 -1 -8 -7 q 8 45 -8 2 l 374 997 q 380 1001 375 1001 l 521 1001 q 595 833 524 999 q 768 419 648 709 l 935 3 q 928 -7 939 -7 l 779 -7 m 521 987 l 385 987 l 8 7 l 133 7 l 241 303 q 247 308 243 308 l 663 308 q 669 304 667 308 l 783 7 l 918 7 l 819 250 q 521 987 519 983 m 507 692 q 449 862 474 780 q 378 633 428 766 q 294 415 361 589 l 622 415 l 616 406 l 507 692 m 627 412 q 622 401 631 401 l 285 401 q 279 411 275 401 l 368 646 q 441 891 419 782 q 448 898 442 897 q 454 892 452 898 q 520 697 478 810 l 524 686 l 627 412 m 606 1219 l 473 1051 q 468 1048 471 1049 l 367 1048 q 360 1055 360 1048 q 370 1076 361 1059 l 447 1239 q 457 1252 453 1252 l 617 1252 q 625 1247 625 1252 q 606 1219 625 1244 m 378 1062 l 465 1062 l 603 1238 l 461 1238 l 411 1132 q 378 1062 406 1121 z "},"":{"ha":926,"x_min":-8,"x_max":935,"o":"m 779 -7 q 772 -3 774 -7 l 658 294 l 252 294 l 144 -2 q 138 -7 142 -7 l -2 -7 q -8 -1 -8 -7 q 8 45 -8 2 l 374 997 q 380 1001 375 1001 l 521 1001 q 595 833 524 999 q 768 419 648 709 l 935 3 q 928 -7 939 -7 l 779 -7 m 521 987 l 385 987 l 8 7 l 133 7 l 241 303 q 247 308 243 308 l 663 308 q 669 304 667 308 l 783 7 l 918 7 l 819 250 q 521 987 519 983 m 507 692 q 449 862 474 780 q 378 633 428 766 q 294 415 361 589 l 622 415 l 616 406 l 507 692 m 627 412 q 622 401 631 401 l 285 401 q 279 411 275 401 l 368 646 q 441 891 419 782 q 448 898 442 897 q 454 892 452 898 q 520 697 478 810 l 524 686 l 627 412 m 525 1048 q 519 1052 521 1049 l 450 1158 l 379 1051 q 374 1048 376 1049 l 234 1048 q 229 1059 220 1048 l 363 1234 q 380 1252 377 1252 l 511 1252 q 516 1249 514 1251 l 646 1088 q 671 1053 671 1057 q 663 1048 671 1048 l 525 1048 m 649 1062 l 507 1238 l 384 1238 l 248 1062 l 370 1062 l 445 1175 q 450 1179 448 1178 q 488 1124 454 1179 l 528 1062 l 649 1062 z "},"":{"ha":926,"x_min":-8,"x_max":935,"o":"m 779 -7 q 772 -3 774 -7 l 658 294 l 252 294 l 144 -2 q 138 -7 142 -7 l -2 -7 q -8 -1 -8 -7 q 8 45 -8 2 l 374 997 q 380 1001 375 1001 l 521 1001 q 595 833 524 999 q 768 419 648 709 l 935 3 q 928 -7 939 -7 l 779 -7 m 521 987 l 385 987 l 8 7 l 133 7 l 241 303 q 247 308 243 308 l 663 308 q 669 304 667 308 l 783 7 l 918 7 l 819 250 q 521 987 519 983 m 507 692 q 449 862 474 780 q 378 633 428 766 q 294 415 361 589 l 622 415 l 616 406 l 507 692 m 627 412 q 622 401 631 401 l 285 401 q 279 411 275 401 l 368 646 q 441 891 419 782 q 448 898 442 897 q 454 892 452 898 q 520 697 478 810 l 524 686 l 627 412 m 688 1149 q 557 1050 659 1050 q 458 1082 522 1050 q 378 1113 394 1113 q 334 1061 334 1113 l 334 1055 q 327 1048 334 1048 l 237 1048 q 232 1088 227 1048 q 279 1181 240 1145 q 374 1217 317 1217 q 503 1174 410 1217 q 553 1160 534 1160 q 595 1206 587 1160 l 595 1211 q 602 1219 597 1219 l 690 1219 q 698 1203 698 1219 q 688 1149 698 1181 m 608 1204 q 553 1146 599 1146 q 473 1173 528 1146 q 374 1203 412 1203 q 281 1165 317 1203 q 243 1070 243 1124 l 243 1062 l 320 1062 q 378 1126 321 1126 q 461 1095 397 1126 q 557 1064 524 1064 q 684 1205 677 1064 l 608 1204 z "},"":{"ha":926,"x_min":-8,"x_max":935,"o":"m 779 -7 q 772 -3 774 -7 l 658 294 l 252 294 l 144 -2 q 138 -7 142 -7 l -2 -7 q -8 -1 -8 -7 q 8 45 -8 2 l 374 997 q 380 1001 375 1001 l 521 1001 q 595 833 524 999 q 768 419 648 709 l 935 3 q 928 -7 939 -7 l 779 -7 m 521 987 l 385 987 l 8 7 l 133 7 l 241 303 q 247 308 243 308 l 663 308 q 669 304 667 308 l 783 7 l 918 7 l 819 250 q 521 987 519 983 m 507 692 q 449 862 474 780 q 378 633 428 766 q 294 415 361 589 l 622 415 l 616 406 l 507 692 m 627 412 q 622 401 631 401 l 285 401 q 279 411 275 401 l 368 646 q 441 891 419 782 q 448 898 442 897 q 454 892 452 898 q 520 697 478 810 l 524 686 l 627 412 m 510 1048 q 503 1055 503 1048 l 503 1194 q 510 1201 503 1201 l 637 1201 q 644 1194 644 1201 l 644 1055 q 637 1048 644 1048 l 510 1048 m 631 1187 l 517 1187 l 517 1062 l 631 1062 l 631 1187 m 257 1048 q 250 1055 250 1048 l 250 1194 q 257 1201 250 1201 l 385 1201 q 391 1194 391 1201 l 391 1055 q 385 1048 391 1048 l 257 1048 m 264 1187 l 264 1062 l 378 1063 l 378 1187 l 264 1187 z "},"":{"ha":926,"x_min":-8,"x_max":935,"o":"m 779 -7 q 772 -3 774 -7 l 658 294 l 252 294 l 144 -2 q 138 -7 142 -7 l -2 -7 q -8 -1 -8 -7 q 8 45 -8 2 l 374 997 q 380 1001 375 1001 l 521 1001 q 595 833 524 999 q 768 419 648 709 l 935 3 q 928 -7 939 -7 l 779 -7 m 521 987 l 385 987 l 8 7 l 133 7 l 241 303 q 247 308 243 308 l 663 308 q 669 304 667 308 l 783 7 l 918 7 l 819 250 q 521 987 519 983 m 507 692 q 449 862 474 780 q 378 633 428 766 q 294 415 361 589 l 622 415 l 616 406 l 507 692 m 627 412 q 622 401 631 401 l 285 401 q 279 411 275 401 l 368 646 q 441 891 419 782 q 448 898 442 897 q 454 892 452 898 q 520 697 478 810 l 524 686 l 627 412 m 449 952 q 356 991 393 952 q 319 1086 319 1029 l 319 1087 q 357 1177 319 1139 q 448 1214 395 1214 q 540 1176 503 1214 q 577 1083 577 1137 q 540 990 577 1029 q 449 952 503 952 m 564 1083 q 530 1166 564 1132 q 448 1200 497 1200 q 367 1167 401 1200 q 333 1087 333 1134 l 333 1086 q 366 1000 333 1035 q 449 966 399 966 q 530 1000 497 966 q 564 1083 564 1034 m 385 1085 q 403 1037 385 1057 q 450 1017 422 1017 q 496 1037 477 1017 q 515 1084 515 1057 q 496 1131 515 1112 q 450 1151 477 1151 q 404 1132 422 1151 q 385 1085 385 1112 m 450 1164 q 506 1141 483 1164 q 528 1084 528 1117 q 506 1027 528 1050 q 450 1003 483 1003 q 393 1027 416 1003 q 371 1085 371 1051 q 394 1141 371 1118 q 450 1164 417 1164 z "},"":{"ha":1389,"x_min":-10,"x_max":1320,"o":"m 1301 877 q 1295 870 1301 870 l 802 870 l 802 578 l 1259 578 q 1266 571 1266 578 l 1266 454 q 1259 448 1266 448 l 802 448 l 802 124 l 1313 124 q 1320 117 1320 124 l 1320 0 q 1313 -7 1320 -7 l 663 -7 q 656 0 656 -7 l 656 280 l 283 280 l 149 -3 q 143 -7 148 -6 l 1 -7 q -5 3 -10 -7 l 473 997 q 479 1001 474 1000 l 1295 1001 q 1301 994 1301 1001 l 1301 877 m 1288 987 l 483 987 l 12 7 l 139 7 l 273 290 q 279 294 274 293 l 663 294 q 669 287 669 294 l 669 7 l 1306 7 l 1306 111 l 795 111 q 788 117 788 111 l 788 454 q 795 461 788 461 l 1253 461 l 1253 564 l 795 564 q 788 571 788 564 l 788 877 q 795 884 788 884 l 1288 884 l 1288 987 m 568 870 l 345 410 l 656 410 l 656 870 l 568 870 m 564 884 l 663 884 q 669 877 669 884 l 669 404 q 663 397 669 397 l 334 397 q 328 406 323 397 l 558 880 q 564 884 559 883 z "},"":{"ha":1003,"x_min":62,"x_max":955,"o":"m 938 724 q 932 715 940 717 l 803 684 q 795 689 797 683 q 536 892 730 892 q 242 694 309 892 q 212 505 212 604 q 360 149 212 237 q 526 102 437 102 q 810 350 756 102 q 820 355 811 355 q 873 341 825 353 q 952 321 901 339 q 955 315 955 319 q 954 310 954 313 l 952 304 q 803 62 919 154 q 536 -24 695 -24 q 115 235 225 -24 q 62 505 62 360 l 62 505 q 149 824 62 694 q 420 1005 243 964 q 538 1018 476 1018 q 792 942 688 1018 q 938 724 896 866 m 940 311 l 822 340 q 721 158 794 223 q 526 89 644 89 q 349 139 426 89 q 235 281 271 190 q 198 505 198 377 q 347 854 198 758 q 536 905 426 905 q 806 699 738 905 l 922 726 q 781 934 882 861 q 538 1004 681 1004 q 302 946 408 1004 q 134 772 192 885 q 76 505 76 659 l 76 505 q 123 253 76 368 q 279 54 176 121 q 536 -10 378 -10 q 796 73 690 -10 q 939 308 901 157 l 940 311 m 444 -292 q 345 -284 389 -292 q 340 -277 339 -283 l 347 -197 q 355 -191 348 -191 q 418 -194 394 -194 q 520 -150 520 -194 q 420 -111 520 -113 q 414 -104 414 -111 q 433 -39 417 -93 l 449 18 q 456 22 451 22 l 547 22 q 553 16 553 22 q 533 -52 551 5 q 647 -157 647 -68 q 576 -264 647 -227 q 444 -292 522 -292 m 633 -157 q 524 -64 633 -77 q 517 -55 517 -63 q 537 9 520 -46 l 460 9 l 429 -98 q 534 -150 534 -100 q 418 -208 534 -208 q 383 -206 429 -208 l 360 -205 l 354 -272 q 444 -279 393 -279 q 567 -254 515 -279 q 633 -157 633 -221 z "},"":{"ha":926,"x_min":103,"x_max":859,"o":"m 248 449 l 248 124 l 852 124 q 859 117 859 124 l 859 0 q 852 -7 859 -7 l 110 -7 q 103 0 103 -7 l 103 994 q 110 1001 103 1001 l 829 1001 q 836 994 836 1001 l 836 877 q 829 870 836 870 l 248 870 l 248 579 l 791 579 q 798 572 798 579 l 798 456 q 791 449 798 449 l 248 449 m 822 987 l 117 987 l 117 7 l 845 7 l 845 111 l 241 111 q 235 117 235 111 l 235 456 q 241 463 235 463 l 785 463 l 785 566 l 241 566 q 235 572 235 566 l 235 877 q 241 884 235 884 l 822 884 l 822 987 m 478 1048 q 473 1051 475 1049 l 332 1221 q 314 1247 314 1244 q 321 1252 314 1252 l 485 1252 q 491 1248 490 1251 l 583 1058 q 576 1048 587 1048 l 478 1048 m 566 1062 l 481 1238 l 336 1238 l 481 1062 l 566 1062 z "},"":{"ha":926,"x_min":103,"x_max":859,"o":"m 248 449 l 248 124 l 852 124 q 859 117 859 124 l 859 0 q 852 -7 859 -7 l 110 -7 q 103 0 103 -7 l 103 994 q 110 1001 103 1001 l 829 1001 q 836 994 836 1001 l 836 877 q 829 870 836 870 l 248 870 l 248 579 l 791 579 q 798 572 798 579 l 798 456 q 791 449 798 449 l 248 449 m 822 987 l 117 987 l 117 7 l 845 7 l 845 111 l 241 111 q 235 117 235 111 l 235 456 q 241 463 235 463 l 785 463 l 785 566 l 241 566 q 235 572 235 566 l 235 877 q 241 884 235 884 l 822 884 l 822 987 m 620 1219 l 488 1051 q 482 1048 485 1049 l 381 1048 q 374 1055 374 1048 q 384 1076 376 1059 l 461 1239 q 471 1252 467 1252 l 631 1252 q 639 1247 639 1252 q 620 1219 639 1244 m 392 1062 l 479 1062 l 617 1238 l 475 1238 l 425 1132 q 392 1062 420 1121 z "},"":{"ha":926,"x_min":103,"x_max":859,"o":"m 248 449 l 248 124 l 852 124 q 859 117 859 124 l 859 0 q 852 -7 859 -7 l 110 -7 q 103 0 103 -7 l 103 994 q 110 1001 103 1001 l 829 1001 q 836 994 836 1001 l 836 877 q 829 870 836 870 l 248 870 l 248 579 l 791 579 q 798 572 798 579 l 798 456 q 791 449 798 449 l 248 449 m 822 987 l 117 987 l 117 7 l 845 7 l 845 111 l 241 111 q 235 117 235 111 l 235 456 q 241 463 235 463 l 785 463 l 785 566 l 241 566 q 235 572 235 566 l 235 877 q 241 884 235 884 l 822 884 l 822 987 m 554 1048 q 549 1052 550 1049 l 479 1158 l 408 1051 q 403 1048 406 1049 l 263 1048 q 258 1059 250 1048 l 393 1234 q 410 1252 406 1252 l 540 1252 q 545 1249 543 1251 l 675 1088 q 700 1053 700 1057 q 692 1048 700 1048 l 554 1048 m 678 1062 l 536 1238 l 413 1238 l 277 1062 l 399 1062 l 474 1175 q 479 1179 477 1178 q 517 1124 483 1179 l 557 1062 l 678 1062 z "},"":{"ha":926,"x_min":103,"x_max":859,"o":"m 248 449 l 248 124 l 852 124 q 859 117 859 124 l 859 0 q 852 -7 859 -7 l 110 -7 q 103 0 103 -7 l 103 994 q 110 1001 103 1001 l 829 1001 q 836 994 836 1001 l 836 877 q 829 870 836 870 l 248 870 l 248 579 l 791 579 q 798 572 798 579 l 798 456 q 791 449 798 449 l 248 449 m 822 987 l 117 987 l 117 7 l 845 7 l 845 111 l 241 111 q 235 117 235 111 l 235 456 q 241 463 235 463 l 785 463 l 785 566 l 241 566 q 235 572 235 566 l 235 877 q 241 884 235 884 l 822 884 l 822 987 m 541 1048 q 534 1055 534 1048 l 534 1194 q 541 1201 534 1201 l 669 1201 q 675 1194 675 1201 l 675 1055 q 669 1048 675 1048 l 541 1048 m 662 1187 l 548 1187 l 548 1062 l 662 1062 l 662 1187 m 288 1048 q 281 1055 281 1048 l 281 1194 q 288 1201 281 1201 l 416 1201 q 422 1194 422 1201 l 422 1055 q 416 1048 422 1048 l 288 1048 m 295 1187 l 295 1062 l 409 1063 l 409 1187 l 295 1187 z "},"":{"ha":386,"x_min":29,"x_max":298,"o":"m 261 1001 q 268 994 268 1001 l 268 0 q 261 -7 268 -7 l 130 -7 q 123 0 123 -7 l 123 994 q 130 1001 123 1001 l 261 1001 m 254 987 l 130 987 l 136 994 l 136 7 l 254 7 l 254 987 m 193 1048 q 188 1051 190 1049 l 47 1221 q 29 1247 29 1244 q 37 1252 29 1252 l 200 1252 q 206 1248 205 1251 l 298 1058 q 292 1048 302 1048 l 193 1048 m 281 1062 l 196 1238 l 51 1238 l 197 1062 l 281 1062 z "},"":{"ha":386,"x_min":89,"x_max":353,"o":"m 261 1001 q 268 994 268 1001 l 268 0 q 261 -7 268 -7 l 130 -7 q 123 0 123 -7 l 123 994 q 130 1001 123 1001 l 261 1001 m 254 987 l 130 987 l 136 994 l 136 7 l 254 7 l 254 987 m 334 1219 l 202 1051 q 197 1048 199 1049 l 96 1048 q 89 1055 89 1048 q 98 1076 90 1059 l 176 1239 q 186 1252 182 1252 l 346 1252 q 353 1247 353 1252 q 334 1219 353 1244 m 106 1062 l 193 1062 l 332 1238 l 190 1238 l 140 1132 q 106 1062 134 1121 z "},"":{"ha":386,"x_min":-27,"x_max":415,"o":"m 261 1001 q 268 994 268 1001 l 268 0 q 261 -7 268 -7 l 130 -7 q 123 0 123 -7 l 123 994 q 130 1001 123 1001 l 261 1001 m 254 987 l 130 987 l 136 994 l 136 7 l 254 7 l 254 987 m 269 1048 q 264 1052 265 1049 l 195 1158 l 123 1051 q 118 1048 121 1049 l -22 1048 q -27 1059 -35 1048 l 108 1234 q 125 1252 121 1252 l 255 1252 q 260 1249 258 1251 l 390 1088 q 415 1053 415 1057 q 408 1048 415 1048 l 269 1048 m 393 1062 l 252 1238 l 128 1238 l -8 1062 l 115 1062 l 189 1175 q 194 1179 192 1178 q 233 1124 198 1179 l 273 1062 l 393 1062 z "},"":{"ha":386,"x_min":-4,"x_max":390,"o":"m 261 1001 q 268 994 268 1001 l 268 0 q 261 -7 268 -7 l 130 -7 q 123 0 123 -7 l 123 994 q 130 1001 123 1001 l 261 1001 m 254 987 l 130 987 l 136 994 l 136 7 l 254 7 l 254 987 m 256 1048 q 249 1055 249 1048 l 249 1194 q 256 1201 249 1201 l 383 1201 q 390 1194 390 1201 l 390 1055 q 383 1048 390 1048 l 256 1048 m 376 1187 l 262 1187 l 262 1062 l 376 1062 l 376 1187 m 3 1048 q -4 1055 -4 1048 l -4 1194 q 3 1201 -4 1201 l 130 1201 q 137 1194 137 1201 l 137 1055 q 130 1048 137 1048 l 3 1048 m 9 1187 l 9 1062 l 123 1063 l 123 1187 l 9 1187 z "},"":{"ha":1003,"x_min":-9,"x_max":936,"o":"m 628 987 q 867 804 787 950 q 936 503 936 680 q 887 238 936 349 q 612 5 805 51 q 466 -7 564 -7 l 107 -7 q 100 0 100 -7 l 100 446 l -2 446 q -9 452 -9 446 l -9 542 q -2 549 -9 549 l 100 549 l 100 994 q 107 1001 100 1001 l 450 1001 q 628 987 566 1001 m 625 973 q 450 987 564 987 l 114 987 l 114 542 q 107 535 114 535 l 5 535 l 5 459 l 107 459 q 114 452 114 459 l 114 7 l 466 7 q 762 87 652 7 q 887 276 844 149 q 922 503 922 382 q 857 795 922 675 q 625 973 779 938 m 245 870 l 245 549 l 513 549 q 519 542 519 549 l 519 452 q 513 446 519 446 l 245 446 l 245 124 l 451 124 q 644 159 578 124 q 787 504 787 236 q 694 798 787 705 q 580 860 648 844 q 448 870 535 870 l 245 870 m 239 884 l 448 884 q 585 873 539 884 q 704 807 654 857 q 800 504 800 711 q 699 182 800 283 q 451 111 627 111 l 239 111 q 232 117 232 111 l 232 452 q 239 459 232 459 l 506 459 l 506 535 l 239 535 q 232 542 232 535 l 232 877 q 239 884 232 884 z "},"":{"ha":1003,"x_min":99,"x_max":896,"o":"m 239 759 l 239 0 q 232 -7 239 -7 l 106 -7 q 99 0 99 -7 l 99 994 q 106 1001 99 1001 l 241 1001 q 246 998 245 1000 l 756 236 l 756 994 q 763 1001 756 1001 l 889 1001 q 896 994 896 1001 l 896 0 q 889 -7 896 -7 l 754 -7 q 749 -4 750 -6 l 239 759 m 113 987 l 113 7 l 225 7 l 225 781 q 230 789 225 787 q 237 785 234 790 l 758 7 l 882 7 l 882 987 l 770 987 l 770 214 q 765 206 770 208 q 758 210 761 205 l 237 987 l 113 987 m 743 1149 q 612 1050 714 1050 q 513 1082 576 1050 q 433 1113 449 1113 q 389 1061 389 1113 l 389 1055 q 382 1048 389 1048 l 292 1048 q 287 1088 281 1048 q 334 1181 295 1145 q 429 1217 372 1217 q 558 1174 465 1217 q 608 1160 589 1160 q 650 1206 642 1160 l 650 1211 q 657 1219 652 1219 l 745 1219 q 753 1203 753 1219 q 743 1149 753 1181 m 663 1204 q 608 1146 654 1146 q 528 1173 583 1146 q 429 1203 467 1203 q 336 1165 372 1203 q 298 1070 298 1124 l 298 1062 l 375 1062 q 433 1126 376 1126 q 516 1095 452 1126 q 612 1064 579 1064 q 739 1205 732 1064 l 663 1204 z "},"":{"ha":1080,"x_min":60,"x_max":1025,"o":"m 795 952 q 1025 496 1025 815 q 968 233 1025 350 q 787 39 906 104 q 543 -24 673 -24 q 191 123 327 -24 q 60 484 60 267 l 60 486 q 184 864 60 719 q 543 1019 315 1019 q 795 952 683 1019 m 788 940 q 543 1005 678 1005 q 256 914 376 1005 q 95 663 136 823 q 74 486 74 581 l 74 484 q 201 133 74 272 q 543 -10 332 -10 q 782 51 675 -10 q 952 230 893 115 q 1011 496 1011 346 q 788 940 1011 808 m 309 798 q 222 661 240 733 q 210 482 210 612 q 294 216 210 321 q 542 102 385 102 q 795 221 705 102 q 876 496 876 328 q 718 843 876 743 q 545 892 640 892 l 544 892 q 309 798 407 892 m 299 808 q 425 893 370 875 q 544 905 460 905 l 545 905 q 726 854 646 905 q 848 711 806 803 q 889 496 889 619 q 804 211 889 321 q 542 89 711 89 q 337 155 425 89 q 216 333 250 220 q 196 482 196 400 q 299 808 196 709 m 523 1048 q 517 1051 519 1049 l 377 1221 q 359 1247 359 1244 q 366 1252 359 1252 l 530 1252 q 536 1248 534 1251 l 627 1058 q 621 1048 632 1048 l 523 1048 m 610 1062 l 526 1238 l 380 1238 l 526 1062 l 610 1062 z "},"":{"ha":1080,"x_min":60,"x_max":1025,"o":"m 795 952 q 1025 496 1025 815 q 968 233 1025 350 q 787 39 906 104 q 543 -24 673 -24 q 191 123 327 -24 q 60 484 60 267 l 60 486 q 184 864 60 719 q 543 1019 315 1019 q 795 952 683 1019 m 788 940 q 543 1005 678 1005 q 256 914 376 1005 q 95 663 136 823 q 74 486 74 581 l 74 484 q 201 133 74 272 q 543 -10 332 -10 q 782 51 675 -10 q 952 230 893 115 q 1011 496 1011 346 q 788 940 1011 808 m 309 798 q 222 661 240 733 q 210 482 210 612 q 294 216 210 321 q 542 102 385 102 q 795 221 705 102 q 876 496 876 328 q 718 843 876 743 q 545 892 640 892 l 544 892 q 309 798 407 892 m 299 808 q 425 893 370 875 q 544 905 460 905 l 545 905 q 726 854 646 905 q 848 711 806 803 q 889 496 889 619 q 804 211 889 321 q 542 89 711 89 q 337 155 425 89 q 216 333 250 220 q 196 482 196 400 q 299 808 196 709 m 698 1219 l 566 1051 q 560 1048 563 1049 l 459 1048 q 452 1055 452 1048 q 462 1076 454 1059 l 539 1239 q 549 1252 545 1252 l 709 1252 q 717 1247 717 1252 q 698 1219 717 1244 m 470 1062 l 557 1062 l 695 1238 l 553 1238 l 503 1132 q 470 1062 498 1121 z "},"":{"ha":1080,"x_min":60,"x_max":1025,"o":"m 795 952 q 1025 496 1025 815 q 968 233 1025 350 q 787 39 906 104 q 543 -24 673 -24 q 191 123 327 -24 q 60 484 60 267 l 60 486 q 184 864 60 719 q 543 1019 315 1019 q 795 952 683 1019 m 788 940 q 543 1005 678 1005 q 256 914 376 1005 q 95 663 136 823 q 74 486 74 581 l 74 484 q 201 133 74 272 q 543 -10 332 -10 q 782 51 675 -10 q 952 230 893 115 q 1011 496 1011 346 q 788 940 1011 808 m 309 798 q 222 661 240 733 q 210 482 210 612 q 294 216 210 321 q 542 102 385 102 q 795 221 705 102 q 876 496 876 328 q 718 843 876 743 q 545 892 640 892 l 544 892 q 309 798 407 892 m 299 808 q 425 893 370 875 q 544 905 460 905 l 545 905 q 726 854 646 905 q 848 711 806 803 q 889 496 889 619 q 804 211 889 321 q 542 89 711 89 q 337 155 425 89 q 216 333 250 220 q 196 482 196 400 q 299 808 196 709 m 616 1048 q 610 1052 612 1049 l 541 1158 l 470 1051 q 465 1048 467 1049 l 325 1048 q 319 1059 311 1048 l 454 1234 q 471 1252 468 1252 l 602 1252 q 607 1249 605 1251 l 736 1088 q 762 1053 762 1057 q 754 1048 762 1048 l 616 1048 m 740 1062 l 598 1238 l 475 1238 l 338 1062 l 461 1062 l 536 1175 q 541 1179 538 1178 q 579 1124 545 1179 l 619 1062 l 740 1062 z "},"":{"ha":1080,"x_min":60,"x_max":1025,"o":"m 795 952 q 1025 496 1025 815 q 968 233 1025 350 q 787 39 906 104 q 543 -24 673 -24 q 191 123 327 -24 q 60 484 60 267 l 60 486 q 184 864 60 719 q 543 1019 315 1019 q 795 952 683 1019 m 788 940 q 543 1005 678 1005 q 256 914 376 1005 q 95 663 136 823 q 74 486 74 581 l 74 484 q 201 133 74 272 q 543 -10 332 -10 q 782 51 675 -10 q 952 230 893 115 q 1011 496 1011 346 q 788 940 1011 808 m 309 798 q 222 661 240 733 q 210 482 210 612 q 294 216 210 321 q 542 102 385 102 q 795 221 705 102 q 876 496 876 328 q 718 843 876 743 q 545 892 640 892 l 544 892 q 309 798 407 892 m 299 808 q 425 893 370 875 q 544 905 460 905 l 545 905 q 726 854 646 905 q 848 711 806 803 q 889 496 889 619 q 804 211 889 321 q 542 89 711 89 q 337 155 425 89 q 216 333 250 220 q 196 482 196 400 q 299 808 196 709 m 768 1149 q 637 1050 739 1050 q 537 1082 601 1050 q 458 1113 473 1113 q 413 1061 413 1113 l 413 1055 q 406 1048 413 1048 l 316 1048 q 311 1088 306 1048 q 358 1181 319 1145 q 454 1217 397 1217 q 583 1174 490 1217 q 632 1160 613 1160 q 674 1206 667 1160 l 675 1211 q 682 1219 676 1219 l 770 1219 q 777 1203 777 1219 q 768 1149 777 1181 m 687 1204 q 632 1146 678 1146 q 553 1173 608 1146 q 454 1203 492 1203 q 361 1165 396 1203 q 323 1070 323 1124 l 323 1062 l 399 1062 q 458 1126 401 1126 q 540 1095 477 1126 q 637 1064 604 1064 q 763 1205 756 1064 l 687 1204 z "},"":{"ha":1080,"x_min":60,"x_max":1025,"o":"m 795 952 q 1025 496 1025 815 q 968 233 1025 350 q 787 39 906 104 q 543 -24 673 -24 q 191 123 327 -24 q 60 484 60 267 l 60 486 q 184 864 60 719 q 543 1019 315 1019 q 795 952 683 1019 m 788 940 q 543 1005 678 1005 q 256 914 376 1005 q 95 663 136 823 q 74 486 74 581 l 74 484 q 201 133 74 272 q 543 -10 332 -10 q 782 51 675 -10 q 952 230 893 115 q 1011 496 1011 346 q 788 940 1011 808 m 309 798 q 222 661 240 733 q 210 482 210 612 q 294 216 210 321 q 542 102 385 102 q 795 221 705 102 q 876 496 876 328 q 718 843 876 743 q 545 892 640 892 l 544 892 q 309 798 407 892 m 299 808 q 425 893 370 875 q 544 905 460 905 l 545 905 q 726 854 646 905 q 848 711 806 803 q 889 496 889 619 q 804 211 889 321 q 542 89 711 89 q 337 155 425 89 q 216 333 250 220 q 196 482 196 400 q 299 808 196 709 m 603 1048 q 596 1055 596 1048 l 596 1194 q 603 1201 596 1201 l 730 1201 q 737 1194 737 1201 l 737 1055 q 730 1048 737 1048 l 603 1048 m 724 1187 l 610 1187 l 610 1062 l 724 1062 l 724 1187 m 350 1048 q 343 1055 343 1048 l 343 1194 q 350 1201 343 1201 l 477 1201 q 484 1194 484 1201 l 484 1055 q 477 1048 484 1048 l 350 1048 m 357 1187 l 357 1062 l 471 1063 l 471 1187 l 357 1187 z "},"":{"ha":811,"x_min":103,"x_max":707,"o":"m 144 233 q 103 278 103 274 q 149 327 110 288 l 313 491 l 122 682 q 103 705 103 701 q 105 709 103 707 l 148 751 q 193 793 189 793 q 242 747 203 786 l 406 583 l 589 766 q 619 793 615 793 q 662 751 625 788 q 705 704 705 707 q 662 657 705 701 l 497 492 l 661 328 q 707 279 705 284 q 665 234 707 275 q 618 190 621 190 q 571 233 614 190 l 405 399 l 239 233 q 191 189 195 189 q 144 233 188 189 m 191 205 l 400 414 q 405 416 402 416 q 410 414 408 415 l 618 205 l 691 279 l 483 487 q 483 496 478 492 l 690 704 l 618 777 l 410 569 q 406 567 408 567 q 401 569 402 568 l 193 777 l 119 704 l 328 496 q 330 491 330 494 q 328 486 329 488 l 119 277 l 191 205 z "},"":{"ha":1080,"x_min":50,"x_max":1036,"o":"m 1004 937 l 918 839 q 1022 496 1022 682 q 928 170 1022 304 q 647 -13 829 26 q 543 -24 596 -24 q 238 79 378 -24 l 128 -45 q 124 -47 127 -46 q 85 -17 120 -47 q 50 17 50 14 q 82 56 54 25 l 167 151 q 83 314 106 244 q 58 495 58 391 q 184 867 58 724 q 542 1018 316 1018 q 847 913 706 1018 l 957 1036 q 961 1038 958 1037 q 1000 1007 965 1038 q 1036 974 1036 977 q 1004 937 1032 968 m 1019 973 l 962 1021 l 852 899 q 844 898 848 895 q 542 1004 704 1004 q 193 857 322 1004 q 71 495 71 718 q 97 315 71 392 q 181 154 120 248 q 180 146 184 150 l 66 18 l 123 -31 l 233 92 q 241 93 237 96 q 383 14 318 37 q 543 -10 452 -10 q 785 55 677 -10 q 954 240 897 121 q 1008 496 1008 355 q 985 675 1008 598 q 904 836 962 749 q 905 844 901 840 l 1019 973 m 543 892 q 286 775 374 892 q 207 497 207 671 q 262 258 207 366 l 756 811 q 543 892 652 892 m 657 886 q 721 854 683 877 q 773 811 773 824 q 771 807 772 809 l 265 241 q 254 242 259 233 q 193 497 193 359 q 276 785 193 676 q 543 905 369 905 q 657 886 607 905 m 821 730 l 328 178 q 539 102 423 102 q 791 220 702 102 q 873 493 873 326 q 821 730 873 627 m 886 493 q 801 210 886 320 q 539 89 707 89 q 314 172 415 89 q 313 182 309 177 l 817 747 q 828 745 823 753 q 886 493 886 636 z "},"":{"ha":1003,"x_min":102,"x_max":898,"o":"m 898 411 q 849 148 898 239 q 503 -24 758 -24 q 141 168 221 -24 q 102 420 102 261 l 102 994 q 109 1001 102 1001 l 241 1001 q 248 994 248 1001 l 248 420 q 271 233 248 293 q 351 141 315 161 q 491 109 408 109 q 692 172 633 109 q 753 420 753 255 l 753 994 q 760 1001 753 1001 l 891 1001 q 898 994 898 1001 l 898 411 m 766 987 l 766 420 q 703 163 766 251 q 491 95 639 95 q 259 226 324 95 l 258 227 q 234 420 234 276 l 234 987 l 116 987 l 116 420 q 165 149 116 243 q 503 -10 250 -10 q 837 154 749 -10 q 884 412 884 243 l 884 987 l 766 987 m 481 1048 q 475 1051 477 1049 l 335 1221 q 317 1247 317 1244 q 324 1252 317 1252 l 488 1252 q 494 1248 492 1251 l 585 1058 q 579 1048 590 1048 l 481 1048 m 568 1062 l 484 1238 l 338 1238 l 484 1062 l 568 1062 z "},"":{"ha":1003,"x_min":102,"x_max":898,"o":"m 898 411 q 849 148 898 239 q 503 -24 758 -24 q 141 168 221 -24 q 102 420 102 261 l 102 994 q 109 1001 102 1001 l 241 1001 q 248 994 248 1001 l 248 420 q 271 233 248 293 q 351 141 315 161 q 491 109 408 109 q 692 172 633 109 q 753 420 753 255 l 753 994 q 760 1001 753 1001 l 891 1001 q 898 994 898 1001 l 898 411 m 766 987 l 766 420 q 703 163 766 251 q 491 95 639 95 q 259 226 324 95 l 258 227 q 234 420 234 276 l 234 987 l 116 987 l 116 420 q 165 149 116 243 q 503 -10 250 -10 q 837 154 749 -10 q 884 412 884 243 l 884 987 l 766 987 m 655 1219 l 523 1051 q 517 1048 520 1049 l 416 1048 q 410 1055 410 1048 q 419 1076 411 1059 l 496 1239 q 507 1252 503 1252 l 667 1252 q 674 1247 674 1252 q 655 1219 674 1244 m 427 1062 l 514 1062 l 652 1238 l 511 1238 l 460 1132 q 427 1062 455 1121 z "},"":{"ha":1003,"x_min":102,"x_max":898,"o":"m 898 411 q 849 148 898 239 q 503 -24 758 -24 q 141 168 221 -24 q 102 420 102 261 l 102 994 q 109 1001 102 1001 l 241 1001 q 248 994 248 1001 l 248 420 q 271 233 248 293 q 351 141 315 161 q 491 109 408 109 q 692 172 633 109 q 753 420 753 255 l 753 994 q 760 1001 753 1001 l 891 1001 q 898 994 898 1001 l 898 411 m 766 987 l 766 420 q 703 163 766 251 q 491 95 639 95 q 259 226 324 95 l 258 227 q 234 420 234 276 l 234 987 l 116 987 l 116 420 q 165 149 116 243 q 503 -10 250 -10 q 837 154 749 -10 q 884 412 884 243 l 884 987 l 766 987 m 574 1048 q 568 1052 570 1049 l 499 1158 l 428 1051 q 422 1048 425 1049 l 283 1048 q 277 1059 269 1048 l 412 1234 q 429 1252 426 1252 l 559 1252 q 565 1249 563 1251 l 694 1088 q 720 1053 720 1057 q 712 1048 720 1048 l 574 1048 m 698 1062 l 556 1238 l 433 1238 l 296 1062 l 419 1062 l 494 1175 q 498 1179 496 1178 q 537 1124 503 1179 l 577 1062 l 698 1062 z "},"":{"ha":1003,"x_min":102,"x_max":898,"o":"m 898 411 q 849 148 898 239 q 503 -24 758 -24 q 141 168 221 -24 q 102 420 102 261 l 102 994 q 109 1001 102 1001 l 241 1001 q 248 994 248 1001 l 248 420 q 271 233 248 293 q 351 141 315 161 q 491 109 408 109 q 692 172 633 109 q 753 420 753 255 l 753 994 q 760 1001 753 1001 l 891 1001 q 898 994 898 1001 l 898 411 m 766 987 l 766 420 q 703 163 766 251 q 491 95 639 95 q 259 226 324 95 l 258 227 q 234 420 234 276 l 234 987 l 116 987 l 116 420 q 165 149 116 243 q 503 -10 250 -10 q 837 154 749 -10 q 884 412 884 243 l 884 987 l 766 987 m 561 1048 q 554 1055 554 1048 l 554 1194 q 561 1201 554 1201 l 688 1201 q 695 1194 695 1201 l 695 1055 q 688 1048 695 1048 l 561 1048 m 682 1187 l 568 1187 l 568 1062 l 682 1062 l 682 1187 m 308 1048 q 301 1055 301 1048 l 301 1194 q 308 1201 301 1201 l 435 1201 q 442 1194 442 1201 l 442 1055 q 435 1048 442 1048 l 308 1048 m 315 1187 l 315 1062 l 429 1063 l 429 1187 l 315 1187 z "},"":{"ha":926,"x_min":-1,"x_max":922,"o":"m 461 540 q 722 946 521 642 l 757 998 q 762 1001 760 1000 l 916 1001 q 922 996 922 1001 q 911 976 922 993 l 526 419 l 526 0 q 519 -7 526 -7 l 387 -7 q 380 0 380 -7 l 380 419 l -1 990 q 4 1001 -9 1001 l 164 1001 q 190 967 168 1001 l 330 755 q 461 540 404 642 m 903 987 l 766 987 l 734 939 q 467 523 659 824 q 455 523 461 513 q 206 918 406 610 l 161 987 l 17 987 l 393 425 q 394 421 394 422 l 394 7 l 512 7 l 512 421 q 513 425 513 424 l 903 987 m 615 1219 l 483 1051 q 477 1048 480 1049 l 376 1048 q 370 1055 370 1048 q 379 1076 371 1059 l 456 1239 q 467 1252 463 1252 l 627 1252 q 634 1247 634 1252 q 615 1219 634 1244 m 387 1062 l 474 1062 l 612 1238 l 471 1238 l 420 1132 q 387 1062 415 1121 z "},"":{"ha":926,"x_min":100,"x_max":873,"o":"m 790 286 q 664 207 733 223 q 494 195 618 195 l 245 195 l 245 0 q 239 -7 245 -7 l 107 -7 q 100 0 100 -7 l 100 994 q 107 1001 100 1001 l 239 1001 q 245 994 245 1001 l 245 799 l 482 799 q 690 776 620 799 q 842 642 794 741 q 873 504 873 579 q 790 286 873 375 m 781 295 q 850 401 835 353 q 859 504 859 432 q 753 730 859 656 q 482 785 672 785 l 239 785 q 232 792 232 785 l 232 987 l 114 987 l 114 7 l 232 7 l 232 202 q 239 209 232 209 l 494 209 q 781 295 702 209 m 614 659 q 493 668 581 668 l 245 668 l 245 326 l 496 326 q 724 500 724 326 q 614 659 724 628 m 704 611 q 721 587 704 611 q 737 500 737 564 q 496 313 737 313 l 239 313 q 232 319 232 313 l 232 675 q 239 682 232 682 l 493 682 q 610 673 575 682 q 704 611 671 659 z "},"":{"ha":848,"x_min":97,"x_max":812,"o":"m 557 -24 q 406 21 473 -24 q 305 144 339 66 q 309 153 302 150 l 414 201 q 422 199 420 204 q 555 90 481 90 q 638 122 603 90 q 673 201 673 154 q 653 262 673 237 q 578 321 640 279 q 469 404 497 376 q 410 522 410 462 q 465 667 410 570 q 519 804 519 764 q 477 880 519 852 q 391 904 440 904 q 277 862 321 904 q 233 672 233 766 l 233 0 q 226 -7 233 -7 l 104 -7 q 97 0 97 -7 l 97 677 q 120 850 97 787 q 229 978 151 934 q 393 1018 299 1018 q 568 969 494 1018 q 652 817 652 913 q 595 651 652 749 q 549 541 549 569 q 642 437 549 498 q 760 347 728 381 q 812 212 812 288 q 736 40 812 107 q 557 -24 663 -24 m 798 212 q 756 331 798 280 q 677 397 732 360 q 592 457 648 417 q 535 541 535 498 q 583 657 535 573 q 638 817 638 753 q 557 959 638 906 q 393 1004 488 1004 q 245 971 311 1004 q 140 865 172 935 q 111 677 111 799 l 111 7 l 219 7 l 219 672 q 266 869 219 773 l 267 871 q 391 918 315 918 q 487 889 446 918 q 533 804 533 857 q 478 663 533 760 q 423 522 423 567 q 494 400 423 460 q 664 271 566 353 q 687 201 687 242 q 648 113 687 149 q 555 77 608 77 q 414 186 474 77 l 320 143 q 416 31 353 72 q 557 -10 479 -10 q 726 50 658 -10 q 798 212 798 113 z "},"":{"ha":772,"x_min":43,"x_max":720,"o":"m 387 803 q 381 806 383 804 l 241 976 q 222 1002 222 998 q 230 1006 222 1006 l 393 1006 q 399 1002 398 1005 l 491 812 q 485 803 496 803 l 387 803 m 474 817 l 389 993 l 244 993 l 390 817 l 474 817 m 586 -7 q 556 76 568 -7 q 296 -23 436 -23 q 66 91 127 -23 q 43 190 43 134 q 134 362 43 301 q 166 380 142 367 q 333 422 223 409 q 545 462 476 439 q 545 489 545 483 q 513 589 545 560 q 378 629 469 629 q 259 602 298 629 q 197 497 216 572 q 190 492 196 491 l 110 503 q 64 516 63 509 q 231 718 97 669 q 396 743 302 743 q 549 721 463 736 q 663 620 635 688 q 682 465 682 574 l 682 149 q 720 3 688 60 q 713 -7 725 -7 l 586 -7 m 702 7 q 676 85 684 44 q 668 302 668 132 l 668 465 q 652 612 668 570 q 543 709 627 677 q 396 730 493 728 q 130 634 209 734 q 79 520 96 590 l 186 506 q 253 614 207 584 q 378 642 295 642 q 559 489 559 642 q 553 451 559 452 q 334 408 483 426 q 233 393 256 399 q 141 351 190 381 q 57 190 57 300 q 203 2 57 42 q 296 -9 245 -9 q 557 94 435 -9 q 568 90 567 102 q 590 7 573 43 l 702 7 m 545 351 q 353 309 477 326 q 271 293 293 300 q 187 193 187 267 q 231 111 187 138 q 326 86 268 86 q 526 197 472 86 q 545 317 545 237 l 545 351 m 549 368 q 558 361 558 372 l 558 317 q 454 104 558 163 q 326 73 398 73 q 221 100 262 73 q 174 193 174 133 q 243 297 174 267 q 351 322 276 311 q 549 368 484 341 z "},"":{"ha":772,"x_min":43,"x_max":720,"o":"m 586 -7 q 556 76 568 -7 q 296 -23 436 -23 q 66 91 127 -23 q 43 190 43 134 q 134 362 43 301 q 166 380 142 367 q 333 422 223 409 q 545 462 476 439 q 545 489 545 483 q 513 589 545 560 q 378 629 469 629 q 259 602 298 629 q 197 497 216 572 q 190 492 196 491 l 110 503 q 64 516 63 509 q 231 718 97 669 q 396 743 302 743 q 549 721 463 736 q 663 620 635 688 q 682 465 682 574 l 682 149 q 720 3 688 60 q 713 -7 725 -7 l 586 -7 m 702 7 q 676 85 684 44 q 668 302 668 132 l 668 465 q 652 612 668 570 q 543 709 627 677 q 396 730 493 728 q 130 634 209 734 q 79 520 96 590 l 186 506 q 253 614 207 584 q 378 642 295 642 q 559 489 559 642 q 553 451 559 452 q 334 408 483 426 q 233 393 256 399 q 141 351 190 381 q 57 190 57 300 q 203 2 57 42 q 296 -9 245 -9 q 557 94 435 -9 q 568 90 567 102 q 590 7 573 43 l 702 7 m 545 351 q 353 309 477 326 q 271 293 293 300 q 187 193 187 267 q 231 111 187 138 q 326 86 268 86 q 526 197 472 86 q 545 317 545 237 l 545 351 m 549 368 q 558 361 558 372 l 558 317 q 454 104 558 163 q 326 73 398 73 q 221 100 262 73 q 174 193 174 133 q 243 297 174 267 q 351 322 276 311 q 549 368 484 341 m 553 974 l 420 806 q 415 803 418 804 l 314 803 q 307 809 307 803 q 317 831 309 813 l 394 994 q 404 1006 400 1006 l 564 1006 q 572 1002 572 1006 q 553 974 572 998 m 325 817 l 412 817 l 550 993 l 408 993 l 358 886 q 325 817 353 876 z "},"":{"ha":772,"x_min":43,"x_max":720,"o":"m 586 -7 q 556 76 568 -7 q 296 -23 436 -23 q 66 91 127 -23 q 43 190 43 134 q 134 362 43 301 q 166 380 142 367 q 333 422 223 409 q 545 462 476 439 q 545 489 545 483 q 513 589 545 560 q 378 629 469 629 q 259 602 298 629 q 197 497 216 572 q 190 492 196 491 l 110 503 q 64 516 63 509 q 231 718 97 669 q 396 743 302 743 q 549 721 463 736 q 663 620 635 688 q 682 465 682 574 l 682 149 q 720 3 688 60 q 713 -7 725 -7 l 586 -7 m 702 7 q 676 85 684 44 q 668 302 668 132 l 668 465 q 652 612 668 570 q 543 709 627 677 q 396 730 493 728 q 130 634 209 734 q 79 520 96 590 l 186 506 q 253 614 207 584 q 378 642 295 642 q 559 489 559 642 q 553 451 559 452 q 334 408 483 426 q 233 393 256 399 q 141 351 190 381 q 57 190 57 300 q 203 2 57 42 q 296 -9 245 -9 q 557 94 435 -9 q 568 90 567 102 q 590 7 573 43 l 702 7 m 545 351 q 353 309 477 326 q 271 293 293 300 q 187 193 187 267 q 231 111 187 138 q 326 86 268 86 q 526 197 472 86 q 545 317 545 237 l 545 351 m 549 368 q 558 361 558 372 l 558 317 q 454 104 558 163 q 326 73 398 73 q 221 100 262 73 q 174 193 174 133 q 243 297 174 267 q 351 322 276 311 q 549 368 484 341 m 458 803 q 453 806 454 804 l 384 913 l 313 806 q 307 803 310 804 l 168 803 q 162 814 154 803 l 297 989 q 314 1006 311 1006 l 444 1006 q 450 1004 448 1006 l 579 842 q 604 808 604 811 q 597 803 604 803 l 458 803 m 583 817 l 441 993 l 317 993 l 181 817 l 304 817 l 378 929 q 383 933 381 932 q 422 879 387 933 l 462 817 l 583 817 z "},"":{"ha":772,"x_min":43,"x_max":720,"o":"m 586 -7 q 556 76 568 -7 q 296 -23 436 -23 q 66 91 127 -23 q 43 190 43 134 q 134 362 43 301 q 166 380 142 367 q 333 422 223 409 q 545 462 476 439 q 545 489 545 483 q 513 589 545 560 q 378 629 469 629 q 259 602 298 629 q 197 497 216 572 q 190 492 196 491 l 110 503 q 64 516 63 509 q 231 718 97 669 q 396 743 302 743 q 549 721 463 736 q 663 620 635 688 q 682 465 682 574 l 682 149 q 720 3 688 60 q 713 -7 725 -7 l 586 -7 m 702 7 q 676 85 684 44 q 668 302 668 132 l 668 465 q 652 612 668 570 q 543 709 627 677 q 396 730 493 728 q 130 634 209 734 q 79 520 96 590 l 186 506 q 253 614 207 584 q 378 642 295 642 q 559 489 559 642 q 553 451 559 452 q 334 408 483 426 q 233 393 256 399 q 141 351 190 381 q 57 190 57 300 q 203 2 57 42 q 296 -9 245 -9 q 557 94 435 -9 q 568 90 567 102 q 590 7 573 43 l 702 7 m 545 351 q 353 309 477 326 q 271 293 293 300 q 187 193 187 267 q 231 111 187 138 q 326 86 268 86 q 526 197 472 86 q 545 317 545 237 l 545 351 m 549 368 q 558 361 558 372 l 558 317 q 454 104 558 163 q 326 73 398 73 q 221 100 262 73 q 174 193 174 133 q 243 297 174 267 q 351 322 276 311 q 549 368 484 341 m 607 920 q 476 822 578 822 q 376 853 440 822 q 297 884 313 884 q 252 832 252 884 l 252 827 q 245 820 252 820 l 155 820 q 151 859 145 820 q 197 952 159 916 q 293 988 236 988 q 422 945 329 988 q 471 931 452 931 q 513 978 506 931 l 514 982 q 521 990 515 990 l 609 990 q 616 975 616 990 q 607 920 616 952 m 526 976 q 471 918 517 918 q 392 945 447 918 q 293 975 331 975 q 200 937 235 975 q 162 842 162 896 l 162 833 l 239 833 q 297 898 240 898 q 379 867 316 898 q 476 836 443 836 q 602 977 595 836 l 526 976 z "},"":{"ha":772,"x_min":43,"x_max":720,"o":"m 586 -7 q 556 76 568 -7 q 296 -23 436 -23 q 66 91 127 -23 q 43 190 43 134 q 134 362 43 301 q 166 380 142 367 q 333 422 223 409 q 545 462 476 439 q 545 489 545 483 q 513 589 545 560 q 378 629 469 629 q 259 602 298 629 q 197 497 216 572 q 190 492 196 491 l 110 503 q 64 516 63 509 q 231 718 97 669 q 396 743 302 743 q 549 721 463 736 q 663 620 635 688 q 682 465 682 574 l 682 149 q 720 3 688 60 q 713 -7 725 -7 l 586 -7 m 702 7 q 676 85 684 44 q 668 302 668 132 l 668 465 q 652 612 668 570 q 543 709 627 677 q 396 730 493 728 q 130 634 209 734 q 79 520 96 590 l 186 506 q 253 614 207 584 q 378 642 295 642 q 559 489 559 642 q 553 451 559 452 q 334 408 483 426 q 233 393 256 399 q 141 351 190 381 q 57 190 57 300 q 203 2 57 42 q 296 -9 245 -9 q 557 94 435 -9 q 568 90 567 102 q 590 7 573 43 l 702 7 m 545 351 q 353 309 477 326 q 271 293 293 300 q 187 193 187 267 q 231 111 187 138 q 326 86 268 86 q 526 197 472 86 q 545 317 545 237 l 545 351 m 549 368 q 558 361 558 372 l 558 317 q 454 104 558 163 q 326 73 398 73 q 221 100 262 73 q 174 193 174 133 q 243 297 174 267 q 351 322 276 311 q 549 368 484 341 m 445 854 q 438 861 438 854 l 438 1000 q 445 1007 438 1007 l 572 1007 q 579 1000 579 1007 l 579 861 q 572 854 579 854 l 445 854 m 566 994 l 452 994 l 452 868 l 566 868 l 566 994 m 192 854 q 185 861 185 854 l 185 1000 q 192 1007 185 1007 l 319 1007 q 326 1000 326 1007 l 326 861 q 319 854 326 854 l 192 854 m 199 994 l 199 868 l 313 869 l 313 994 l 199 994 z "},"":{"ha":772,"x_min":43,"x_max":720,"o":"m 586 -7 q 556 76 568 -7 q 296 -23 436 -23 q 66 91 127 -23 q 43 190 43 134 q 134 362 43 301 q 166 380 142 367 q 333 422 223 409 q 545 462 476 439 q 545 489 545 483 q 513 589 545 560 q 378 629 469 629 q 259 602 298 629 q 197 497 216 572 q 190 492 196 491 l 110 503 q 64 516 63 509 q 231 718 97 669 q 396 743 302 743 q 549 721 463 736 q 663 620 635 688 q 682 465 682 574 l 682 149 q 720 3 688 60 q 713 -7 725 -7 l 586 -7 m 702 7 q 676 85 684 44 q 668 302 668 132 l 668 465 q 652 612 668 570 q 543 709 627 677 q 396 730 493 728 q 130 634 209 734 q 79 520 96 590 l 186 506 q 253 614 207 584 q 378 642 295 642 q 559 489 559 642 q 553 451 559 452 q 334 408 483 426 q 233 393 256 399 q 141 351 190 381 q 57 190 57 300 q 203 2 57 42 q 296 -9 245 -9 q 557 94 435 -9 q 568 90 567 102 q 590 7 573 43 l 702 7 m 545 351 q 353 309 477 326 q 271 293 293 300 q 187 193 187 267 q 231 111 187 138 q 326 86 268 86 q 526 197 472 86 q 545 317 545 237 l 545 351 m 549 368 q 558 361 558 372 l 558 317 q 454 104 558 163 q 326 73 398 73 q 221 100 262 73 q 174 193 174 133 q 243 297 174 267 q 351 322 276 311 q 549 368 484 341 m 382 774 q 290 812 326 774 q 253 907 253 851 l 253 909 q 291 998 253 961 q 382 1036 329 1036 q 473 997 436 1036 q 511 905 511 959 q 474 812 511 850 q 382 774 437 774 m 497 905 q 464 988 497 954 q 382 1022 431 1022 q 301 989 335 1022 q 267 909 267 956 l 267 907 q 299 822 267 857 q 382 787 332 787 q 464 822 431 787 q 497 905 497 856 m 318 907 q 337 859 318 879 q 383 838 355 838 q 429 858 410 838 q 448 905 448 878 q 430 953 448 933 q 383 972 411 972 q 337 953 356 972 q 318 907 318 934 m 383 986 q 439 962 416 986 q 462 905 462 939 q 439 848 462 872 q 383 825 416 825 q 327 849 349 825 q 304 907 304 873 q 328 963 304 939 q 383 986 351 986 z "},"":{"ha":1235,"x_min":39,"x_max":1185,"o":"m 1152 547 q 1185 370 1185 465 q 1184 329 1185 364 q 1177 322 1184 322 l 664 322 q 681 205 666 245 q 754 121 701 153 q 863 91 805 91 q 1042 238 1004 91 q 1049 243 1043 244 l 1177 227 q 1182 218 1182 227 q 1138 119 1182 188 q 859 -23 1046 -23 q 590 108 692 -23 q 296 -23 454 -23 l 292 -23 q 117 30 187 -23 q 39 190 39 88 q 76 307 39 254 q 171 384 111 357 q 364 427 231 410 q 529 459 463 440 q 530 481 530 473 q 497 595 530 563 q 376 629 432 629 q 222 577 260 629 q 191 496 203 551 q 184 490 190 490 l 65 505 q 59 513 57 505 q 378 743 114 743 q 628 650 565 743 q 859 743 718 743 q 1152 547 1070 743 m 859 730 q 632 635 720 730 q 622 636 627 629 q 557 696 596 677 q 378 730 490 730 q 125 633 200 730 q 74 517 93 591 l 179 505 q 275 627 202 602 q 376 642 317 642 q 504 607 433 642 l 505 606 q 543 481 543 570 q 538 447 543 448 q 365 414 470 427 q 212 385 260 400 q 87 298 128 357 q 53 190 53 250 q 102 62 53 115 q 223 -3 149 12 q 292 -9 254 -9 l 296 -9 q 586 123 451 -9 q 596 122 591 128 q 859 -9 695 -9 q 1167 215 1096 -9 l 1053 229 q 863 77 1012 77 q 755 105 806 77 q 675 184 701 134 q 659 239 669 196 q 648 313 648 288 q 657 336 648 336 l 1171 336 q 1172 370 1172 359 q 1139 541 1172 461 q 859 730 1061 730 m 665 436 l 1046 436 q 858 629 1025 629 q 720 574 772 629 q 665 436 671 524 m 858 642 q 1060 430 1041 642 q 1053 422 1061 422 l 657 422 q 650 430 650 422 q 709 582 656 526 q 858 642 764 642 m 321 305 q 182 194 182 283 q 224 112 182 140 q 316 87 260 87 q 441 119 385 87 q 521 217 502 155 q 531 347 531 251 l 531 351 q 321 305 471 329 m 318 319 q 535 368 482 345 q 545 361 545 372 l 545 347 q 535 216 545 251 q 450 109 517 149 q 316 73 389 73 q 214 102 255 73 q 169 194 169 135 q 318 319 169 295 z "},"":{"ha":694,"x_min":47,"x_max":688,"o":"m 382 -23 q 179 39 263 -23 q 64 215 96 102 q 47 357 47 277 l 47 359 q 208 699 47 610 q 382 743 288 743 q 577 684 500 743 q 677 510 654 624 q 650 498 679 500 l 553 484 q 545 489 546 483 q 395 629 512 629 l 377 629 q 243 566 277 604 q 186 361 186 500 q 285 116 186 176 q 380 91 326 91 q 555 264 530 91 q 570 271 555 271 q 619 263 549 271 q 659 260 632 262 q 688 247 690 258 q 589 50 669 123 q 382 -23 507 -23 m 673 242 l 567 256 q 380 77 539 77 q 173 361 173 77 q 232 574 173 507 q 374 642 270 618 l 376 643 l 387 643 q 557 498 519 643 l 662 514 q 382 730 616 730 q 214 687 288 730 q 99 559 136 642 q 61 359 61 473 l 61 357 q 235 21 61 104 q 382 -9 299 -9 q 577 59 499 -9 q 673 242 654 125 m 302 -279 q 203 -271 247 -279 q 198 -263 197 -269 l 205 -184 q 213 -178 206 -177 q 276 -180 252 -180 q 378 -136 378 -180 q 279 -98 378 -99 q 272 -90 272 -98 q 291 -25 275 -79 l 307 31 q 314 36 309 36 l 405 36 q 412 29 412 36 q 391 -38 409 18 q 505 -143 505 -54 q 435 -250 505 -214 q 302 -279 380 -279 m 492 -143 q 382 -50 492 -63 q 376 -41 376 -50 q 395 22 378 -33 l 319 22 l 288 -84 q 392 -136 392 -87 q 276 -194 392 -194 q 241 -193 288 -194 l 218 -192 l 212 -258 q 302 -265 252 -265 q 425 -240 374 -265 q 492 -143 492 -208 z "},"":{"ha":772,"x_min":44,"x_max":722,"o":"m 367 803 q 361 806 363 804 l 221 976 q 203 1002 203 998 q 210 1006 203 1006 l 374 1006 q 380 1002 378 1005 l 471 812 q 465 803 476 803 l 367 803 m 454 817 l 370 993 l 224 993 l 370 817 l 454 817 m 44 357 q 130 630 44 525 q 387 743 222 743 q 593 676 509 743 q 707 490 678 608 q 722 361 722 432 q 721 329 722 357 q 714 322 721 322 l 184 322 q 300 113 195 168 q 395 91 342 91 q 578 234 527 91 q 585 239 580 239 l 648 231 q 711 223 659 229 q 718 214 720 222 q 394 -23 653 -23 q 132 82 224 -23 q 44 354 44 182 l 44 357 m 58 357 l 58 354 q 142 92 58 189 q 394 -9 231 -9 q 702 211 638 -9 l 589 224 q 395 77 534 77 q 231 153 291 77 q 170 328 176 220 q 177 336 170 336 l 707 336 q 708 361 708 353 q 629 621 708 522 q 387 730 543 730 q 140 621 228 730 q 58 357 58 519 m 191 436 l 578 436 q 524 573 569 522 q 391 629 473 629 l 389 629 q 251 574 305 629 q 191 436 199 521 m 389 643 l 391 643 q 545 570 484 643 q 593 430 585 523 q 586 422 593 422 l 184 422 q 177 430 176 422 q 239 582 183 523 q 389 643 297 643 z "},"":{"ha":772,"x_min":44,"x_max":722,"o":"m 44 357 q 130 630 44 525 q 387 743 222 743 q 593 676 509 743 q 707 490 678 608 q 722 361 722 432 q 721 329 722 357 q 714 322 721 322 l 184 322 q 300 113 195 168 q 395 91 342 91 q 578 234 527 91 q 585 239 580 239 l 648 231 q 711 223 659 229 q 718 214 720 222 q 394 -23 653 -23 q 132 82 224 -23 q 44 354 44 182 l 44 357 m 58 357 l 58 354 q 142 92 58 189 q 394 -9 231 -9 q 702 211 638 -9 l 589 224 q 395 77 534 77 q 231 153 291 77 q 170 328 176 220 q 177 336 170 336 l 707 336 q 708 361 708 353 q 629 621 708 522 q 387 730 543 730 q 140 621 228 730 q 58 357 58 519 m 191 436 l 578 436 q 524 573 569 522 q 391 629 473 629 l 389 629 q 251 574 305 629 q 191 436 199 521 m 389 643 l 391 643 q 545 570 484 643 q 593 430 585 523 q 586 422 593 422 l 184 422 q 177 430 176 422 q 239 582 183 523 q 389 643 297 643 m 554 974 l 422 806 q 416 803 419 804 l 315 803 q 309 809 309 803 q 318 831 310 813 l 395 994 q 406 1006 401 1006 l 566 1006 q 573 1002 573 1006 q 554 974 573 998 m 326 817 l 413 817 l 551 993 l 410 993 l 359 886 q 326 817 354 876 z "},"":{"ha":772,"x_min":44,"x_max":722,"o":"m 44 357 q 130 630 44 525 q 387 743 222 743 q 593 676 509 743 q 707 490 678 608 q 722 361 722 432 q 721 329 722 357 q 714 322 721 322 l 184 322 q 300 113 195 168 q 395 91 342 91 q 578 234 527 91 q 585 239 580 239 l 648 231 q 711 223 659 229 q 718 214 720 222 q 394 -23 653 -23 q 132 82 224 -23 q 44 354 44 182 l 44 357 m 58 357 l 58 354 q 142 92 58 189 q 394 -9 231 -9 q 702 211 638 -9 l 589 224 q 395 77 534 77 q 231 153 291 77 q 170 328 176 220 q 177 336 170 336 l 707 336 q 708 361 708 353 q 629 621 708 522 q 387 730 543 730 q 140 621 228 730 q 58 357 58 519 m 191 436 l 578 436 q 524 573 569 522 q 391 629 473 629 l 389 629 q 251 574 305 629 q 191 436 199 521 m 389 643 l 391 643 q 545 570 484 643 q 593 430 585 523 q 586 422 593 422 l 184 422 q 177 430 176 422 q 239 582 183 523 q 389 643 297 643 m 459 803 q 454 806 455 804 l 385 913 l 313 806 q 308 803 311 804 l 168 803 q 163 814 155 803 l 298 989 q 315 1006 311 1006 l 445 1006 q 450 1004 448 1006 l 580 842 q 605 808 605 811 q 597 803 605 803 l 459 803 m 583 817 l 441 993 l 318 993 l 182 817 l 304 817 l 379 929 q 384 933 382 932 q 422 879 388 933 l 463 817 l 583 817 z "},"":{"ha":772,"x_min":44,"x_max":722,"o":"m 44 357 q 130 630 44 525 q 387 743 222 743 q 593 676 509 743 q 707 490 678 608 q 722 361 722 432 q 721 329 722 357 q 714 322 721 322 l 184 322 q 300 113 195 168 q 395 91 342 91 q 578 234 527 91 q 585 239 580 239 l 648 231 q 711 223 659 229 q 718 214 720 222 q 394 -23 653 -23 q 132 82 224 -23 q 44 354 44 182 l 44 357 m 58 357 l 58 354 q 142 92 58 189 q 394 -9 231 -9 q 702 211 638 -9 l 589 224 q 395 77 534 77 q 231 153 291 77 q 170 328 176 220 q 177 336 170 336 l 707 336 q 708 361 708 353 q 629 621 708 522 q 387 730 543 730 q 140 621 228 730 q 58 357 58 519 m 191 436 l 578 436 q 524 573 569 522 q 391 629 473 629 l 389 629 q 251 574 305 629 q 191 436 199 521 m 389 643 l 391 643 q 545 570 484 643 q 593 430 585 523 q 586 422 593 422 l 184 422 q 177 430 176 422 q 239 582 183 523 q 389 643 297 643 m 446 854 q 439 861 439 854 l 439 1000 q 446 1007 439 1007 l 573 1007 q 580 1000 580 1007 l 580 861 q 573 854 580 854 l 446 854 m 566 994 l 452 994 l 452 868 l 566 868 l 566 994 m 193 854 q 186 861 186 854 l 186 1000 q 193 1007 186 1007 l 320 1007 q 327 1000 327 1007 l 327 861 q 320 854 327 854 l 193 854 m 199 994 l 199 868 l 313 869 l 313 994 l 199 994 z "},"":{"ha":386,"x_min":16,"x_max":285,"o":"m 180 803 q 175 806 177 804 l 35 976 q 16 1002 16 998 q 24 1006 16 1006 l 187 1006 q 193 1002 192 1005 l 285 812 q 279 803 290 803 l 180 803 m 268 817 l 183 993 l 38 993 l 184 817 l 268 817 m 263 0 q 256 -7 263 -7 l 134 -7 q 127 0 127 -7 l 127 720 q 134 727 127 727 l 256 727 q 263 720 263 727 l 263 0 m 250 713 l 141 713 l 141 7 l 250 7 l 250 713 z "},"":{"ha":386,"x_min":121,"x_max":386,"o":"m 367 974 l 235 806 q 229 803 232 804 l 128 803 q 121 809 121 803 q 131 831 123 813 l 208 994 q 218 1006 214 1006 l 378 1006 q 386 1002 386 1006 q 367 974 386 998 m 139 817 l 226 817 l 364 993 l 222 993 l 172 886 q 139 817 167 876 m 263 0 q 256 -7 263 -7 l 134 -7 q 127 0 127 -7 l 127 720 q 134 727 127 727 l 256 727 q 263 720 263 727 l 263 0 m 250 713 l 141 713 l 141 7 l 250 7 l 250 713 z "},"":{"ha":386,"x_min":-17,"x_max":425,"o":"m 263 0 q 256 -7 263 -7 l 134 -7 q 127 0 127 -7 l 127 720 q 134 727 127 727 l 256 727 q 263 720 263 727 l 263 0 m 250 713 l 141 713 l 141 7 l 250 7 l 250 713 m 279 803 q 274 806 275 804 l 205 913 l 134 806 q 128 803 131 804 l -12 803 q -17 814 -25 803 l 118 989 q 135 1006 132 1006 l 265 1006 q 271 1004 269 1006 l 400 842 q 425 808 425 811 q 418 803 425 803 l 279 803 m 404 817 l 262 993 l 138 993 l 2 817 l 125 817 l 199 929 q 204 933 202 932 q 243 879 208 933 l 283 817 l 404 817 z "},"":{"ha":386,"x_min":-1,"x_max":393,"o":"m 259 854 q 252 861 252 854 l 252 1000 q 259 1007 252 1007 l 387 1007 q 393 1000 393 1007 l 393 861 q 387 854 393 854 l 259 854 m 380 994 l 266 994 l 266 868 l 380 868 l 380 994 m 6 854 q -1 861 -1 854 l -1 1000 q 6 1007 -1 1007 l 134 1007 q 140 1000 140 1007 l 140 861 q 134 854 140 854 l 6 854 m 13 994 l 13 868 l 127 869 l 127 994 l 13 994 m 263 0 q 256 -7 263 -7 l 134 -7 q 127 0 127 -7 l 127 720 q 134 727 127 727 l 256 727 q 263 720 263 727 l 263 0 m 250 713 l 141 713 l 141 7 l 250 7 l 250 713 z "},"":{"ha":772,"x_min":43,"x_max":724,"o":"m 382 -24 q 107 111 206 -24 q 43 351 43 198 q 119 612 43 509 q 356 727 203 727 q 484 696 420 727 q 401 817 452 759 l 220 732 q 196 770 214 730 q 180 808 181 805 q 184 814 180 813 l 337 884 q 205 989 276 940 q 201 996 200 992 q 209 1001 203 1001 l 356 1001 q 442 933 366 1001 l 540 980 q 585 1001 577 998 q 608 962 591 1001 q 623 925 621 932 q 608 911 623 918 q 559 890 592 905 l 511 867 q 724 353 724 618 q 636 86 724 190 q 382 -24 543 -24 m 710 353 q 494 864 710 616 q 493 869 493 867 q 533 892 493 873 l 608 928 l 583 985 l 444 919 q 436 920 439 917 q 354 987 404 950 l 231 987 q 354 887 294 943 q 357 882 357 884 q 276 842 357 879 l 196 805 l 220 747 l 401 831 q 409 829 406 833 q 506 683 465 765 q 505 674 509 677 q 496 674 502 671 q 356 713 422 713 q 127 602 208 713 q 56 351 56 504 q 118 119 56 203 q 382 -10 213 -10 q 627 96 537 -10 q 710 353 710 196 m 378 620 q 222 531 273 620 q 181 347 181 460 q 226 170 181 239 q 382 90 279 90 q 538 177 484 90 q 583 359 583 251 q 536 538 583 467 q 378 620 481 620 m 597 359 q 548 167 597 244 q 382 76 490 76 q 216 161 273 76 q 168 347 168 233 q 212 541 168 466 q 378 633 267 633 q 545 547 487 633 q 597 359 597 473 z "},"":{"ha":772,"x_min":85,"x_max":684,"o":"m 208 639 q 431 743 288 743 q 637 656 575 743 q 684 450 684 591 l 684 0 q 677 -7 684 -7 l 555 -7 q 548 0 548 -7 l 548 438 q 540 531 548 502 q 404 624 514 624 q 338 613 369 624 q 241 527 268 589 q 220 393 220 480 l 220 0 q 214 -7 220 -7 l 92 -7 q 85 0 85 -7 l 85 720 q 92 727 85 727 l 201 727 q 208 720 208 727 l 208 639 m 670 7 l 670 450 q 652 601 670 551 q 548 707 625 673 q 431 730 494 730 q 207 614 284 730 q 199 610 203 609 q 195 618 195 612 l 195 713 l 98 713 l 98 7 l 207 7 l 207 393 q 230 534 207 483 q 333 626 260 600 q 403 637 366 637 q 547 552 514 637 q 562 438 562 513 l 562 7 l 670 7 m 629 920 q 498 822 600 822 q 399 853 463 822 q 319 884 335 884 q 275 832 275 884 l 275 827 q 268 820 275 820 l 178 820 q 173 859 168 820 q 220 952 181 916 q 315 988 258 988 q 444 945 351 988 q 494 931 475 931 q 536 978 528 931 l 536 982 q 543 990 538 990 l 631 990 q 639 975 639 990 q 629 920 639 952 m 549 976 q 494 918 540 918 q 414 945 469 918 q 315 975 353 975 q 222 937 258 975 q 184 842 184 896 l 184 833 l 261 833 q 319 898 262 898 q 402 867 338 898 q 498 836 465 836 q 625 977 618 836 l 549 976 z "},"":{"ha":772,"x_min":39,"x_max":728,"o":"m 368 803 q 362 806 364 804 l 222 976 q 203 1002 203 998 q 211 1006 203 1006 l 374 1006 q 380 1002 379 1005 l 472 812 q 466 803 477 803 l 368 803 m 455 817 l 370 993 l 225 993 l 371 817 l 455 817 m 685 148 q 627 65 656 92 q 559 21 608 47 q 384 -23 481 -22 q 129 82 229 -24 q 39 351 39 178 l 39 362 q 153 662 39 564 q 384 743 247 743 q 640 636 546 743 q 728 370 728 535 q 685 148 728 230 m 674 155 q 709 258 701 208 q 714 370 714 290 q 630 627 714 529 q 384 730 541 730 q 162 651 253 730 q 53 362 53 557 l 53 352 q 144 86 53 183 q 391 -9 235 -11 q 555 34 481 -9 q 674 155 633 78 m 378 629 q 237 562 296 629 q 178 360 178 494 q 187 265 178 311 q 254 140 203 187 q 384 91 307 91 q 545 178 492 91 q 589 364 589 250 q 543 544 589 473 q 386 629 488 629 l 378 629 m 377 642 l 386 642 q 524 589 467 642 q 593 456 576 539 q 602 364 602 414 q 554 168 602 244 q 384 77 497 77 q 244 130 301 77 q 174 262 191 179 q 165 360 165 303 q 212 551 164 475 q 377 642 269 642 z "},"":{"ha":772,"x_min":39,"x_max":728,"o":"m 685 148 q 627 65 656 92 q 559 21 608 47 q 384 -23 481 -22 q 129 82 229 -24 q 39 351 39 178 l 39 362 q 153 662 39 564 q 384 743 247 743 q 640 636 546 743 q 728 370 728 535 q 685 148 728 230 m 674 155 q 709 258 701 208 q 714 370 714 290 q 630 627 714 529 q 384 730 541 730 q 162 651 253 730 q 53 362 53 557 l 53 352 q 144 86 53 183 q 391 -9 235 -11 q 555 34 481 -9 q 674 155 633 78 m 378 629 q 237 562 296 629 q 178 360 178 494 q 187 265 178 311 q 254 140 203 187 q 384 91 307 91 q 545 178 492 91 q 589 364 589 250 q 543 544 589 473 q 386 629 488 629 l 378 629 m 377 642 l 386 642 q 524 589 467 642 q 593 456 576 539 q 602 364 602 414 q 554 168 602 244 q 384 77 497 77 q 244 130 301 77 q 174 262 191 179 q 165 360 165 303 q 212 551 164 475 q 377 642 269 642 m 555 974 l 422 806 q 417 803 420 804 l 316 803 q 309 809 309 803 q 319 831 311 813 l 396 994 q 406 1006 402 1006 l 566 1006 q 574 1002 574 1006 q 555 974 574 998 m 327 817 l 414 817 l 552 993 l 410 993 l 360 886 q 327 817 355 876 z "},"":{"ha":772,"x_min":39,"x_max":728,"o":"m 685 148 q 627 65 656 92 q 559 21 608 47 q 384 -23 481 -22 q 129 82 229 -24 q 39 351 39 178 l 39 362 q 153 662 39 564 q 384 743 247 743 q 640 636 546 743 q 728 370 728 535 q 685 148 728 230 m 674 155 q 709 258 701 208 q 714 370 714 290 q 630 627 714 529 q 384 730 541 730 q 162 651 253 730 q 53 362 53 557 l 53 352 q 144 86 53 183 q 391 -9 235 -11 q 555 34 481 -9 q 674 155 633 78 m 378 629 q 237 562 296 629 q 178 360 178 494 q 187 265 178 311 q 254 140 203 187 q 384 91 307 91 q 545 178 492 91 q 589 364 589 250 q 543 544 589 473 q 386 629 488 629 l 378 629 m 377 642 l 386 642 q 524 589 467 642 q 593 456 576 539 q 602 364 602 414 q 554 168 602 244 q 384 77 497 77 q 244 130 301 77 q 174 262 191 179 q 165 360 165 303 q 212 551 164 475 q 377 642 269 642 m 460 803 q 454 806 456 804 l 385 913 l 314 806 q 309 803 311 804 l 169 803 q 163 814 155 803 l 298 989 q 315 1006 312 1006 l 446 1006 q 451 1004 449 1006 l 581 842 q 606 808 606 811 q 598 803 606 803 l 460 803 m 584 817 l 442 993 l 319 993 l 182 817 l 305 817 l 380 929 q 385 933 382 932 q 423 879 389 933 l 463 817 l 584 817 z "},"":{"ha":772,"x_min":39,"x_max":728,"o":"m 685 148 q 627 65 656 92 q 559 21 608 47 q 384 -23 481 -22 q 129 82 229 -24 q 39 351 39 178 l 39 362 q 153 662 39 564 q 384 743 247 743 q 640 636 546 743 q 728 370 728 535 q 685 148 728 230 m 674 155 q 709 258 701 208 q 714 370 714 290 q 630 627 714 529 q 384 730 541 730 q 162 651 253 730 q 53 362 53 557 l 53 352 q 144 86 53 183 q 391 -9 235 -11 q 555 34 481 -9 q 674 155 633 78 m 378 629 q 237 562 296 629 q 178 360 178 494 q 187 265 178 311 q 254 140 203 187 q 384 91 307 91 q 545 178 492 91 q 589 364 589 250 q 543 544 589 473 q 386 629 488 629 l 378 629 m 377 642 l 386 642 q 524 589 467 642 q 593 456 576 539 q 602 364 602 414 q 554 168 602 244 q 384 77 497 77 q 244 130 301 77 q 174 262 191 179 q 165 360 165 303 q 212 551 164 475 q 377 642 269 642 m 608 920 q 477 822 579 822 q 378 853 441 822 q 298 884 314 884 q 254 832 254 884 l 254 827 q 247 820 254 820 l 157 820 q 152 859 146 820 q 199 952 160 916 q 294 988 237 988 q 423 945 330 988 q 473 931 454 931 q 515 978 507 931 l 515 982 q 522 990 517 990 l 610 990 q 618 975 618 990 q 608 920 618 952 m 528 976 q 473 918 519 918 q 393 945 448 918 q 294 975 332 975 q 201 937 237 975 q 163 842 163 896 l 163 833 l 240 833 q 298 898 241 898 q 381 867 317 898 q 477 836 444 836 q 604 977 597 836 l 528 976 z "},"":{"ha":772,"x_min":39,"x_max":728,"o":"m 685 148 q 627 65 656 92 q 559 21 608 47 q 384 -23 481 -22 q 129 82 229 -24 q 39 351 39 178 l 39 362 q 153 662 39 564 q 384 743 247 743 q 640 636 546 743 q 728 370 728 535 q 685 148 728 230 m 674 155 q 709 258 701 208 q 714 370 714 290 q 630 627 714 529 q 384 730 541 730 q 162 651 253 730 q 53 362 53 557 l 53 352 q 144 86 53 183 q 391 -9 235 -11 q 555 34 481 -9 q 674 155 633 78 m 378 629 q 237 562 296 629 q 178 360 178 494 q 187 265 178 311 q 254 140 203 187 q 384 91 307 91 q 545 178 492 91 q 589 364 589 250 q 543 544 589 473 q 386 629 488 629 l 378 629 m 377 642 l 386 642 q 524 589 467 642 q 593 456 576 539 q 602 364 602 414 q 554 168 602 244 q 384 77 497 77 q 244 130 301 77 q 174 262 191 179 q 165 360 165 303 q 212 551 164 475 q 377 642 269 642 m 446 854 q 439 861 439 854 l 439 1000 q 446 1007 439 1007 l 574 1007 q 581 1000 581 1007 l 581 861 q 574 854 581 854 l 446 854 m 567 994 l 453 994 l 453 868 l 567 868 l 567 994 m 193 854 q 186 861 186 854 l 186 1000 q 193 1007 186 1007 l 321 1007 q 328 1000 328 1007 l 328 861 q 321 854 328 854 l 193 854 m 200 994 l 200 868 l 314 869 l 314 994 l 200 994 z "},"":{"ha":762,"x_min":46,"x_max":716,"o":"m 311 618 q 304 625 304 618 l 304 764 q 311 771 304 771 l 450 771 q 457 764 457 771 l 457 625 q 450 618 457 618 l 311 618 m 318 632 l 444 632 l 444 758 l 318 758 l 318 632 m 716 433 q 709 427 716 427 l 53 427 q 46 433 46 427 l 46 547 q 53 554 46 554 l 709 554 q 716 547 716 554 l 716 433 m 703 440 l 703 541 l 60 541 l 60 440 l 703 440 m 311 210 q 304 216 304 210 l 304 355 q 311 362 304 362 l 450 362 q 457 355 457 362 l 457 216 q 450 210 457 210 l 311 210 m 444 223 l 444 349 l 318 349 l 318 223 l 444 223 z "},"":{"ha":848,"x_min":81,"x_max":769,"o":"m 692 623 q 769 359 769 516 q 652 55 769 153 q 424 -23 557 -23 q 235 29 317 -23 l 168 -58 q 163 -60 165 -60 q 118 -28 161 -60 l 94 -11 q 107 18 93 -1 l 163 90 q 81 350 81 187 q 163 628 81 523 q 421 743 253 743 q 621 686 521 743 l 685 768 q 694 770 689 774 l 760 722 q 761 713 765 718 l 692 623 m 106 -3 l 161 -44 l 228 42 q 237 43 231 47 q 424 -9 317 -9 q 631 55 546 -9 q 743 236 715 119 q 755 359 755 292 q 741 494 755 443 q 680 616 724 554 q 677 627 674 623 l 746 715 l 692 755 l 629 673 q 620 671 625 669 q 421 730 519 730 q 172 618 258 730 q 94 350 94 517 q 177 95 94 190 q 177 86 180 90 l 118 9 q 106 -3 115 5 m 425 629 q 266 543 320 629 q 220 360 220 471 q 250 203 220 269 l 545 587 q 425 629 488 629 m 497 629 q 562 587 562 604 q 560 584 561 585 l 254 186 q 242 186 247 177 q 206 360 206 259 q 256 553 206 478 q 425 642 313 642 q 497 629 462 642 m 607 501 l 604 509 l 311 128 q 420 91 359 91 q 584 175 529 91 q 631 361 631 246 q 607 501 631 449 m 644 361 q 593 165 644 241 q 420 77 534 77 q 297 121 352 77 q 296 131 292 125 l 600 526 q 606 530 603 530 q 619 506 610 530 q 644 361 644 441 z "},"":{"ha":772,"x_min":82,"x_max":680,"o":"m 395 803 q 390 806 392 804 l 250 976 q 231 1002 231 998 q 239 1006 231 1006 l 402 1006 q 408 1002 407 1005 l 500 812 q 494 803 505 803 l 395 803 m 483 817 l 398 993 l 253 993 l 399 817 l 483 817 m 557 85 q 524 49 541 64 q 335 -23 446 -23 q 210 3 267 -23 q 115 85 145 32 q 82 274 82 146 l 82 720 q 89 727 82 727 l 211 727 q 218 720 218 727 l 218 321 q 225 193 218 224 q 271 122 236 148 q 359 96 317 96 q 458 121 413 96 q 525 196 505 149 q 544 334 544 243 l 544 720 q 551 727 544 727 l 673 727 q 680 720 680 727 l 680 0 q 673 -7 680 -7 l 564 -7 q 557 0 557 -7 l 557 85 m 89 713 l 96 720 l 96 274 q 115 120 96 171 q 219 14 141 49 q 335 -9 273 -9 q 515 58 441 -9 q 558 110 535 77 q 566 113 562 115 q 570 106 570 112 l 570 7 l 666 7 l 666 713 l 557 713 l 557 334 q 543 208 557 252 q 473 116 524 150 q 359 82 422 82 q 264 111 313 82 q 212 191 224 140 q 204 321 204 222 l 204 713 l 89 713 z "},"":{"ha":772,"x_min":82,"x_max":680,"o":"m 557 85 q 524 49 541 64 q 335 -23 446 -23 q 210 3 267 -23 q 115 85 145 32 q 82 274 82 146 l 82 720 q 89 727 82 727 l 211 727 q 218 720 218 727 l 218 321 q 225 193 218 224 q 271 122 236 148 q 359 96 317 96 q 458 121 413 96 q 525 196 505 149 q 544 334 544 243 l 544 720 q 551 727 544 727 l 673 727 q 680 720 680 727 l 680 0 q 673 -7 680 -7 l 564 -7 q 557 0 557 -7 l 557 85 m 89 713 l 96 720 l 96 274 q 115 120 96 171 q 219 14 141 49 q 335 -9 273 -9 q 515 58 441 -9 q 558 110 535 77 q 566 113 562 115 q 570 106 570 112 l 570 7 l 666 7 l 666 713 l 557 713 l 557 334 q 543 208 557 252 q 473 116 524 150 q 359 82 422 82 q 264 111 313 82 q 212 191 224 140 q 204 321 204 222 l 204 713 l 89 713 m 546 974 l 414 806 q 408 803 411 804 l 307 803 q 300 809 300 803 q 310 831 302 813 l 387 994 q 397 1006 393 1006 l 557 1006 q 565 1002 565 1006 q 546 974 565 998 m 318 817 l 405 817 l 543 993 l 401 993 l 351 886 q 318 817 346 876 z "},"":{"ha":772,"x_min":82,"x_max":680,"o":"m 557 85 q 524 49 541 64 q 335 -23 446 -23 q 210 3 267 -23 q 115 85 145 32 q 82 274 82 146 l 82 720 q 89 727 82 727 l 211 727 q 218 720 218 727 l 218 321 q 225 193 218 224 q 271 122 236 148 q 359 96 317 96 q 458 121 413 96 q 525 196 505 149 q 544 334 544 243 l 544 720 q 551 727 544 727 l 673 727 q 680 720 680 727 l 680 0 q 673 -7 680 -7 l 564 -7 q 557 0 557 -7 l 557 85 m 89 713 l 96 720 l 96 274 q 115 120 96 171 q 219 14 141 49 q 335 -9 273 -9 q 515 58 441 -9 q 558 110 535 77 q 566 113 562 115 q 570 106 570 112 l 570 7 l 666 7 l 666 713 l 557 713 l 557 334 q 543 208 557 252 q 473 116 524 150 q 359 82 422 82 q 264 111 313 82 q 212 191 224 140 q 204 321 204 222 l 204 713 l 89 713 m 457 803 q 452 806 453 804 l 382 913 l 311 806 q 306 803 309 804 l 166 803 q 161 814 153 803 l 296 989 q 313 1006 309 1006 l 443 1006 q 448 1004 446 1006 l 578 842 q 603 808 603 811 q 595 803 603 803 l 457 803 m 581 817 l 439 993 l 316 993 l 180 817 l 302 817 l 377 929 q 382 933 380 932 q 420 879 386 933 l 460 817 l 581 817 z "},"":{"ha":772,"x_min":82,"x_max":680,"o":"m 557 85 q 524 49 541 64 q 335 -23 446 -23 q 210 3 267 -23 q 115 85 145 32 q 82 274 82 146 l 82 720 q 89 727 82 727 l 211 727 q 218 720 218 727 l 218 321 q 225 193 218 224 q 271 122 236 148 q 359 96 317 96 q 458 121 413 96 q 525 196 505 149 q 544 334 544 243 l 544 720 q 551 727 544 727 l 673 727 q 680 720 680 727 l 680 0 q 673 -7 680 -7 l 564 -7 q 557 0 557 -7 l 557 85 m 89 713 l 96 720 l 96 274 q 115 120 96 171 q 219 14 141 49 q 335 -9 273 -9 q 515 58 441 -9 q 558 110 535 77 q 566 113 562 115 q 570 106 570 112 l 570 7 l 666 7 l 666 713 l 557 713 l 557 334 q 543 208 557 252 q 473 116 524 150 q 359 82 422 82 q 264 111 313 82 q 212 191 224 140 q 204 321 204 222 l 204 713 l 89 713 m 444 854 q 437 861 437 854 l 437 1000 q 444 1007 437 1007 l 571 1007 q 578 1000 578 1007 l 578 861 q 571 854 578 854 l 444 854 m 564 994 l 450 994 l 450 868 l 564 868 l 564 994 m 191 854 q 184 861 184 854 l 184 1000 q 191 1007 184 1007 l 318 1007 q 325 1000 325 1007 l 325 861 q 318 854 325 854 l 191 854 m 197 994 l 197 868 l 311 869 l 311 994 l 197 994 z "},"":{"ha":694,"x_min":16,"x_max":689,"o":"m 356 163 q 450 440 375 236 l 554 722 q 560 727 556 727 l 682 727 q 689 721 689 727 q 676 684 687 713 l 414 -15 q 358 -154 376 -118 q 269 -270 315 -241 q 256 -278 265 -273 q 165 -299 218 -299 q 118 -294 148 -299 q 79 -278 81 -287 l 76 -251 q 68 -189 75 -241 q 66 -161 65 -165 q 75 -156 67 -155 q 142 -167 117 -168 q 167 -165 149 -167 q 242 -119 216 -160 q 279 -29 253 -101 q 287 -5 281 -23 l 288 -1 l 16 718 q 22 727 13 727 l 154 727 q 170 698 159 727 l 252 467 q 356 163 304 321 m 673 713 l 565 713 l 412 298 q 363 135 389 234 q 356 128 361 128 q 349 134 351 128 q 239 462 328 216 l 149 713 l 32 713 l 302 1 q 291 -33 301 -4 q 253 -125 267 -104 q 143 -180 220 -178 q 81 -172 119 -181 l 92 -273 q 165 -286 132 -286 q 262 -258 217 -286 q 402 -9 323 -221 l 673 713 m 524 974 l 391 806 q 386 803 389 804 l 285 803 q 278 809 278 803 q 288 831 279 813 l 365 994 q 375 1006 371 1006 l 535 1006 q 543 1002 543 1006 q 524 974 543 998 m 296 817 l 382 817 l 521 993 l 379 993 l 329 886 q 296 817 323 876 z "},"":{"ha":772,"x_min":85,"x_max":724,"o":"m 570 28 q 404 -23 495 -23 q 220 58 302 -23 l 220 -276 q 214 -283 220 -283 l 92 -283 q 85 -276 85 -283 l 85 994 q 92 1001 85 1001 l 214 1001 q 220 994 220 1001 l 220 661 q 412 743 303 743 q 648 627 564 743 q 724 366 724 523 q 570 28 724 132 m 710 366 q 639 617 710 518 q 412 730 558 730 q 218 640 304 730 q 207 644 207 627 l 207 987 l 98 987 l 98 -269 l 207 -269 l 207 75 q 218 79 207 92 q 404 -9 304 -9 q 563 39 491 -9 q 710 366 710 139 m 209 356 q 248 179 209 249 q 395 91 296 91 q 546 183 496 91 q 585 366 585 256 q 546 543 585 471 q 400 634 496 634 q 251 538 303 634 q 209 356 209 461 m 400 648 q 556 553 503 648 q 599 366 599 477 q 555 174 599 251 q 395 77 501 77 q 238 170 291 77 q 195 356 195 244 q 241 548 195 467 q 400 648 297 648 z "},"":{"ha":694,"x_min":16,"x_max":689,"o":"m 356 163 q 450 440 375 236 l 554 722 q 560 727 556 727 l 682 727 q 689 721 689 727 q 676 684 687 713 l 414 -15 q 358 -154 376 -118 q 269 -270 315 -241 q 256 -278 265 -273 q 165 -299 218 -299 q 118 -294 148 -299 q 79 -278 81 -287 l 76 -251 q 68 -189 75 -241 q 66 -161 65 -165 q 75 -156 67 -155 q 142 -167 117 -168 q 167 -165 149 -167 q 242 -119 216 -160 q 279 -29 253 -101 q 287 -5 281 -23 l 288 -1 l 16 718 q 22 727 13 727 l 154 727 q 170 698 159 727 l 252 467 q 356 163 304 321 m 673 713 l 565 713 l 412 298 q 363 135 389 234 q 356 128 361 128 q 349 134 351 128 q 239 462 328 216 l 149 713 l 32 713 l 302 1 q 291 -33 301 -4 q 253 -125 267 -104 q 143 -180 220 -178 q 81 -172 119 -181 l 92 -273 q 165 -286 132 -286 q 262 -258 217 -286 q 402 -9 323 -221 l 673 713 m 418 854 q 411 861 411 854 l 411 1000 q 418 1007 411 1007 l 545 1007 q 552 1000 552 1007 l 552 861 q 545 854 552 854 l 418 854 m 538 994 l 425 994 l 425 868 l 538 868 l 538 994 m 165 854 q 158 861 158 854 l 158 1000 q 165 1007 158 1007 l 292 1007 q 299 1000 299 1007 l 299 861 q 292 854 299 854 l 165 854 m 172 994 l 172 868 l 286 869 l 286 994 l 172 994 z "},"":{"ha":926,"x_min":-8,"x_max":935,"o":"m 779 -7 q 772 -3 774 -7 l 658 294 l 252 294 l 144 -2 q 138 -7 142 -7 l -2 -7 q -8 -1 -8 -7 q 8 45 -8 2 l 374 997 q 380 1001 375 1001 l 521 1001 q 595 833 524 999 q 768 419 648 709 l 935 3 q 928 -7 939 -7 l 779 -7 m 521 987 l 385 987 l 8 7 l 133 7 l 241 303 q 247 308 243 308 l 663 308 q 669 304 667 308 l 783 7 l 918 7 l 819 250 q 521 987 519 983 m 507 692 q 449 862 474 780 q 378 633 428 766 q 294 415 361 589 l 622 415 l 616 406 l 507 692 m 627 412 q 622 401 631 401 l 285 401 q 279 411 275 401 l 368 646 q 441 891 419 782 q 448 898 442 897 q 454 892 452 898 q 520 697 478 810 l 524 686 l 627 412 m 243 1063 q 237 1070 237 1063 l 237 1171 q 243 1177 237 1177 l 667 1177 q 673 1171 673 1177 l 673 1070 q 667 1063 673 1063 l 243 1063 m 660 1077 l 660 1164 l 250 1164 l 250 1077 l 660 1077 z "},"":{"ha":772,"x_min":43,"x_max":720,"o":"m 586 -7 q 556 76 568 -7 q 296 -23 436 -23 q 66 91 127 -23 q 43 190 43 134 q 134 362 43 301 q 166 380 142 367 q 333 422 223 409 q 545 462 476 439 q 545 489 545 483 q 513 589 545 560 q 378 629 469 629 q 259 602 298 629 q 197 497 216 572 q 190 492 196 491 l 110 503 q 64 516 63 509 q 231 718 97 669 q 396 743 302 743 q 549 721 463 736 q 663 620 635 688 q 682 465 682 574 l 682 149 q 720 3 688 60 q 713 -7 725 -7 l 586 -7 m 702 7 q 676 85 684 44 q 668 302 668 132 l 668 465 q 652 612 668 570 q 543 709 627 677 q 396 730 493 728 q 130 634 209 734 q 79 520 96 590 l 186 506 q 253 614 207 584 q 378 642 295 642 q 559 489 559 642 q 553 451 559 452 q 334 408 483 426 q 233 393 256 399 q 141 351 190 381 q 57 190 57 300 q 203 2 57 42 q 296 -9 245 -9 q 557 94 435 -9 q 568 90 567 102 q 590 7 573 43 l 702 7 m 545 351 q 353 309 477 326 q 271 293 293 300 q 187 193 187 267 q 231 111 187 138 q 326 86 268 86 q 526 197 472 86 q 545 317 545 237 l 545 351 m 549 368 q 558 361 558 372 l 558 317 q 454 104 558 163 q 326 73 398 73 q 221 100 262 73 q 174 193 174 133 q 243 297 174 267 q 351 322 276 311 q 549 368 484 341 m 186 825 q 179 832 179 825 l 179 932 q 186 939 179 939 l 609 939 q 616 932 616 939 l 616 832 q 609 825 616 825 l 186 825 m 602 839 l 602 926 l 193 926 l 193 839 l 602 839 z "},"":{"ha":926,"x_min":-8,"x_max":935,"o":"m 779 -7 q 772 -3 774 -7 l 658 294 l 252 294 l 144 -2 q 138 -7 142 -7 l -2 -7 q -8 -1 -8 -7 q 8 45 -8 2 l 374 997 q 380 1001 375 1001 l 521 1001 q 595 833 524 999 q 768 419 648 709 l 935 3 q 928 -7 939 -7 l 779 -7 m 521 987 l 385 987 l 8 7 l 133 7 l 241 303 q 247 308 243 308 l 663 308 q 669 304 667 308 l 783 7 l 918 7 l 819 250 q 521 987 519 983 m 507 692 q 449 862 474 780 q 378 633 428 766 q 294 415 361 589 l 622 415 l 616 406 l 507 692 m 627 412 q 622 401 631 401 l 285 401 q 279 411 275 401 l 368 646 q 441 891 419 782 q 448 898 442 897 q 454 892 452 898 q 520 697 478 810 l 524 686 l 627 412 m 667 1223 q 602 1094 656 1139 q 461 1048 547 1048 q 254 1230 275 1048 q 260 1238 253 1238 l 344 1238 q 351 1232 349 1238 q 457 1146 368 1146 q 571 1232 554 1146 q 578 1238 572 1238 l 661 1238 q 667 1223 669 1238 m 654 1225 l 654 1232 l 661 1224 l 583 1224 q 457 1133 562 1133 q 338 1224 360 1133 l 268 1224 q 461 1062 292 1062 q 654 1225 635 1062 z "},"":{"ha":772,"x_min":43,"x_max":720,"o":"m 586 -7 q 556 76 568 -7 q 296 -23 436 -23 q 66 91 127 -23 q 43 190 43 134 q 134 362 43 301 q 166 380 142 367 q 333 422 223 409 q 545 462 476 439 q 545 489 545 483 q 513 589 545 560 q 378 629 469 629 q 259 602 298 629 q 197 497 216 572 q 190 492 196 491 l 110 503 q 64 516 63 509 q 231 718 97 669 q 396 743 302 743 q 549 721 463 736 q 663 620 635 688 q 682 465 682 574 l 682 149 q 720 3 688 60 q 713 -7 725 -7 l 586 -7 m 702 7 q 676 85 684 44 q 668 302 668 132 l 668 465 q 652 612 668 570 q 543 709 627 677 q 396 730 493 728 q 130 634 209 734 q 79 520 96 590 l 186 506 q 253 614 207 584 q 378 642 295 642 q 559 489 559 642 q 553 451 559 452 q 334 408 483 426 q 233 393 256 399 q 141 351 190 381 q 57 190 57 300 q 203 2 57 42 q 296 -9 245 -9 q 557 94 435 -9 q 568 90 567 102 q 590 7 573 43 l 702 7 m 545 351 q 353 309 477 326 q 271 293 293 300 q 187 193 187 267 q 231 111 187 138 q 326 86 268 86 q 526 197 472 86 q 545 317 545 237 l 545 351 m 549 368 q 558 361 558 372 l 558 317 q 454 104 558 163 q 326 73 398 73 q 221 100 262 73 q 174 193 174 133 q 243 297 174 267 q 351 322 276 311 q 549 368 484 341 m 604 985 q 538 856 593 901 q 398 810 484 810 q 191 992 212 810 q 197 1000 190 1000 l 281 1000 q 288 994 286 1000 q 394 908 305 908 q 508 994 491 908 q 515 1000 509 1000 l 598 1000 q 604 985 606 1000 m 591 987 l 591 994 l 598 986 l 520 986 q 394 895 499 895 q 275 986 297 895 l 205 986 q 398 824 229 824 q 591 987 572 824 z "},"":{"ha":926,"x_min":-8,"x_max":1057,"o":"m 779 -7 q 772 -3 774 -7 l 658 294 l 252 294 l 144 -2 q 138 -7 142 -7 l -2 -7 q -8 -1 -8 -7 q 8 45 -8 2 l 374 997 q 380 1001 375 1001 l 521 1001 q 595 833 524 999 q 768 419 648 709 l 935 3 q 928 -7 939 -7 l 779 -7 m 521 987 l 385 987 l 8 7 l 133 7 l 241 303 q 247 308 243 308 l 663 308 q 669 304 667 308 l 783 7 l 918 7 l 819 250 q 521 987 519 983 m 507 692 q 449 862 474 780 q 378 633 428 766 q 294 415 361 589 l 622 415 l 616 406 l 507 692 m 627 412 q 622 401 631 401 l 285 401 q 279 411 275 401 l 368 646 q 441 891 419 782 q 448 898 442 897 q 454 892 452 898 q 520 697 478 810 l 524 686 l 627 412 m 1015 -264 q 893 -289 945 -291 q 785 -244 825 -286 q 746 -132 746 -201 q 774 25 746 -73 q 781 30 775 30 l 865 30 q 868 14 875 30 q 845 -88 845 -41 q 870 -157 845 -130 q 936 -184 895 -184 q 1047 -154 985 -184 q 1057 -160 1057 -149 l 1057 -241 q 1015 -264 1057 -248 m 1043 -171 q 936 -198 987 -198 q 860 -167 888 -198 q 831 -88 831 -136 q 854 16 831 -40 l 786 16 q 760 -132 760 -77 q 838 -263 760 -231 q 888 -275 859 -271 l 894 -275 q 910 -276 902 -276 q 1043 -237 964 -276 l 1043 -171 z "},"":{"ha":772,"x_min":43,"x_max":867,"o":"m 586 -7 q 556 76 568 -7 q 296 -23 436 -23 q 66 91 127 -23 q 43 190 43 134 q 134 362 43 301 q 166 380 142 367 q 333 422 223 409 q 545 462 476 439 q 545 489 545 483 q 513 589 545 560 q 378 629 469 629 q 259 602 298 629 q 197 497 216 572 q 190 492 196 491 l 110 503 q 64 516 63 509 q 231 718 97 669 q 396 743 302 743 q 549 721 463 736 q 663 620 635 688 q 682 465 682 574 l 682 149 q 720 3 688 60 q 713 -7 725 -7 l 586 -7 m 702 7 q 676 85 684 44 q 668 302 668 132 l 668 465 q 652 612 668 570 q 543 709 627 677 q 396 730 493 728 q 130 634 209 734 q 79 520 96 590 l 186 506 q 253 614 207 584 q 378 642 295 642 q 559 489 559 642 q 553 451 559 452 q 334 408 483 426 q 233 393 256 399 q 141 351 190 381 q 57 190 57 300 q 203 2 57 42 q 296 -9 245 -9 q 557 94 435 -9 q 568 90 567 102 q 590 7 573 43 l 702 7 m 545 351 q 353 309 477 326 q 271 293 293 300 q 187 193 187 267 q 231 111 187 138 q 326 86 268 86 q 526 197 472 86 q 545 317 545 237 l 545 351 m 549 368 q 558 361 558 372 l 558 317 q 454 104 558 163 q 326 73 398 73 q 221 100 262 73 q 174 193 174 133 q 243 297 174 267 q 351 322 276 311 q 549 368 484 341 m 825 -254 q 703 -279 755 -281 q 595 -234 635 -276 q 556 -122 556 -191 q 584 35 556 -63 q 591 40 585 40 l 675 40 q 678 24 685 40 q 655 -78 655 -31 q 680 -147 655 -120 q 746 -174 705 -174 q 857 -144 795 -174 q 867 -150 867 -139 l 867 -231 q 825 -254 867 -237 m 853 -161 q 746 -188 798 -188 q 670 -157 699 -188 q 642 -78 642 -125 q 665 26 642 -30 l 596 26 q 570 -122 570 -66 q 648 -253 570 -221 q 698 -264 669 -261 l 704 -265 q 720 -266 712 -266 q 853 -227 774 -266 l 853 -161 z "},"":{"ha":1003,"x_min":62,"x_max":955,"o":"m 938 724 q 932 715 940 717 l 803 684 q 795 689 797 683 q 536 892 730 892 q 242 694 309 892 q 212 505 212 604 q 360 149 212 237 q 526 102 437 102 q 810 350 756 102 q 820 355 811 355 q 873 341 825 353 q 952 321 901 339 q 955 315 955 319 q 954 310 954 313 l 952 304 q 803 62 919 154 q 536 -24 695 -24 q 115 235 225 -24 q 62 505 62 360 l 62 505 q 149 824 62 694 q 420 1005 243 964 q 538 1018 476 1018 q 792 942 688 1018 q 938 724 896 866 m 940 311 l 822 340 q 721 158 794 223 q 526 89 644 89 q 349 139 426 89 q 235 281 271 190 q 198 505 198 377 q 347 854 198 758 q 536 905 426 905 q 806 699 738 905 l 922 726 q 781 934 882 861 q 538 1004 681 1004 q 302 946 408 1004 q 134 772 192 885 q 76 505 76 659 l 76 505 q 123 253 76 368 q 279 54 176 121 q 536 -10 378 -10 q 796 73 690 -10 q 939 308 901 157 l 940 311 m 688 1219 l 556 1051 q 551 1048 553 1049 l 450 1048 q 443 1055 443 1048 q 452 1076 444 1059 l 530 1239 q 540 1252 536 1252 l 700 1252 q 707 1247 707 1252 q 688 1219 707 1244 m 460 1062 l 547 1062 l 686 1238 l 544 1238 l 494 1132 q 460 1062 488 1121 z "},"":{"ha":694,"x_min":47,"x_max":688,"o":"m 382 -23 q 179 39 263 -23 q 64 215 96 102 q 47 357 47 277 l 47 359 q 208 699 47 610 q 382 743 288 743 q 577 684 500 743 q 677 510 654 624 q 650 498 679 500 l 553 484 q 545 489 546 483 q 395 629 512 629 l 377 629 q 243 566 277 604 q 186 361 186 500 q 285 116 186 176 q 380 91 326 91 q 555 264 530 91 q 570 271 555 271 q 619 263 549 271 q 659 260 632 262 q 688 247 690 258 q 589 50 669 123 q 382 -23 507 -23 m 673 242 l 567 256 q 380 77 539 77 q 173 361 173 77 q 232 574 173 507 q 374 642 270 618 l 376 643 l 387 643 q 557 498 519 643 l 662 514 q 382 730 616 730 q 214 687 288 730 q 99 559 136 642 q 61 359 61 473 l 61 357 q 235 21 61 104 q 382 -9 299 -9 q 577 59 499 -9 q 673 242 654 125 m 526 974 l 394 806 q 389 803 391 804 l 288 803 q 281 809 281 803 q 290 831 282 813 l 368 994 q 378 1006 374 1006 l 538 1006 q 545 1002 545 1006 q 526 974 545 998 m 298 817 l 385 817 l 524 993 l 382 993 l 332 886 q 298 817 326 876 z "},"":{"ha":1003,"x_min":62,"x_max":955,"o":"m 938 724 q 932 715 940 717 l 803 684 q 795 689 797 683 q 536 892 730 892 q 242 694 309 892 q 212 505 212 604 q 360 149 212 237 q 526 102 437 102 q 810 350 756 102 q 820 355 811 355 q 873 341 825 353 q 952 321 901 339 q 955 315 955 319 q 954 310 954 313 l 952 304 q 803 62 919 154 q 536 -24 695 -24 q 115 235 225 -24 q 62 505 62 360 l 62 505 q 149 824 62 694 q 420 1005 243 964 q 538 1018 476 1018 q 792 942 688 1018 q 938 724 896 866 m 940 311 l 822 340 q 721 158 794 223 q 526 89 644 89 q 349 139 426 89 q 235 281 271 190 q 198 505 198 377 q 347 854 198 758 q 536 905 426 905 q 806 699 738 905 l 922 726 q 781 934 882 861 q 538 1004 681 1004 q 302 946 408 1004 q 134 772 192 885 q 76 505 76 659 l 76 505 q 123 253 76 368 q 279 54 176 121 q 536 -10 378 -10 q 796 73 690 -10 q 939 308 901 157 l 940 311 m 601 1044 q 595 1048 597 1045 l 526 1154 l 455 1047 q 450 1044 452 1045 l 310 1044 q 304 1055 296 1044 l 439 1230 q 456 1248 453 1248 l 587 1248 q 592 1245 590 1247 l 722 1084 q 747 1049 747 1053 q 739 1044 747 1044 l 601 1044 m 725 1058 l 583 1234 l 460 1234 l 323 1058 l 446 1058 l 521 1171 q 526 1175 524 1174 q 564 1120 530 1175 l 604 1058 l 725 1058 z "},"":{"ha":694,"x_min":47,"x_max":688,"o":"m 382 -23 q 179 39 263 -23 q 64 215 96 102 q 47 357 47 277 l 47 359 q 208 699 47 610 q 382 743 288 743 q 577 684 500 743 q 677 510 654 624 q 650 498 679 500 l 553 484 q 545 489 546 483 q 395 629 512 629 l 377 629 q 243 566 277 604 q 186 361 186 500 q 285 116 186 176 q 380 91 326 91 q 555 264 530 91 q 570 271 555 271 q 619 263 549 271 q 659 260 632 262 q 688 247 690 258 q 589 50 669 123 q 382 -23 507 -23 m 673 242 l 567 256 q 380 77 539 77 q 173 361 173 77 q 232 574 173 507 q 374 642 270 618 l 376 643 l 387 643 q 557 498 519 643 l 662 514 q 382 730 616 730 q 214 687 288 730 q 99 559 136 642 q 61 359 61 473 l 61 357 q 235 21 61 104 q 382 -9 299 -9 q 577 59 499 -9 q 673 242 654 125 m 477 803 q 472 806 473 804 l 403 913 l 332 806 q 326 803 329 804 l 186 803 q 181 814 173 803 l 316 989 q 333 1006 330 1006 l 463 1006 q 469 1004 467 1006 l 598 842 q 623 808 623 811 q 616 803 623 803 l 477 803 m 602 817 l 460 993 l 336 993 l 200 817 l 323 817 l 397 929 q 402 933 400 932 q 441 879 406 933 l 481 817 l 602 817 z "},"":{"ha":1003,"x_min":62,"x_max":955,"o":"m 938 724 q 932 715 940 717 l 803 684 q 795 689 797 683 q 536 892 730 892 q 242 694 309 892 q 212 505 212 604 q 360 149 212 237 q 526 102 437 102 q 810 350 756 102 q 820 355 811 355 q 873 341 825 353 q 952 321 901 339 q 955 315 955 319 q 954 310 954 313 l 952 304 q 803 62 919 154 q 536 -24 695 -24 q 115 235 225 -24 q 62 505 62 360 l 62 505 q 149 824 62 694 q 420 1005 243 964 q 538 1018 476 1018 q 792 942 688 1018 q 938 724 896 866 m 940 311 l 822 340 q 721 158 794 223 q 526 89 644 89 q 349 139 426 89 q 235 281 271 190 q 198 505 198 377 q 347 854 198 758 q 536 905 426 905 q 806 699 738 905 l 922 726 q 781 934 882 861 q 538 1004 681 1004 q 302 946 408 1004 q 134 772 192 885 q 76 505 76 659 l 76 505 q 123 253 76 368 q 279 54 176 121 q 536 -10 378 -10 q 796 73 690 -10 q 939 308 901 157 l 940 311 m 448 1074 q 441 1081 441 1074 l 441 1233 q 448 1240 441 1240 l 600 1240 q 606 1233 606 1240 l 606 1081 q 600 1074 606 1074 l 448 1074 m 593 1226 l 455 1226 l 455 1088 l 593 1088 l 593 1226 z "},"":{"ha":694,"x_min":47,"x_max":688,"o":"m 382 -23 q 179 39 263 -23 q 64 215 96 102 q 47 357 47 277 l 47 359 q 208 699 47 610 q 382 743 288 743 q 577 684 500 743 q 677 510 654 624 q 650 498 679 500 l 553 484 q 545 489 546 483 q 395 629 512 629 l 377 629 q 243 566 277 604 q 186 361 186 500 q 285 116 186 176 q 380 91 326 91 q 555 264 530 91 q 570 271 555 271 q 619 263 549 271 q 659 260 632 262 q 688 247 690 258 q 589 50 669 123 q 382 -23 507 -23 m 673 242 l 567 256 q 380 77 539 77 q 173 361 173 77 q 232 574 173 507 q 374 642 270 618 l 376 643 l 387 643 q 557 498 519 643 l 662 514 q 382 730 616 730 q 214 687 288 730 q 99 559 136 642 q 61 359 61 473 l 61 357 q 235 21 61 104 q 382 -9 299 -9 q 577 59 499 -9 q 673 242 654 125 m 318 803 q 311 810 311 803 l 311 962 q 318 968 311 968 l 469 968 q 476 962 476 968 l 476 810 q 469 803 476 803 l 318 803 m 463 955 l 325 955 l 325 817 l 463 817 l 463 955 z "},"":{"ha":1003,"x_min":62,"x_max":955,"o":"m 938 724 q 932 715 940 717 l 803 684 q 795 689 797 683 q 536 892 730 892 q 242 694 309 892 q 212 505 212 604 q 360 149 212 237 q 526 102 437 102 q 810 350 756 102 q 820 355 811 355 q 873 341 825 353 q 952 321 901 339 q 955 315 955 319 q 954 310 954 313 l 952 304 q 803 62 919 154 q 536 -24 695 -24 q 115 235 225 -24 q 62 505 62 360 l 62 505 q 149 824 62 694 q 420 1005 243 964 q 538 1018 476 1018 q 792 942 688 1018 q 938 724 896 866 m 940 311 l 822 340 q 721 158 794 223 q 526 89 644 89 q 349 139 426 89 q 235 281 271 190 q 198 505 198 377 q 347 854 198 758 q 536 905 426 905 q 806 699 738 905 l 922 726 q 781 934 882 861 q 538 1004 681 1004 q 302 946 408 1004 q 134 772 192 885 q 76 505 76 659 l 76 505 q 123 253 76 368 q 279 54 176 121 q 536 -10 378 -10 q 796 73 690 -10 q 939 308 901 157 l 940 311 m 602 1047 q 597 1044 600 1045 l 467 1044 q 461 1047 463 1045 l 315 1237 q 320 1248 307 1248 l 460 1248 q 465 1245 464 1247 l 536 1138 l 561 1176 q 611 1248 607 1248 l 749 1248 q 755 1237 764 1248 l 602 1047 m 735 1234 l 614 1234 l 542 1122 q 537 1118 540 1118 q 498 1172 534 1118 l 456 1234 l 334 1234 l 470 1058 l 593 1058 l 735 1234 z "},"":{"ha":694,"x_min":47,"x_max":688,"o":"m 382 -23 q 179 39 263 -23 q 64 215 96 102 q 47 357 47 277 l 47 359 q 208 699 47 610 q 382 743 288 743 q 577 684 500 743 q 677 510 654 624 q 650 498 679 500 l 553 484 q 545 489 546 483 q 395 629 512 629 l 377 629 q 243 566 277 604 q 186 361 186 500 q 285 116 186 176 q 380 91 326 91 q 555 264 530 91 q 570 271 555 271 q 619 263 549 271 q 659 260 632 262 q 688 247 690 258 q 589 50 669 123 q 382 -23 507 -23 m 673 242 l 567 256 q 380 77 539 77 q 173 361 173 77 q 232 574 173 507 q 374 642 270 618 l 376 643 l 387 643 q 557 498 519 643 l 662 514 q 382 730 616 730 q 214 687 288 730 q 99 559 136 642 q 61 359 61 473 l 61 357 q 235 21 61 104 q 382 -9 299 -9 q 577 59 499 -9 q 673 242 654 125 m 446 806 q 441 803 444 804 l 311 803 q 305 806 307 804 l 159 996 q 164 1006 151 1006 l 304 1006 q 309 1004 308 1006 l 380 897 l 405 935 q 455 1006 451 1006 l 593 1006 q 599 996 608 1006 l 446 806 m 579 993 l 458 993 l 386 881 q 381 876 384 877 q 342 930 378 876 l 300 993 l 178 993 l 314 817 l 437 817 l 579 993 z "},"":{"ha":1003,"x_min":100,"x_max":936,"o":"m 628 987 q 923 646 868 931 q 936 503 936 579 q 748 61 936 186 q 466 -7 646 -7 l 107 -7 q 100 0 100 -7 l 100 994 q 107 1001 100 1001 l 450 1001 q 628 987 566 1001 m 114 987 l 114 7 l 466 7 q 722 62 625 7 q 883 264 831 123 q 922 503 922 370 q 857 795 922 673 q 625 973 779 938 q 450 987 564 987 l 114 987 m 245 870 l 245 124 l 451 124 q 642 158 578 124 q 787 505 787 234 q 613 850 787 787 q 448 870 559 870 l 245 870 m 448 884 q 618 863 562 884 q 800 505 800 795 q 699 182 800 283 q 451 111 627 111 l 239 111 q 232 117 232 111 l 232 877 q 239 884 232 884 l 448 884 m 473 1047 q 467 1044 470 1045 l 337 1044 q 332 1047 334 1045 l 185 1237 q 191 1248 177 1248 l 330 1248 q 336 1245 334 1247 l 407 1138 l 431 1176 q 481 1248 477 1248 l 620 1248 q 625 1237 634 1248 l 473 1047 m 606 1234 l 485 1234 l 412 1122 q 408 1118 410 1118 q 368 1172 404 1118 l 327 1234 l 204 1234 l 340 1058 l 464 1058 l 606 1234 z "},"":{"ha":854,"x_min":41,"x_max":863,"o":"m 757 686 q 749 688 751 684 q 717 739 718 736 q 721 745 717 743 q 786 862 782 772 l 731 862 q 724 869 724 862 l 724 994 q 731 1001 724 1001 l 856 1001 q 863 994 863 1001 l 863 869 q 757 686 863 732 m 849 869 l 849 987 l 738 987 l 738 876 l 793 876 q 801 860 801 876 q 734 736 801 771 l 757 701 q 849 869 849 744 m 559 -7 q 553 0 553 -7 l 553 69 q 358 -23 483 -23 q 193 28 267 -23 q 81 162 121 77 q 41 359 41 247 q 189 695 41 599 q 353 743 262 743 q 545 657 471 743 l 545 994 q 551 1001 545 1001 l 673 1001 q 680 994 680 1001 l 680 0 q 673 -7 680 -7 l 559 -7 m 566 7 l 666 7 l 666 987 l 558 987 l 558 637 q 554 630 558 631 q 546 633 549 629 q 353 730 476 730 q 194 683 263 730 q 90 553 124 636 q 55 359 55 467 q 203 37 55 134 q 358 -9 274 -9 q 554 94 488 -9 q 562 98 557 100 q 566 91 566 97 l 566 7 m 364 629 q 217 538 264 629 q 180 359 180 469 q 221 181 180 254 q 370 91 272 91 q 515 176 467 91 q 555 349 555 244 q 516 535 555 461 q 364 629 467 629 m 568 349 q 525 166 568 239 q 370 77 472 77 q 212 171 266 77 q 167 359 167 248 q 207 549 167 475 q 364 642 258 642 q 526 545 473 642 q 568 349 568 467 z "},"":{"ha":1003,"x_min":-9,"x_max":936,"o":"m 887 238 q 612 5 805 51 q 466 -7 564 -7 l 107 -7 q 100 0 100 -7 l 100 446 l -2 446 q -9 452 -9 446 l -9 542 q -2 549 -9 549 l 100 549 l 100 994 q 107 1001 100 1001 l 450 1001 q 623 987 559 1001 q 777 914 713 968 q 936 503 936 779 q 887 238 936 349 m 922 503 q 857 795 922 675 q 625 973 779 938 q 450 987 564 987 l 114 987 l 114 542 q 107 535 114 535 l 5 535 l 5 459 l 107 459 q 114 452 114 459 l 114 7 l 466 7 q 762 87 652 7 q 887 276 844 149 q 922 503 922 382 m 761 688 q 604 854 711 820 q 448 870 552 870 l 245 870 l 245 549 l 513 549 q 519 542 519 549 l 519 452 q 513 446 519 446 l 245 446 l 245 124 l 451 124 q 644 159 578 124 q 787 504 787 236 q 761 688 787 619 m 800 504 q 699 182 800 283 q 451 111 627 111 l 239 111 q 232 117 232 111 l 232 452 q 239 459 232 459 l 506 459 l 506 535 l 239 535 q 232 542 232 535 l 232 877 q 239 884 232 884 l 448 884 q 585 873 539 884 q 704 807 654 857 q 800 504 800 711 z "},"":{"ha":772,"x_min":41,"x_max":777,"o":"m 316 820 q 309 827 309 820 l 309 916 q 316 923 309 923 l 544 923 l 544 994 q 551 1001 544 1001 l 672 1001 q 679 994 679 1001 l 679 923 l 770 923 q 777 916 777 923 l 777 827 q 770 820 777 820 l 679 820 l 679 0 q 672 -7 679 -7 l 559 -7 q 552 0 552 -7 l 552 69 q 357 -23 482 -23 q 192 28 267 -23 q 80 162 120 77 q 41 359 41 247 q 188 695 41 599 q 352 743 262 743 q 544 657 470 743 l 544 820 l 316 820 m 323 833 l 551 833 q 557 827 557 833 l 557 637 q 553 630 557 631 q 545 633 549 629 q 352 730 475 730 q 193 683 262 730 q 90 553 123 636 q 54 359 54 467 q 203 37 54 134 q 357 -9 273 -9 q 553 94 487 -9 q 561 98 557 100 q 566 91 566 97 l 566 7 l 665 7 l 665 827 q 672 833 665 833 l 764 833 l 764 909 l 672 909 q 665 916 665 909 l 665 987 l 557 987 l 557 916 q 551 909 557 909 l 323 909 l 323 833 m 369 91 q 515 176 466 91 q 554 349 554 244 q 515 535 554 461 q 363 629 467 629 q 216 538 264 629 q 180 359 180 469 q 220 181 180 254 q 369 91 271 91 m 166 359 q 206 549 166 475 q 363 642 257 642 q 526 545 473 642 q 568 349 568 467 q 524 166 568 239 q 369 77 471 77 q 211 171 265 77 q 166 359 166 248 z "},"":{"ha":926,"x_min":103,"x_max":859,"o":"m 248 449 l 248 124 l 852 124 q 859 117 859 124 l 859 0 q 852 -7 859 -7 l 110 -7 q 103 0 103 -7 l 103 994 q 110 1001 103 1001 l 829 1001 q 836 994 836 1001 l 836 877 q 829 870 836 870 l 248 870 l 248 579 l 791 579 q 798 572 798 579 l 798 456 q 791 449 798 449 l 248 449 m 822 987 l 117 987 l 117 7 l 845 7 l 845 111 l 241 111 q 235 117 235 111 l 235 456 q 241 463 235 463 l 785 463 l 785 566 l 241 566 q 235 572 235 566 l 235 877 q 241 884 235 884 l 822 884 l 822 987 m 281 1071 q 274 1078 274 1071 l 274 1178 q 281 1185 274 1185 l 704 1185 q 711 1178 711 1185 l 711 1078 q 704 1071 711 1071 l 281 1071 m 697 1084 l 697 1171 l 288 1171 l 288 1084 l 697 1084 z "},"":{"ha":772,"x_min":44,"x_max":722,"o":"m 44 357 q 130 630 44 525 q 387 743 222 743 q 593 676 509 743 q 707 490 678 608 q 722 361 722 432 q 721 329 722 357 q 714 322 721 322 l 184 322 q 300 113 195 168 q 395 91 342 91 q 578 234 527 91 q 585 239 580 239 l 648 231 q 711 223 659 229 q 718 214 720 222 q 394 -23 653 -23 q 132 82 224 -23 q 44 354 44 182 l 44 357 m 58 357 l 58 354 q 142 92 58 189 q 394 -9 231 -9 q 702 211 638 -9 l 589 224 q 395 77 534 77 q 231 153 291 77 q 170 328 176 220 q 177 336 170 336 l 707 336 q 708 361 708 353 q 629 621 708 522 q 387 730 543 730 q 140 621 228 730 q 58 357 58 519 m 191 436 l 578 436 q 524 573 569 522 q 391 629 473 629 l 389 629 q 251 574 305 629 q 191 436 199 521 m 389 643 l 391 643 q 545 570 484 643 q 593 430 585 523 q 586 422 593 422 l 184 422 q 177 430 176 422 q 239 582 183 523 q 389 643 297 643 m 172 825 q 165 832 165 825 l 165 932 q 172 939 165 939 l 595 939 q 602 932 602 939 l 602 832 q 595 825 602 825 l 172 825 m 588 839 l 588 926 l 178 926 l 178 839 l 588 839 z "},"":{"ha":926,"x_min":103,"x_max":859,"o":"m 248 449 l 248 124 l 852 124 q 859 117 859 124 l 859 0 q 852 -7 859 -7 l 110 -7 q 103 0 103 -7 l 103 994 q 110 1001 103 1001 l 829 1001 q 836 994 836 1001 l 836 877 q 829 870 836 870 l 248 870 l 248 579 l 791 579 q 798 572 798 579 l 798 456 q 791 449 798 449 l 248 449 m 822 987 l 117 987 l 117 7 l 845 7 l 845 111 l 241 111 q 235 117 235 111 l 235 456 q 241 463 235 463 l 785 463 l 785 566 l 241 566 q 235 572 235 566 l 235 877 q 241 884 235 884 l 822 884 l 822 987 m 684 1231 q 618 1101 673 1147 q 478 1056 564 1056 q 271 1238 292 1056 q 277 1245 270 1245 l 361 1245 q 368 1240 366 1245 q 474 1154 385 1154 q 588 1240 571 1154 q 595 1245 589 1245 l 678 1245 q 684 1231 686 1245 m 671 1233 l 671 1239 l 678 1232 l 600 1232 q 474 1140 579 1140 q 355 1232 377 1140 l 285 1232 q 478 1069 309 1069 q 671 1233 652 1069 z "},"":{"ha":772,"x_min":44,"x_max":722,"o":"m 44 357 q 130 630 44 525 q 387 743 222 743 q 593 676 509 743 q 707 490 678 608 q 722 361 722 432 q 721 329 722 357 q 714 322 721 322 l 184 322 q 300 113 195 168 q 395 91 342 91 q 578 234 527 91 q 585 239 580 239 l 648 231 q 711 223 659 229 q 718 214 720 222 q 394 -23 653 -23 q 132 82 224 -23 q 44 354 44 182 l 44 357 m 58 357 l 58 354 q 142 92 58 189 q 394 -9 231 -9 q 702 211 638 -9 l 589 224 q 395 77 534 77 q 231 153 291 77 q 170 328 176 220 q 177 336 170 336 l 707 336 q 708 361 708 353 q 629 621 708 522 q 387 730 543 730 q 140 621 228 730 q 58 357 58 519 m 191 436 l 578 436 q 524 573 569 522 q 391 629 473 629 l 389 629 q 251 574 305 629 q 191 436 199 521 m 389 643 l 391 643 q 545 570 484 643 q 593 430 585 523 q 586 422 593 422 l 184 422 q 177 430 176 422 q 239 582 183 523 q 389 643 297 643 m 604 985 q 538 856 593 901 q 397 810 483 810 q 190 992 212 810 q 197 1000 189 1000 l 280 1000 q 287 994 286 1000 q 393 908 304 908 q 507 994 490 908 q 514 1000 509 1000 l 597 1000 q 604 985 606 1000 m 590 987 l 591 994 l 597 986 l 519 986 q 393 895 498 895 q 275 986 296 895 l 204 986 q 397 824 228 824 q 590 987 572 824 z "},"":{"ha":926,"x_min":103,"x_max":859,"o":"m 248 449 l 248 124 l 852 124 q 859 117 859 124 l 859 0 q 852 -7 859 -7 l 110 -7 q 103 0 103 -7 l 103 994 q 110 1001 103 1001 l 829 1001 q 836 994 836 1001 l 836 877 q 829 870 836 870 l 248 870 l 248 579 l 791 579 q 798 572 798 579 l 798 456 q 791 449 798 449 l 248 449 m 822 987 l 117 987 l 117 7 l 845 7 l 845 111 l 241 111 q 235 117 235 111 l 235 456 q 241 463 235 463 l 785 463 l 785 566 l 241 566 q 235 572 235 566 l 235 877 q 241 884 235 884 l 822 884 l 822 987 m 416 1048 q 410 1055 410 1048 l 410 1207 q 416 1214 410 1214 l 568 1214 q 574 1207 574 1214 l 574 1055 q 568 1048 574 1048 l 416 1048 m 561 1200 l 423 1200 l 423 1062 l 561 1062 l 561 1200 z "},"":{"ha":772,"x_min":44,"x_max":722,"o":"m 44 357 q 130 630 44 525 q 387 743 222 743 q 593 676 509 743 q 707 490 678 608 q 722 361 722 432 q 721 329 722 357 q 714 322 721 322 l 184 322 q 300 113 195 168 q 395 91 342 91 q 578 234 527 91 q 585 239 580 239 l 648 231 q 711 223 659 229 q 718 214 720 222 q 394 -23 653 -23 q 132 82 224 -23 q 44 354 44 182 l 44 357 m 58 357 l 58 354 q 142 92 58 189 q 394 -9 231 -9 q 702 211 638 -9 l 589 224 q 395 77 534 77 q 231 153 291 77 q 170 328 176 220 q 177 336 170 336 l 707 336 q 708 361 708 353 q 629 621 708 522 q 387 730 543 730 q 140 621 228 730 q 58 357 58 519 m 191 436 l 578 436 q 524 573 569 522 q 391 629 473 629 l 389 629 q 251 574 305 629 q 191 436 199 521 m 389 643 l 391 643 q 545 570 484 643 q 593 430 585 523 q 586 422 593 422 l 184 422 q 177 430 176 422 q 239 582 183 523 q 389 643 297 643 m 325 803 q 318 810 318 803 l 318 962 q 325 968 318 968 l 476 968 q 483 962 483 968 l 483 810 q 476 803 483 803 l 325 803 m 469 955 l 332 955 l 332 817 l 469 817 l 469 955 z "},"":{"ha":926,"x_min":103,"x_max":859,"o":"m 248 449 l 248 124 l 852 124 q 859 117 859 124 l 859 0 q 852 -7 859 -7 l 110 -7 q 103 0 103 -7 l 103 994 q 110 1001 103 1001 l 829 1001 q 836 994 836 1001 l 836 877 q 829 870 836 870 l 248 870 l 248 579 l 791 579 q 798 572 798 579 l 798 456 q 791 449 798 449 l 248 449 m 822 987 l 117 987 l 117 7 l 845 7 l 845 111 l 241 111 q 235 117 235 111 l 235 456 q 241 463 235 463 l 785 463 l 785 566 l 241 566 q 235 572 235 566 l 235 877 q 241 884 235 884 l 822 884 l 822 987 m 814 -271 q 693 -296 745 -298 q 585 -251 625 -293 q 546 -139 546 -208 q 574 18 546 -80 q 581 23 575 23 l 665 23 q 668 7 675 23 q 645 -95 645 -48 q 670 -164 645 -137 q 736 -191 694 -191 q 847 -161 785 -191 q 857 -167 857 -156 l 857 -248 q 814 -271 857 -254 m 843 -178 q 736 -205 787 -205 q 660 -174 688 -205 q 631 -95 631 -142 q 654 9 631 -47 l 586 9 q 559 -139 559 -83 q 638 -270 559 -238 q 688 -281 659 -278 l 694 -282 q 710 -283 702 -283 q 843 -243 764 -283 l 843 -178 z "},"":{"ha":772,"x_min":44,"x_max":722,"o":"m 44 357 q 130 630 44 525 q 387 743 222 743 q 593 676 509 743 q 707 490 678 608 q 722 361 722 432 q 721 329 722 357 q 714 322 721 322 l 184 322 q 300 113 195 168 q 395 91 342 91 q 578 234 527 91 q 585 239 580 239 l 648 231 q 711 223 659 229 q 718 214 720 222 q 394 -23 653 -23 q 132 82 224 -23 q 44 354 44 182 l 44 357 m 58 357 l 58 354 q 142 92 58 189 q 394 -9 231 -9 q 702 211 638 -9 l 589 224 q 395 77 534 77 q 231 153 291 77 q 170 328 176 220 q 177 336 170 336 l 707 336 q 708 361 708 353 q 629 621 708 522 q 387 730 543 730 q 140 621 228 730 q 58 357 58 519 m 191 436 l 578 436 q 524 573 569 522 q 391 629 473 629 l 389 629 q 251 574 305 629 q 191 436 199 521 m 389 643 l 391 643 q 545 570 484 643 q 593 430 585 523 q 586 422 593 422 l 184 422 q 177 430 176 422 q 239 582 183 523 q 389 643 297 643 m 601 -271 q 479 -296 531 -298 q 372 -251 411 -293 q 332 -139 332 -208 q 360 18 332 -80 q 367 23 361 23 l 451 23 q 454 7 461 23 q 431 -95 431 -48 q 456 -164 431 -137 q 522 -191 481 -191 q 633 -161 571 -191 q 643 -167 643 -156 l 643 -248 q 601 -271 643 -254 m 629 -178 q 522 -205 574 -205 q 446 -174 475 -205 q 418 -95 418 -142 q 441 9 418 -47 l 372 9 q 346 -139 346 -83 q 425 -270 346 -238 q 474 -281 446 -278 l 480 -282 q 496 -283 488 -283 q 629 -243 551 -283 l 629 -178 z "},"":{"ha":926,"x_min":103,"x_max":859,"o":"m 248 449 l 248 124 l 852 124 q 859 117 859 124 l 859 0 q 852 -7 859 -7 l 110 -7 q 103 0 103 -7 l 103 994 q 110 1001 103 1001 l 829 1001 q 836 994 836 1001 l 836 877 q 829 870 836 870 l 248 870 l 248 579 l 791 579 q 798 572 798 579 l 798 456 q 791 449 798 449 l 248 449 m 822 987 l 117 987 l 117 7 l 845 7 l 845 111 l 241 111 q 235 117 235 111 l 235 456 q 241 463 235 463 l 785 463 l 785 566 l 241 566 q 235 572 235 566 l 235 877 q 241 884 235 884 l 822 884 l 822 987 m 517 1047 q 512 1044 515 1045 l 382 1044 q 376 1047 378 1045 l 230 1237 q 235 1248 222 1248 l 375 1248 q 380 1245 379 1247 l 452 1138 l 476 1176 q 526 1248 522 1248 l 665 1248 q 670 1237 679 1248 l 517 1047 m 650 1234 l 530 1234 l 457 1122 q 452 1118 455 1118 q 413 1172 449 1118 l 372 1234 l 249 1234 l 385 1058 l 509 1058 l 650 1234 z "},"":{"ha":772,"x_min":44,"x_max":722,"o":"m 44 357 q 130 630 44 525 q 387 743 222 743 q 593 676 509 743 q 707 490 678 608 q 722 361 722 432 q 721 329 722 357 q 714 322 721 322 l 184 322 q 300 113 195 168 q 395 91 342 91 q 578 234 527 91 q 585 239 580 239 l 648 231 q 711 223 659 229 q 718 214 720 222 q 394 -23 653 -23 q 132 82 224 -23 q 44 354 44 182 l 44 357 m 58 357 l 58 354 q 142 92 58 189 q 394 -9 231 -9 q 702 211 638 -9 l 589 224 q 395 77 534 77 q 231 153 291 77 q 170 328 176 220 q 177 336 170 336 l 707 336 q 708 361 708 353 q 629 621 708 522 q 387 730 543 730 q 140 621 228 730 q 58 357 58 519 m 191 436 l 578 436 q 524 573 569 522 q 391 629 473 629 l 389 629 q 251 574 305 629 q 191 436 199 521 m 389 643 l 391 643 q 545 570 484 643 q 593 430 585 523 q 586 422 593 422 l 184 422 q 177 430 176 422 q 239 582 183 523 q 389 643 297 643 m 461 806 q 456 803 458 804 l 326 803 q 320 806 322 804 l 174 996 q 179 1006 165 1006 l 319 1006 q 324 1004 323 1006 l 395 897 l 420 935 q 470 1006 466 1006 l 608 1006 q 614 996 623 1006 l 461 806 m 594 993 l 473 993 l 401 881 q 396 876 399 877 q 357 930 393 876 l 315 993 l 193 993 l 329 817 l 452 817 l 594 993 z "},"":{"ha":1080,"x_min":67,"x_max":1000,"o":"m 858 383 l 572 383 q 566 390 566 383 l 566 507 q 572 513 566 513 l 994 514 q 1000 507 1000 514 l 1000 138 q 981 121 1000 135 l 963 107 q 582 -24 786 -24 q 316 33 433 -24 q 129 224 184 98 l 129 225 q 67 492 67 446 q 122 762 67 642 q 306 956 186 902 l 307 956 q 572 1018 525 1018 q 909 883 802 1018 q 933 843 915 873 q 985 718 969 782 q 965 705 987 711 l 862 677 q 853 682 855 675 q 800 798 831 757 q 572 892 702 892 q 223 591 273 892 q 216 500 216 549 q 391 151 216 238 q 574 109 477 109 q 724 136 646 109 q 858 208 806 163 l 858 383 m 987 142 l 987 500 l 579 500 l 579 397 l 865 397 q 871 390 871 397 l 871 205 q 744 128 871 180 q 574 95 661 95 q 380 142 466 95 q 243 287 288 193 q 203 500 203 374 q 294 792 203 685 q 572 905 391 905 q 809 808 711 905 l 810 807 q 865 692 838 779 l 918 707 l 970 721 q 898 875 951 792 q 572 1004 795 1004 q 312 944 475 1004 q 136 751 197 882 q 81 492 81 634 q 141 230 81 397 q 326 47 203 111 q 582 -10 439 -10 q 956 118 787 -10 l 987 142 m 665 1041 q 659 1044 661 1042 l 590 1151 l 519 1044 q 513 1041 516 1042 l 374 1041 q 368 1052 360 1041 l 503 1227 q 520 1244 517 1244 l 650 1244 q 656 1242 654 1244 l 785 1080 q 810 1046 810 1049 q 803 1041 810 1041 l 665 1041 m 789 1055 l 647 1231 l 524 1231 l 387 1055 l 510 1055 l 585 1167 q 589 1171 587 1171 q 628 1117 593 1171 l 668 1055 l 789 1055 z "},"":{"ha":772,"x_min":38,"x_max":686,"o":"m 549 77 q 356 -7 470 -7 q 117 106 205 -7 q 38 364 38 208 q 116 627 38 523 q 357 743 203 743 q 560 652 478 743 l 560 720 q 567 727 560 727 l 680 727 q 686 720 686 727 l 686 98 q 651 -144 686 -71 q 354 -299 576 -299 q 149 -245 225 -299 q 62 -60 60 -183 q 76 -52 62 -52 q 134 -62 66 -52 l 189 -71 q 201 -100 193 -71 q 233 -152 210 -134 q 353 -184 277 -184 q 540 -60 507 -184 q 549 77 549 -27 m 354 -286 q 640 -138 567 -286 q 673 98 673 -70 l 673 713 l 574 713 l 574 633 q 570 626 574 627 q 562 629 566 625 q 357 730 481 730 q 125 618 208 730 q 52 364 52 517 q 127 115 52 214 q 356 7 210 7 q 550 99 471 7 q 558 102 553 103 q 562 94 562 100 q 553 -64 563 -28 q 353 -198 518 -198 q 182 -83 201 -198 l 76 -68 q 162 -237 76 -180 q 354 -286 235 -286 m 366 629 q 218 545 269 629 q 177 373 177 476 q 216 194 177 262 q 368 108 265 108 q 559 369 559 108 q 516 545 559 475 q 366 629 465 629 m 572 369 q 528 182 572 254 q 368 94 475 94 q 206 184 258 94 q 163 373 163 256 q 209 555 163 481 q 366 642 263 642 q 526 554 470 642 q 572 369 572 479 m 444 803 q 438 806 439 804 l 369 913 l 298 806 q 292 803 295 804 l 153 803 q 147 814 139 803 l 282 989 q 299 1006 296 1006 l 429 1006 q 435 1004 433 1006 l 564 842 q 589 808 589 811 q 582 803 589 803 l 444 803 m 568 817 l 426 993 l 302 993 l 166 817 l 289 817 l 363 929 q 368 933 366 932 q 407 879 372 933 l 447 817 l 568 817 z "},"":{"ha":1080,"x_min":67,"x_max":1000,"o":"m 858 383 l 572 383 q 566 390 566 383 l 566 507 q 572 513 566 513 l 994 514 q 1000 507 1000 514 l 1000 138 q 981 121 1000 135 l 963 107 q 582 -24 786 -24 q 316 33 433 -24 q 129 224 184 98 l 129 225 q 67 492 67 446 q 122 762 67 642 q 306 956 186 902 l 307 956 q 572 1018 525 1018 q 909 883 802 1018 q 933 843 915 873 q 985 718 969 782 q 965 705 987 711 l 862 677 q 853 682 855 675 q 800 798 831 757 q 572 892 702 892 q 223 591 273 892 q 216 500 216 549 q 391 151 216 238 q 574 109 477 109 q 724 136 646 109 q 858 208 806 163 l 858 383 m 987 142 l 987 500 l 579 500 l 579 397 l 865 397 q 871 390 871 397 l 871 205 q 744 128 871 180 q 574 95 661 95 q 380 142 466 95 q 243 287 288 193 q 203 500 203 374 q 294 792 203 685 q 572 905 391 905 q 809 808 711 905 l 810 807 q 865 692 838 779 l 918 707 l 970 721 q 898 875 951 792 q 572 1004 795 1004 q 312 944 475 1004 q 136 751 197 882 q 81 492 81 634 q 141 230 81 397 q 326 47 203 111 q 582 -10 439 -10 q 956 118 787 -10 l 987 142 m 795 1223 q 729 1094 784 1139 q 589 1048 674 1048 q 381 1230 403 1048 q 388 1238 380 1238 l 471 1238 q 478 1232 477 1238 q 585 1146 496 1146 q 699 1232 682 1146 q 705 1238 700 1238 l 789 1238 q 795 1223 797 1238 m 781 1225 l 782 1232 l 789 1224 l 711 1224 q 585 1133 690 1133 q 466 1224 488 1133 l 395 1224 q 589 1062 419 1062 q 781 1225 763 1062 z "},"":{"ha":772,"x_min":38,"x_max":686,"o":"m 549 77 q 356 -7 470 -7 q 117 106 205 -7 q 38 364 38 208 q 116 627 38 523 q 357 743 203 743 q 560 652 478 743 l 560 720 q 567 727 560 727 l 680 727 q 686 720 686 727 l 686 98 q 651 -144 686 -71 q 354 -299 576 -299 q 149 -245 225 -299 q 62 -60 60 -183 q 76 -52 62 -52 q 134 -62 66 -52 l 189 -71 q 201 -100 193 -71 q 233 -152 210 -134 q 353 -184 277 -184 q 540 -60 507 -184 q 549 77 549 -27 m 354 -286 q 640 -138 567 -286 q 673 98 673 -70 l 673 713 l 574 713 l 574 633 q 570 626 574 627 q 562 629 566 625 q 357 730 481 730 q 125 618 208 730 q 52 364 52 517 q 127 115 52 214 q 356 7 210 7 q 550 99 471 7 q 558 102 553 103 q 562 94 562 100 q 553 -64 563 -28 q 353 -198 518 -198 q 182 -83 201 -198 l 76 -68 q 162 -237 76 -180 q 354 -286 235 -286 m 366 629 q 218 545 269 629 q 177 373 177 476 q 216 194 177 262 q 368 108 265 108 q 559 369 559 108 q 516 545 559 475 q 366 629 465 629 m 572 369 q 528 182 572 254 q 368 94 475 94 q 206 184 258 94 q 163 373 163 256 q 209 555 163 481 q 366 642 263 642 q 526 554 470 642 q 572 369 572 479 m 593 985 q 527 856 582 901 q 387 810 472 810 q 179 992 201 810 q 186 1000 178 1000 l 269 1000 q 276 994 275 1000 q 382 908 294 908 q 496 994 479 908 q 503 1000 498 1000 l 587 1000 q 593 985 595 1000 m 579 987 l 580 994 l 587 986 l 509 986 q 382 895 488 895 q 264 986 286 895 l 193 986 q 387 824 217 824 q 579 987 561 824 z "},"":{"ha":1080,"x_min":67,"x_max":1000,"o":"m 858 383 l 572 383 q 566 390 566 383 l 566 507 q 572 513 566 513 l 994 514 q 1000 507 1000 514 l 1000 138 q 981 121 1000 135 l 963 107 q 582 -24 786 -24 q 316 33 433 -24 q 129 224 184 98 l 129 225 q 67 492 67 446 q 122 762 67 642 q 306 956 186 902 l 307 956 q 572 1018 525 1018 q 909 883 802 1018 q 933 843 915 873 q 985 718 969 782 q 965 705 987 711 l 862 677 q 853 682 855 675 q 800 798 831 757 q 572 892 702 892 q 223 591 273 892 q 216 500 216 549 q 391 151 216 238 q 574 109 477 109 q 724 136 646 109 q 858 208 806 163 l 858 383 m 987 142 l 987 500 l 579 500 l 579 397 l 865 397 q 871 390 871 397 l 871 205 q 744 128 871 180 q 574 95 661 95 q 380 142 466 95 q 243 287 288 193 q 203 500 203 374 q 294 792 203 685 q 572 905 391 905 q 809 808 711 905 l 810 807 q 865 692 838 779 l 918 707 l 970 721 q 898 875 951 792 q 572 1004 795 1004 q 312 944 475 1004 q 136 751 197 882 q 81 492 81 634 q 141 230 81 397 q 326 47 203 111 q 582 -10 439 -10 q 956 118 787 -10 l 987 142 m 512 1041 q 505 1048 505 1041 l 505 1200 q 512 1206 505 1206 l 663 1206 q 670 1200 670 1206 l 670 1048 q 663 1041 670 1041 l 512 1041 m 656 1193 l 519 1193 l 519 1055 l 656 1055 l 656 1193 z "},"":{"ha":772,"x_min":38,"x_max":686,"o":"m 549 77 q 356 -7 470 -7 q 117 106 205 -7 q 38 364 38 208 q 116 627 38 523 q 357 743 203 743 q 560 652 478 743 l 560 720 q 567 727 560 727 l 680 727 q 686 720 686 727 l 686 98 q 651 -144 686 -71 q 354 -299 576 -299 q 149 -245 225 -299 q 62 -60 60 -183 q 76 -52 62 -52 q 134 -62 66 -52 l 189 -71 q 201 -100 193 -71 q 233 -152 210 -134 q 353 -184 277 -184 q 540 -60 507 -184 q 549 77 549 -27 m 354 -286 q 640 -138 567 -286 q 673 98 673 -70 l 673 713 l 574 713 l 574 633 q 570 626 574 627 q 562 629 566 625 q 357 730 481 730 q 125 618 208 730 q 52 364 52 517 q 127 115 52 214 q 356 7 210 7 q 550 99 471 7 q 558 102 553 103 q 562 94 562 100 q 553 -64 563 -28 q 353 -198 518 -198 q 182 -83 201 -198 l 76 -68 q 162 -237 76 -180 q 354 -286 235 -286 m 366 629 q 218 545 269 629 q 177 373 177 476 q 216 194 177 262 q 368 108 265 108 q 559 369 559 108 q 516 545 559 475 q 366 629 465 629 m 572 369 q 528 182 572 254 q 368 94 475 94 q 206 184 258 94 q 163 373 163 256 q 209 555 163 481 q 366 642 263 642 q 526 554 470 642 q 572 369 572 479 m 310 803 q 303 810 303 803 l 303 962 q 310 968 303 968 l 461 968 q 468 962 468 968 l 468 810 q 461 803 468 803 l 310 803 m 454 955 l 317 955 l 317 817 l 454 817 l 454 955 z "},"":{"ha":1080,"x_min":67,"x_max":1000,"o":"m 858 383 l 572 383 q 566 390 566 383 l 566 507 q 572 513 566 513 l 994 514 q 1000 507 1000 514 l 1000 138 q 981 121 1000 135 l 963 107 q 582 -24 786 -24 q 316 33 433 -24 q 129 224 184 98 l 129 225 q 67 492 67 446 q 122 762 67 642 q 306 956 186 902 l 307 956 q 572 1018 525 1018 q 909 883 802 1018 q 933 843 915 873 q 985 718 969 782 q 965 705 987 711 l 862 677 q 853 682 855 675 q 800 798 831 757 q 572 892 702 892 q 223 591 273 892 q 216 500 216 549 q 391 151 216 238 q 574 109 477 109 q 724 136 646 109 q 858 208 806 163 l 858 383 m 987 142 l 987 500 l 579 500 l 579 397 l 865 397 q 871 390 871 397 l 871 205 q 744 128 871 180 q 574 95 661 95 q 380 142 466 95 q 243 287 288 193 q 203 500 203 374 q 294 792 203 685 q 572 905 391 905 q 809 808 711 905 l 810 807 q 865 692 838 779 l 918 707 l 970 721 q 898 875 951 792 q 572 1004 795 1004 q 312 944 475 1004 q 136 751 197 882 q 81 492 81 634 q 141 230 81 397 q 326 47 203 111 q 582 -10 439 -10 q 956 118 787 -10 l 987 142 m 531 -292 q 432 -284 475 -292 q 427 -277 426 -283 l 434 -197 q 441 -191 435 -191 q 505 -194 481 -194 q 607 -150 607 -194 q 507 -111 607 -113 q 500 -104 500 -111 q 519 -39 504 -93 l 536 18 q 543 22 538 22 l 633 22 q 640 16 640 22 q 620 -52 637 5 q 734 -157 734 -68 q 663 -264 734 -227 q 531 -292 608 -292 m 720 -157 q 610 -64 720 -77 q 604 -55 604 -63 q 624 9 607 -46 l 547 9 l 516 -98 q 621 -150 621 -100 q 505 -208 621 -208 q 470 -206 516 -208 l 447 -205 l 441 -272 q 531 -279 480 -279 q 654 -254 602 -279 q 720 -157 720 -221 z "},"":{"ha":772,"x_min":38,"x_max":686,"o":"m 435 793 q 429 787 435 787 l 287 787 q 280 793 280 787 l 280 873 q 398 1075 280 1029 q 406 1072 403 1077 q 444 1013 444 1015 q 440 1006 444 1008 q 372 919 384 983 l 429 919 q 435 912 435 919 l 435 793 m 422 800 l 422 905 l 363 905 q 356 918 356 905 q 374 966 356 938 q 427 1015 396 1000 l 398 1061 q 294 873 294 1017 l 294 800 l 422 800 m 189 -71 q 195 -77 194 -71 q 353 -184 205 -184 q 536 -75 507 -184 q 549 77 548 -29 q 358 -7 471 -7 q 119 105 206 -7 q 38 363 38 207 q 115 628 38 525 q 358 743 201 743 q 560 652 478 743 l 560 720 q 567 727 560 727 l 680 727 q 686 720 686 727 l 686 98 q 664 -109 686 -40 q 532 -261 630 -213 q 357 -299 454 -299 q 150 -245 228 -299 q 62 -60 59 -183 q 70 -53 62 -52 l 189 -71 m 182 -83 l 76 -68 q 163 -239 76 -182 q 357 -286 236 -286 q 524 -250 452 -286 q 642 -130 609 -210 q 673 98 673 -58 l 673 713 l 574 713 l 574 633 q 570 626 574 627 q 562 629 566 625 q 358 730 481 730 q 124 618 206 730 q 52 363 52 519 q 128 115 52 213 q 358 7 212 7 q 550 98 473 7 q 558 102 554 103 q 562 94 562 100 q 556 -47 562 -14 q 353 -198 529 -198 q 182 -83 197 -198 m 368 108 q 519 193 470 108 q 559 372 559 262 q 515 545 559 475 q 366 629 463 629 q 218 545 269 629 q 177 373 177 477 q 216 194 177 262 q 368 108 265 108 m 163 373 q 209 555 163 482 q 366 642 262 642 q 526 555 470 642 q 572 372 572 482 q 529 183 572 256 q 368 94 476 94 q 206 184 258 94 q 163 373 163 256 z "},"":{"ha":1003,"x_min":102,"x_max":896,"o":"m 102 994 q 109 1001 102 1001 l 241 1001 q 248 994 248 1001 l 248 593 l 751 593 l 751 994 q 758 1001 751 1001 l 889 1001 q 896 994 896 1001 l 896 0 q 889 -7 896 -7 l 758 -7 q 751 0 751 -7 l 751 462 l 248 462 l 248 0 q 241 -7 248 -7 l 109 -7 q 102 0 102 -7 l 102 994 m 116 987 l 116 7 l 234 7 l 234 469 q 241 475 234 475 l 758 475 q 764 469 764 475 l 764 7 l 882 7 l 882 987 l 764 987 l 764 586 q 758 579 764 579 l 241 579 q 234 586 234 579 l 234 987 l 116 987 m 600 1048 q 594 1052 595 1049 l 525 1158 l 454 1051 q 448 1048 451 1049 l 309 1048 q 303 1059 295 1048 l 438 1234 q 455 1252 452 1252 l 585 1252 q 591 1249 589 1251 l 720 1088 q 745 1053 745 1057 q 738 1048 745 1048 l 600 1048 m 724 1062 l 582 1238 l 458 1238 l 322 1062 l 445 1062 l 519 1175 q 524 1179 522 1178 q 563 1124 528 1179 l 603 1062 l 724 1062 z "},"":{"ha":772,"x_min":85,"x_max":685,"o":"m 556 -7 q 549 0 549 -7 l 549 456 q 404 625 549 625 q 307 598 352 625 q 240 524 260 570 q 220 394 220 477 l 220 0 q 214 -7 220 -7 l 92 -7 q 85 0 85 -7 l 85 994 q 92 1001 85 1001 l 214 1001 q 220 994 220 1001 l 220 655 q 429 743 305 743 q 659 621 603 743 q 685 456 685 564 l 685 0 q 678 -7 685 -7 l 556 -7 m 98 987 l 98 7 l 207 7 l 207 394 q 298 609 207 555 q 404 638 348 638 q 563 456 563 638 l 563 7 l 671 7 l 671 456 q 654 595 671 546 q 429 730 608 730 q 219 633 303 730 q 211 630 216 629 q 207 637 207 631 l 207 987 l 98 987 m 511 1048 q 506 1052 507 1049 l 437 1158 l 366 1051 q 360 1048 363 1049 l 220 1048 q 215 1059 207 1048 l 350 1234 q 367 1252 363 1252 l 497 1252 q 503 1249 500 1251 l 632 1088 q 657 1053 657 1057 q 650 1048 657 1048 l 511 1048 m 635 1062 l 494 1238 l 370 1238 l 234 1062 l 357 1062 l 431 1175 q 436 1179 434 1178 q 475 1124 440 1179 l 515 1062 l 635 1062 z "},"":{"ha":1003,"x_min":14,"x_max":988,"o":"m 21 739 q 14 745 14 739 l 14 846 q 21 852 14 852 l 104 852 l 104 994 q 111 1001 104 1001 l 243 1001 q 250 994 250 1001 l 250 852 l 753 852 l 753 994 q 760 1001 753 1001 l 891 1001 q 898 994 898 1001 l 898 852 l 981 852 q 988 846 988 852 l 988 745 q 981 739 988 739 l 898 739 l 898 0 q 891 -7 898 -7 l 760 -7 q 753 0 753 -7 l 753 462 l 250 462 l 250 0 q 243 -7 250 -7 l 111 -7 q 104 0 104 -7 l 104 739 l 21 739 m 28 752 l 111 752 q 118 745 118 752 l 118 7 l 236 7 l 236 469 q 243 475 236 475 l 760 475 q 766 469 766 475 l 766 7 l 884 7 l 884 745 q 891 752 884 752 l 975 752 l 975 839 l 891 839 q 884 846 884 839 l 884 987 l 766 987 l 766 846 q 760 839 766 839 l 243 839 q 236 846 236 839 l 236 987 l 118 987 l 118 846 q 111 839 118 839 l 28 839 l 28 752 m 250 593 l 753 593 l 753 739 l 250 739 l 250 593 m 236 586 l 236 745 q 243 752 236 752 l 760 752 q 766 745 766 752 l 766 586 q 760 579 766 579 l 243 579 q 236 586 236 579 z "},"":{"ha":772,"x_min":-3,"x_max":685,"o":"m 4 806 q -3 813 -3 806 l -3 904 q 4 911 -3 911 l 85 911 l 85 994 q 92 1001 85 1001 l 214 1001 q 220 994 220 1001 l 220 911 l 463 911 q 469 904 469 911 l 469 813 q 463 806 469 806 l 220 806 l 220 655 q 431 743 302 743 q 685 456 685 743 l 685 0 q 678 -7 685 -7 l 556 -7 q 549 0 549 -7 l 549 456 q 404 625 549 625 q 220 394 220 625 l 220 0 q 214 -7 220 -7 l 92 -7 q 85 0 85 -7 l 85 806 l 4 806 m 11 820 l 92 820 q 98 813 98 820 l 98 7 l 207 7 l 207 394 q 404 638 207 638 q 563 456 563 638 l 563 7 l 671 7 l 671 456 q 618 657 671 591 q 431 730 561 730 q 219 633 300 730 q 211 630 215 629 q 207 637 207 631 l 207 813 q 214 820 207 820 l 456 820 l 456 897 l 214 897 q 207 904 207 897 l 207 987 l 98 987 l 98 904 q 92 897 98 897 l 11 897 l 11 820 z "}}}
